<svg width="208" height="102" viewBox="0 0 208 102" fill="none" xmlns="http://www.w3.org/2000/svg" xmlns:xlink="http://www.w3.org/1999/xlink">
<path d="M108.918,96.049C108.918,95.468 108.78,94.91 108.504,94.373C108.228,93.837 107.836,93.363 107.326,92.952C106.817,92.541 106.229,92.225 105.563,92.003C104.897,91.78 104.204,91.669 103.484,91.669C102.763,91.669 102.07,91.78 101.404,92.003C100.738,92.225 100.15,92.541 99.641,92.952C99.131,93.363 98.739,93.837 98.463,94.373C98.187,94.91 98.049,95.468 98.049,96.049C98.049,96.63 98.187,97.189 98.463,97.725C98.739,98.262 99.131,98.735 99.641,99.146C100.15,99.557 100.738,99.873 101.404,100.095C102.07,100.318 102.763,100.429 103.484,100.429C104.204,100.429 104.897,100.318 105.563,100.095C106.229,99.873 106.817,99.557 107.326,99.146C107.836,98.735 108.228,98.262 108.504,97.725C108.78,97.189 108.918,96.63 108.918,96.049Z" transform="rotate(-180 103.484 96.049)" fill="#145DA0"/>
<path d="M108.918,66.348C108.918,65.767 108.78,65.208 108.504,64.672C108.228,64.135 107.836,63.662 107.326,63.251C106.817,62.84 106.229,62.524 105.563,62.302C104.897,62.079 104.204,61.968 103.484,61.968C102.763,61.968 102.07,62.079 101.404,62.302C100.738,62.524 100.15,62.84 99.641,63.251C99.131,63.662 98.739,64.135 98.463,64.672C98.187,65.208 98.049,65.767 98.049,66.348C98.049,66.929 98.187,67.487 98.463,68.024C98.739,68.561 99.131,69.034 99.641,69.445C100.15,69.856 100.738,70.172 101.404,70.394C102.07,70.617 102.763,70.728 103.484,70.728C104.204,70.728 104.897,70.617 105.563,70.394C106.229,70.172 106.817,69.856 107.326,69.445C107.836,69.034 108.228,68.561 108.504,68.024C108.78,67.487 108.918,66.929 108.918,66.348Z" transform="rotate(-180 103.484 66.348)" fill="#145DA0"/>
<path d="M108.918,36.646C108.918,36.065 108.78,35.506 108.504,34.97C108.228,34.433 107.836,33.959 107.326,33.549C106.817,33.138 106.229,32.822 105.563,32.6C104.897,32.377 104.204,32.266 103.484,32.266C102.763,32.266 102.07,32.377 101.404,32.6C100.738,32.822 100.15,33.138 99.641,33.549C99.131,33.959 98.739,34.433 98.463,34.97C98.187,35.506 98.049,36.065 98.049,36.646C98.049,37.227 98.187,37.785 98.463,38.322C98.739,38.859 99.131,39.332 99.641,39.743C100.15,40.153 100.738,40.47 101.404,40.692C102.07,40.914 102.763,41.026 103.484,41.026C104.204,41.026 104.897,40.914 105.563,40.692C106.229,40.47 106.817,40.153 107.326,39.743C107.836,39.332 108.228,38.859 108.504,38.322C108.78,37.785 108.918,37.227 108.918,36.646Z" transform="rotate(-180 103.484 36.646)" fill="#145DA0"/>
<path d="M108.918,6.945C108.918,6.364 108.78,5.805 108.504,5.269C108.228,4.732 107.836,4.258 107.326,3.848C106.817,3.437 106.229,3.121 105.563,2.898C104.897,2.676 104.204,2.565 103.484,2.565C102.763,2.565 102.07,2.676 101.404,2.898C100.738,3.121 100.15,3.437 99.641,3.848C99.131,4.258 98.739,4.732 98.463,5.269C98.187,5.805 98.049,6.364 98.049,6.945C98.049,7.526 98.187,8.084 98.463,8.621C98.739,9.157 99.131,9.631 99.641,10.042C100.15,10.452 100.738,10.769 101.404,10.991C102.07,11.213 102.763,11.324 103.484,11.324C104.204,11.324 104.897,11.213 105.563,10.991C106.229,10.769 106.817,10.452 107.326,10.042C107.836,9.631 108.228,9.157 108.504,8.621C108.78,8.084 108.918,7.526 108.918,6.945Z" transform="rotate(-180 103.484 6.945)" fill="#145DA0"/>
<path d="M141.82,95.655C141.82,95.074 141.682,94.515 141.406,93.978C141.131,93.442 140.738,92.968 140.228,92.558C139.719,92.147 139.131,91.831 138.466,91.608C137.8,91.386 137.107,91.275 136.386,91.275C135.665,91.275 134.972,91.386 134.306,91.608C133.641,91.831 133.053,92.147 132.543,92.558C132.034,92.968 131.641,93.442 131.365,93.978C131.089,94.515 130.952,95.074 130.952,95.655C130.952,96.236 131.089,96.794 131.365,97.331C131.641,97.867 132.034,98.341 132.543,98.751C133.053,99.162 133.641,99.479 134.306,99.701C134.972,99.923 135.665,100.034 136.386,100.034C137.107,100.034 137.8,99.923 138.466,99.701C139.131,99.479 139.719,99.162 140.228,98.751C140.738,98.341 141.131,97.867 141.406,97.331C141.682,96.794 141.82,96.236 141.82,95.655Z" transform="rotate(-180 136.386 95.655)" fill="#145DA0"/>
<path d="M141.82,65.952C141.82,65.372 141.682,64.813 141.406,64.276C141.131,63.74 140.738,63.266 140.228,62.856C139.719,62.445 139.131,62.128 138.466,61.906C137.8,61.684 137.107,61.573 136.386,61.573C135.665,61.573 134.972,61.684 134.306,61.906C133.64,62.128 133.053,62.445 132.543,62.856C132.034,63.266 131.641,63.74 131.365,64.276C131.089,64.813 130.952,65.372 130.952,65.952C130.952,66.533 131.089,67.092 131.365,67.629C131.641,68.165 132.034,68.639 132.543,69.049C133.053,69.46 133.64,69.777 134.306,69.999C134.972,70.221 135.665,70.332 136.386,70.332C137.107,70.332 137.8,70.221 138.466,69.999C139.131,69.777 139.719,69.46 140.228,69.049C140.738,68.639 141.131,68.165 141.406,67.629C141.682,67.092 141.82,66.533 141.82,65.952Z" transform="rotate(-180 136.386 65.952)" fill="#145DA0"/>
<path d="M141.82,36.252C141.82,35.671 141.682,35.113 141.406,34.576C141.131,34.04 140.738,33.566 140.228,33.155C139.719,32.745 139.131,32.428 138.466,32.206C137.8,31.984 137.107,31.873 136.386,31.873C135.665,31.873 134.972,31.984 134.306,32.206C133.64,32.428 133.053,32.745 132.543,33.155C132.034,33.566 131.641,34.04 131.365,34.576C131.089,35.113 130.952,35.671 130.952,36.252C130.952,36.833 131.089,37.392 131.365,37.928C131.641,38.465 132.034,38.939 132.543,39.349C133.053,39.76 133.64,40.076 134.306,40.299C134.972,40.521 135.665,40.632 136.386,40.632C137.107,40.632 137.8,40.521 138.466,40.299C139.131,40.076 139.719,39.76 140.228,39.349C140.738,38.939 141.131,38.465 141.406,37.928C141.682,37.392 141.82,36.833 141.82,36.252Z" transform="rotate(-180 136.386 36.252)" fill="#145DA0"/>
<path d="M141.82,6.551C141.82,5.97 141.682,5.412 141.406,4.875C141.131,4.339 140.738,3.865 140.228,3.454C139.719,3.043 139.131,2.727 138.466,2.505C137.8,2.282 137.107,2.171 136.386,2.171C135.665,2.171 134.972,2.282 134.306,2.505C133.64,2.727 133.053,3.043 132.543,3.454C132.034,3.865 131.641,4.339 131.365,4.875C131.089,5.412 130.952,5.97 130.952,6.551C130.952,7.132 131.089,7.691 131.365,8.227C131.641,8.764 132.034,9.237 132.543,9.648C133.053,10.059 133.64,10.375 134.306,10.597C134.972,10.82 135.665,10.931 136.386,10.931C137.107,10.931 137.8,10.82 138.466,10.597C139.131,10.375 139.719,10.059 140.228,9.648C140.738,9.237 141.131,8.764 141.406,8.227C141.682,7.691 141.82,7.132 141.82,6.551Z" transform="rotate(-180 136.386 6.551)" fill="#145DA0"/>
<path d="M174.721,95.655C174.721,95.074 174.583,94.515 174.307,93.978C174.031,93.442 173.638,92.968 173.129,92.558C172.619,92.147 172.031,91.83 171.366,91.608C170.7,91.386 170.007,91.275 169.286,91.275C168.566,91.275 167.872,91.386 167.207,91.608C166.541,91.83 165.953,92.147 165.444,92.558C164.934,92.968 164.541,93.442 164.266,93.978C163.99,94.515 163.852,95.074 163.852,95.655C163.852,96.236 163.99,96.794 164.266,97.331C164.541,97.867 164.934,98.341 165.444,98.751C165.953,99.162 166.541,99.479 167.207,99.701C167.872,99.923 168.566,100.034 169.286,100.034C170.007,100.034 170.7,99.923 171.366,99.701C172.031,99.479 172.619,99.162 173.129,98.751C173.638,98.341 174.031,97.867 174.307,97.331C174.583,96.794 174.721,96.236 174.721,95.655Z" transform="rotate(-180 169.286 95.655)" fill="#145DA0"/>
<path d="M174.721,65.952C174.721,65.372 174.583,64.813 174.307,64.276C174.031,63.74 173.638,63.266 173.129,62.856C172.619,62.445 172.031,62.128 171.366,61.906C170.7,61.684 170.007,61.573 169.286,61.573C168.566,61.573 167.872,61.684 167.207,61.906C166.541,62.128 165.953,62.445 165.444,62.856C164.934,63.266 164.541,63.74 164.266,64.276C163.99,64.813 163.852,65.372 163.852,65.952C163.852,66.533 163.99,67.092 164.266,67.629C164.541,68.165 164.934,68.639 165.444,69.049C165.953,69.46 166.541,69.777 167.207,69.999C167.872,70.221 168.566,70.332 169.286,70.332C170.007,70.332 170.7,70.221 171.366,69.999C172.031,69.777 172.619,69.46 173.129,69.049C173.638,68.639 174.031,68.165 174.307,67.629C174.583,67.092 174.721,66.533 174.721,65.952Z" transform="rotate(-180 169.286 65.952)" fill="#145DA0"/>
<path d="M174.721,36.252C174.721,35.671 174.583,35.113 174.307,34.576C174.031,34.04 173.638,33.566 173.129,33.155C172.619,32.745 172.031,32.428 171.366,32.206C170.7,31.984 170.007,31.873 169.286,31.873C168.566,31.873 167.872,31.984 167.207,32.206C166.541,32.428 165.953,32.745 165.444,33.155C164.934,33.566 164.541,34.04 164.266,34.576C163.99,35.113 163.852,35.671 163.852,36.252C163.852,36.833 163.99,37.392 164.266,37.928C164.541,38.465 164.934,38.939 165.444,39.349C165.953,39.76 166.541,40.076 167.207,40.299C167.872,40.521 168.566,40.632 169.286,40.632C170.007,40.632 170.7,40.521 171.366,40.299C172.031,40.076 172.619,39.76 173.129,39.349C173.638,38.939 174.031,38.465 174.307,37.928C174.583,37.392 174.721,36.833 174.721,36.252Z" transform="rotate(-180 169.286 36.252)" fill="#145DA0"/>
<path d="M174.721,6.551C174.721,5.97 174.583,5.412 174.307,4.875C174.031,4.339 173.638,3.865 173.129,3.454C172.619,3.043 172.031,2.727 171.366,2.505C170.7,2.282 170.007,2.171 169.286,2.171C168.566,2.171 167.872,2.282 167.207,2.505C166.541,2.727 165.953,3.043 165.444,3.454C164.934,3.865 164.541,4.339 164.266,4.875C163.99,5.412 163.852,5.97 163.852,6.551C163.852,7.132 163.99,7.691 164.266,8.227C164.541,8.764 164.934,9.237 165.444,9.648C165.953,10.059 166.541,10.375 167.207,10.597C167.872,10.82 168.566,10.931 169.286,10.931C170.007,10.931 170.7,10.82 171.366,10.597C172.031,10.375 172.619,10.059 173.129,9.648C173.638,9.237 174.031,8.764 174.307,8.227C174.583,7.691 174.721,7.132 174.721,6.551Z" transform="rotate(-180 169.286 6.551)" fill="#145DA0"/>
<path d="M207.623,95.655C207.623,95.074 207.485,94.515 207.209,93.978C206.933,93.442 206.541,92.968 206.031,92.558C205.522,92.147 204.934,91.83 204.268,91.608C203.603,91.386 202.909,91.275 202.189,91.275C201.468,91.275 200.775,91.386 200.109,91.608C199.443,91.83 198.855,92.147 198.346,92.558C197.836,92.968 197.444,93.442 197.168,93.978C196.892,94.515 196.754,95.074 196.754,95.655C196.754,96.236 196.892,96.794 197.168,97.331C197.444,97.867 197.836,98.341 198.346,98.751C198.855,99.162 199.443,99.479 200.109,99.701C200.775,99.923 201.468,100.034 202.189,100.034C202.909,100.034 203.603,99.923 204.268,99.701C204.934,99.479 205.522,99.162 206.031,98.751C206.541,98.341 206.933,97.867 207.209,97.331C207.485,96.794 207.623,96.236 207.623,95.655Z" transform="rotate(-180 202.189 95.655)" fill="#145DA0"/>
<path d="M207.623,65.952C207.623,65.372 207.485,64.813 207.209,64.276C206.933,63.74 206.541,63.266 206.031,62.856C205.522,62.445 204.934,62.128 204.268,61.906C203.603,61.684 202.909,61.573 202.189,61.573C201.468,61.573 200.775,61.684 200.109,61.906C199.443,62.128 198.855,62.445 198.346,62.856C197.836,63.266 197.444,63.74 197.168,64.276C196.892,64.813 196.754,65.372 196.754,65.952C196.754,66.533 196.892,67.092 197.168,67.629C197.444,68.165 197.836,68.639 198.346,69.049C198.855,69.46 199.443,69.777 200.109,69.999C200.775,70.221 201.468,70.332 202.189,70.332C202.909,70.332 203.603,70.221 204.268,69.999C204.934,69.777 205.522,69.46 206.031,69.049C206.541,68.639 206.933,68.165 207.209,67.629C207.485,67.092 207.623,66.533 207.623,65.952Z" transform="rotate(-180 202.189 65.952)" fill="#145DA0"/>
<path d="M207.623,36.252C207.623,35.671 207.485,35.113 207.209,34.576C206.933,34.04 206.541,33.566 206.031,33.155C205.522,32.745 204.934,32.428 204.268,32.206C203.603,31.984 202.909,31.873 202.189,31.873C201.468,31.873 200.775,31.984 200.109,32.206C199.443,32.428 198.855,32.745 198.346,33.155C197.836,33.566 197.444,34.04 197.168,34.576C196.892,35.113 196.754,35.671 196.754,36.252C196.754,36.833 196.892,37.392 197.168,37.928C197.444,38.465 197.836,38.939 198.346,39.349C198.855,39.76 199.443,40.076 200.109,40.299C200.775,40.521 201.468,40.632 202.189,40.632C202.909,40.632 203.603,40.521 204.268,40.299C204.934,40.076 205.522,39.76 206.031,39.349C206.541,38.939 206.933,38.465 207.209,37.928C207.485,37.392 207.623,36.833 207.623,36.252Z" transform="rotate(-180 202.189 36.252)" fill="#145DA0"/>
<path d="M207.623,6.551C207.623,5.97 207.485,5.412 207.209,4.875C206.933,4.339 206.541,3.865 206.031,3.454C205.522,3.043 204.934,2.727 204.268,2.505C203.603,2.282 202.909,2.171 202.189,2.171C201.468,2.171 200.775,2.282 200.109,2.505C199.443,2.727 198.855,3.043 198.346,3.454C197.836,3.865 197.444,4.339 197.168,4.875C196.892,5.412 196.754,5.97 196.754,6.551C196.754,7.132 196.892,7.691 197.168,8.227C197.444,8.764 197.836,9.237 198.346,9.648C198.855,10.059 199.443,10.375 200.109,10.597C200.775,10.82 201.468,10.931 202.189,10.931C202.909,10.931 203.603,10.82 204.268,10.597C204.934,10.375 205.522,10.059 206.031,9.648C206.541,9.237 206.933,8.764 207.209,8.227C207.485,7.691 207.623,7.132 207.623,6.551Z" transform="rotate(-180 202.189 6.551)" fill="#145DA0"/>
<path d="M76.017,96.049C76.017,95.468 75.88,94.91 75.604,94.373C75.328,93.837 74.935,93.363 74.426,92.952C73.916,92.541 73.328,92.225 72.663,92.003C71.997,91.78 71.304,91.669 70.583,91.669C69.862,91.669 69.169,91.78 68.503,92.003C67.838,92.225 67.25,92.541 66.741,92.952C66.231,93.363 65.838,93.837 65.563,94.373C65.287,94.91 65.149,95.468 65.149,96.049C65.149,96.63 65.287,97.189 65.563,97.725C65.838,98.262 66.231,98.735 66.741,99.146C67.25,99.557 67.838,99.873 68.503,100.095C69.169,100.318 69.862,100.429 70.583,100.429C71.304,100.429 71.997,100.318 72.663,100.095C73.328,99.873 73.916,99.557 74.426,99.146C74.935,98.735 75.328,98.262 75.604,97.725C75.88,97.189 76.017,96.63 76.017,96.049Z" transform="rotate(-180 70.583 96.049)" fill="#145DA0"/>
<path d="M76.017,66.348C76.017,65.767 75.88,65.208 75.604,64.672C75.328,64.135 74.935,63.662 74.426,63.251C73.916,62.84 73.328,62.524 72.663,62.302C71.997,62.079 71.304,61.968 70.583,61.968C69.862,61.968 69.169,62.079 68.503,62.302C67.838,62.524 67.25,62.84 66.741,63.251C66.231,63.662 65.838,64.135 65.563,64.672C65.287,65.208 65.149,65.767 65.149,66.348C65.149,66.929 65.287,67.488 65.563,68.024C65.838,68.561 66.231,69.034 66.741,69.445C67.25,69.856 67.838,70.172 68.503,70.394C69.169,70.617 69.862,70.728 70.583,70.728C71.304,70.728 71.997,70.617 72.663,70.394C73.328,70.172 73.916,69.856 74.426,69.445C74.935,69.034 75.328,68.561 75.604,68.024C75.88,67.488 76.017,66.929 76.017,66.348Z" transform="rotate(-180 70.583 66.348)" fill="#145DA0"/>
<path d="M76.017,36.646C76.017,36.065 75.88,35.506 75.604,34.97C75.328,34.433 74.935,33.959 74.426,33.549C73.916,33.138 73.328,32.822 72.663,32.6C71.997,32.377 71.304,32.266 70.583,32.266C69.862,32.266 69.169,32.377 68.503,32.6C67.838,32.822 67.25,33.138 66.741,33.549C66.231,33.959 65.838,34.433 65.563,34.97C65.287,35.506 65.149,36.065 65.149,36.646C65.149,37.227 65.287,37.785 65.563,38.322C65.838,38.859 66.231,39.332 66.741,39.743C67.25,40.153 67.838,40.47 68.503,40.692C69.169,40.914 69.862,41.026 70.583,41.026C71.304,41.026 71.997,40.914 72.663,40.692C73.328,40.47 73.916,40.153 74.426,39.743C74.935,39.332 75.328,38.859 75.604,38.322C75.88,37.785 76.017,37.227 76.017,36.646Z" transform="rotate(-180 70.583 36.646)" fill="#145DA0"/>
<path d="M76.017,6.945C76.017,6.364 75.88,5.805 75.604,5.269C75.328,4.732 74.935,4.258 74.426,3.848C73.916,3.437 73.328,3.121 72.663,2.898C71.997,2.676 71.304,2.565 70.583,2.565C69.862,2.565 69.169,2.676 68.503,2.898C67.838,3.121 67.25,3.437 66.741,3.848C66.231,4.258 65.838,4.732 65.563,5.269C65.287,5.805 65.149,6.364 65.149,6.945C65.149,7.526 65.287,8.084 65.563,8.621C65.838,9.157 66.231,9.631 66.741,10.042C67.25,10.452 67.838,10.769 68.503,10.991C69.169,11.213 69.862,11.324 70.583,11.324C71.304,11.324 71.997,11.213 72.663,10.991C73.328,10.769 73.916,10.452 74.426,10.042C74.935,9.631 75.328,9.157 75.604,8.621C75.88,8.084 76.017,7.526 76.017,6.945Z" transform="rotate(-180 70.583 6.945)" fill="#145DA0"/>
<path d="M43.115,96.049C43.115,95.468 42.977,94.91 42.701,94.373C42.426,93.837 42.033,93.363 41.523,92.952C41.014,92.541 40.426,92.225 39.761,92.003C39.095,91.78 38.402,91.669 37.681,91.669C36.96,91.669 36.267,91.78 35.601,92.003C34.936,92.225 34.348,92.541 33.838,92.952C33.329,93.363 32.936,93.837 32.66,94.373C32.384,94.91 32.247,95.468 32.247,96.049C32.247,96.63 32.384,97.189 32.66,97.725C32.936,98.262 33.329,98.735 33.838,99.146C34.348,99.557 34.936,99.873 35.601,100.095C36.267,100.318 36.96,100.429 37.681,100.429C38.402,100.429 39.095,100.318 39.761,100.095C40.426,99.873 41.014,99.557 41.523,99.146C42.033,98.735 42.426,98.262 42.701,97.725C42.977,97.189 43.115,96.63 43.115,96.049Z" transform="rotate(-180 37.681 96.049)" fill="#145DA0"/>
<path d="M43.115,66.348C43.115,65.767 42.977,65.208 42.701,64.672C42.426,64.135 42.033,63.662 41.523,63.251C41.014,62.84 40.426,62.524 39.761,62.302C39.095,62.079 38.402,61.968 37.681,61.968C36.96,61.968 36.267,62.079 35.601,62.302C34.936,62.524 34.348,62.84 33.838,63.251C33.329,63.662 32.936,64.135 32.66,64.672C32.384,65.208 32.247,65.767 32.247,66.348C32.247,66.929 32.384,67.488 32.66,68.024C32.936,68.561 33.329,69.034 33.838,69.445C34.348,69.856 34.936,70.172 35.601,70.394C36.267,70.617 36.96,70.728 37.681,70.728C38.402,70.728 39.095,70.617 39.761,70.394C40.426,70.172 41.014,69.856 41.523,69.445C42.033,69.034 42.426,68.561 42.701,68.024C42.977,67.488 43.115,66.929 43.115,66.348Z" transform="rotate(-180 37.681 66.348)" fill="#145DA0"/>
<path d="M43.115,36.646C43.115,36.065 42.977,35.506 42.701,34.97C42.426,34.433 42.033,33.959 41.523,33.549C41.014,33.138 40.426,32.822 39.761,32.6C39.095,32.377 38.402,32.266 37.681,32.266C36.96,32.266 36.267,32.377 35.601,32.6C34.935,32.822 34.348,33.138 33.838,33.549C33.329,33.959 32.936,34.433 32.66,34.97C32.384,35.506 32.247,36.065 32.247,36.646C32.247,37.227 32.384,37.785 32.66,38.322C32.936,38.859 33.329,39.332 33.838,39.743C34.348,40.153 34.935,40.47 35.601,40.692C36.267,40.914 36.96,41.026 37.681,41.026C38.402,41.026 39.095,40.914 39.761,40.692C40.426,40.47 41.014,40.153 41.523,39.743C42.033,39.332 42.426,38.859 42.701,38.322C42.977,37.785 43.115,37.227 43.115,36.646Z" transform="rotate(-180 37.681 36.646)" fill="#145DA0"/>
<path d="M43.115,6.945C43.115,6.364 42.977,5.805 42.701,5.269C42.426,4.732 42.033,4.258 41.523,3.848C41.014,3.437 40.426,3.121 39.761,2.898C39.095,2.676 38.402,2.565 37.681,2.565C36.96,2.565 36.267,2.676 35.601,2.898C34.935,3.121 34.348,3.437 33.838,3.848C33.329,4.258 32.936,4.732 32.66,5.269C32.384,5.805 32.247,6.364 32.247,6.945C32.247,7.526 32.384,8.084 32.66,8.621C32.936,9.157 33.329,9.631 33.838,10.042C34.348,10.452 34.935,10.769 35.601,10.991C36.267,11.213 36.96,11.324 37.681,11.324C38.402,11.324 39.095,11.213 39.761,10.991C40.426,10.769 41.014,10.452 41.523,10.042C42.033,9.631 42.426,9.157 42.701,8.621C42.977,8.084 43.115,7.526 43.115,6.945Z" transform="rotate(-180 37.681 6.945)" fill="#145DA0"/>
<path d="M10.213,95.655C10.213,95.074 10.075,94.515 9.799,93.978C9.523,93.442 9.131,92.968 8.621,92.558C8.112,92.147 7.524,91.83 6.858,91.608C6.192,91.386 5.499,91.275 4.778,91.275C4.058,91.275 3.365,91.386 2.699,91.608C2.033,91.83 1.445,92.147 0.936,92.558C0.426,92.968 0.034,93.442 -0.242,93.978C-0.518,94.515 -0.656,95.074 -0.656,95.655C-0.656,96.236 -0.518,96.794 -0.242,97.331C0.034,97.867 0.426,98.341 0.936,98.751C1.445,99.162 2.033,99.479 2.699,99.701C3.365,99.923 4.058,100.034 4.778,100.034C5.499,100.034 6.192,99.923 6.858,99.701C7.524,99.479 8.112,99.162 8.621,98.751C9.131,98.341 9.523,97.867 9.799,97.331C10.075,96.794 10.213,96.236 10.213,95.655Z" transform="rotate(-180 4.778 95.655)" fill="#145DA0"/>
<path d="M10.213,66.348C10.213,65.767 10.075,65.208 9.799,64.672C9.523,64.135 9.131,63.662 8.621,63.251C8.112,62.84 7.524,62.524 6.858,62.302C6.192,62.079 5.499,61.968 4.778,61.968C4.058,61.968 3.365,62.079 2.699,62.302C2.033,62.524 1.445,62.84 0.936,63.251C0.426,63.662 0.034,64.135 -0.242,64.672C-0.518,65.208 -0.656,65.767 -0.656,66.348C-0.656,66.929 -0.518,67.488 -0.242,68.024C0.034,68.56 0.426,69.034 0.936,69.445C1.445,69.856 2.033,70.172 2.699,70.394C3.365,70.617 4.058,70.728 4.778,70.728C5.499,70.728 6.192,70.617 6.858,70.394C7.524,70.172 8.112,69.856 8.621,69.445C9.131,69.034 9.523,68.56 9.799,68.024C10.075,67.488 10.213,66.929 10.213,66.348Z" transform="rotate(-180 4.778 66.348)" fill="#145DA0"/>
<path d="M10.213,36.646C10.213,36.065 10.075,35.506 9.799,34.97C9.523,34.433 9.131,33.959 8.621,33.549C8.112,33.138 7.524,32.822 6.858,32.6C6.192,32.377 5.499,32.266 4.778,32.266C4.058,32.266 3.365,32.377 2.699,32.6C2.033,32.822 1.445,33.138 0.936,33.549C0.426,33.959 0.034,34.433 -0.242,34.97C-0.518,35.506 -0.656,36.065 -0.656,36.646C-0.656,37.227 -0.518,37.785 -0.242,38.322C0.034,38.858 0.426,39.332 0.936,39.743C1.445,40.153 2.033,40.47 2.699,40.692C3.365,40.914 4.058,41.026 4.778,41.026C5.499,41.026 6.192,40.914 6.858,40.692C7.524,40.47 8.112,40.153 8.621,39.743C9.131,39.332 9.523,38.858 9.799,38.322C10.075,37.785 10.213,37.227 10.213,36.646Z" transform="rotate(-180 4.778 36.646)" fill="#145DA0"/>
<path d="M10.213,6.945C10.213,6.364 10.075,5.805 9.799,5.269C9.523,4.732 9.131,4.258 8.621,3.848C8.112,3.437 7.524,3.121 6.858,2.898C6.192,2.676 5.499,2.565 4.778,2.565C4.058,2.565 3.365,2.676 2.699,2.898C2.033,3.121 1.445,3.437 0.936,3.848C0.426,4.258 0.034,4.732 -0.242,5.269C-0.518,5.805 -0.656,6.364 -0.656,6.945C-0.656,7.526 -0.518,8.084 -0.242,8.621C0.034,9.157 0.426,9.631 0.936,10.042C1.445,10.452 2.033,10.769 2.699,10.991C3.365,11.213 4.058,11.324 4.778,11.324C5.499,11.324 6.192,11.213 6.858,10.991C7.524,10.769 8.112,10.452 8.621,10.042C9.131,9.631 9.523,9.157 9.799,8.621C10.075,8.084 10.213,7.526 10.213,6.945Z" transform="rotate(-180 4.778 6.945)" fill="#145DA0"/>
</svg>
