<svg width="154" height="90" viewBox="0 0 154 90" fill="none" xmlns="http://www.w3.org/2000/svg" xmlns:xlink="http://www.w3.org/1999/xlink">
<path d="M54.83,84.294C54.83,83.713 54.708,83.154 54.464,82.618C54.22,82.081 53.872,81.608 53.421,81.197C52.97,80.786 52.449,80.47 51.86,80.248C51.271,80.025 50.657,79.914 50.019,79.914C49.381,79.914 48.767,80.025 48.177,80.248C47.588,80.47 47.067,80.786 46.616,81.197C46.165,81.608 45.818,82.081 45.573,82.618C45.329,83.154 45.207,83.713 45.207,84.294C45.207,84.875 45.329,85.433 45.573,85.97C45.818,86.507 46.165,86.98 46.616,87.391C47.067,87.802 47.588,88.118 48.177,88.34C48.767,88.563 49.381,88.674 50.019,88.674C50.657,88.674 51.271,88.563 51.86,88.34C52.449,88.118 52.97,87.802 53.421,87.391C53.872,86.98 54.22,86.507 54.464,85.97C54.708,85.433 54.83,84.875 54.83,84.294Z" transform="rotate(-180 50.019 84.294)" fill="#145DA0"/>
<path d="M54.83,57.995C54.83,57.414 54.708,56.856 54.464,56.319C54.22,55.783 53.872,55.309 53.421,54.898C52.97,54.487 52.449,54.171 51.86,53.949C51.271,53.726 50.657,53.615 50.019,53.615C49.381,53.615 48.767,53.726 48.177,53.949C47.588,54.171 47.067,54.487 46.616,54.898C46.165,55.309 45.818,55.783 45.573,56.319C45.329,56.856 45.207,57.414 45.207,57.995C45.207,58.576 45.329,59.135 45.573,59.671C45.818,60.208 46.165,60.681 46.616,61.092C47.067,61.503 47.588,61.819 48.177,62.041C48.767,62.264 49.381,62.375 50.019,62.375C50.657,62.375 51.271,62.264 51.86,62.041C52.449,61.819 52.97,61.503 53.421,61.092C53.872,60.681 54.22,60.208 54.464,59.671C54.708,59.135 54.83,58.576 54.83,57.995Z" transform="rotate(-180 50.019 57.995)" fill="#145DA0"/>
<path d="M54.83,31.696C54.83,31.115 54.708,30.557 54.464,30.02C54.22,29.484 53.872,29.01 53.421,28.599C52.97,28.189 52.449,27.872 51.86,27.65C51.271,27.428 50.657,27.316 50.019,27.316C49.381,27.316 48.767,27.428 48.177,27.65C47.588,27.872 47.067,28.189 46.616,28.599C46.165,29.01 45.818,29.484 45.573,30.02C45.329,30.557 45.207,31.115 45.207,31.696C45.207,32.277 45.329,32.836 45.573,33.372C45.818,33.909 46.165,34.383 46.616,34.793C47.067,35.204 47.588,35.52 48.177,35.742C48.767,35.965 49.381,36.076 50.019,36.076C50.657,36.076 51.271,35.965 51.86,35.742C52.449,35.52 52.97,35.204 53.421,34.793C53.872,34.383 54.22,33.909 54.464,33.372C54.708,32.836 54.83,32.277 54.83,31.696Z" transform="rotate(-180 50.019 31.696)" fill="#145DA0"/>
<path d="M54.83,5.397C54.83,4.816 54.708,4.258 54.464,3.721C54.22,3.185 53.872,2.711 53.421,2.301C52.97,1.89 52.449,1.573 51.86,1.351C51.271,1.129 50.657,1.018 50.019,1.018C49.381,1.018 48.767,1.129 48.177,1.351C47.588,1.573 47.067,1.89 46.616,2.301C46.165,2.711 45.818,3.185 45.573,3.721C45.329,4.258 45.207,4.816 45.207,5.397C45.207,5.978 45.329,6.537 45.573,7.074C45.818,7.61 46.165,8.084 46.616,8.494C47.067,8.905 47.588,9.222 48.177,9.444C48.767,9.666 49.381,9.777 50.019,9.777C50.657,9.777 51.271,9.666 51.86,9.444C52.449,9.222 52.97,8.905 53.421,8.494C53.872,8.084 54.22,7.61 54.464,7.074C54.708,6.537 54.83,5.978 54.83,5.397Z" transform="rotate(-180 50.019 5.397)" fill="#145DA0"/>
<path d="M87.732,83.944C87.732,83.363 87.61,82.805 87.365,82.268C87.121,81.732 86.774,81.258 86.322,80.847C85.871,80.437 85.351,80.12 84.761,79.898C84.172,79.676 83.558,79.565 82.92,79.565C82.282,79.565 81.668,79.676 81.079,79.898C80.489,80.12 79.969,80.437 79.518,80.847C79.067,81.258 78.719,81.732 78.475,82.268C78.23,82.805 78.108,83.363 78.108,83.944C78.108,84.525 78.23,85.084 78.475,85.62C78.719,86.157 79.067,86.631 79.518,87.041C79.969,87.452 80.489,87.768 81.079,87.991C81.668,88.213 82.282,88.324 82.92,88.324C83.558,88.324 84.172,88.213 84.761,87.991C85.351,87.768 85.871,87.452 86.322,87.041C86.774,86.631 87.121,86.157 87.365,85.62C87.61,85.084 87.732,84.525 87.732,83.944Z" transform="rotate(-180 82.92 83.944)" fill="#145DA0"/>
<path d="M87.732,57.645C87.732,57.065 87.61,56.506 87.365,55.969C87.121,55.433 86.774,54.959 86.322,54.549C85.871,54.138 85.351,53.821 84.761,53.599C84.172,53.377 83.558,53.266 82.92,53.266C82.282,53.266 81.668,53.377 81.079,53.599C80.489,53.821 79.969,54.138 79.518,54.549C79.067,54.959 78.719,55.433 78.475,55.969C78.23,56.506 78.108,57.065 78.108,57.645C78.108,58.226 78.23,58.785 78.475,59.322C78.719,59.858 79.067,60.332 79.518,60.742C79.969,61.153 80.489,61.47 81.079,61.692C81.668,61.914 82.282,62.025 82.92,62.025C83.558,62.025 84.172,61.914 84.761,61.692C85.351,61.47 85.871,61.153 86.322,60.742C86.774,60.332 87.121,59.858 87.365,59.322C87.61,58.785 87.732,58.226 87.732,57.645Z" transform="rotate(-180 82.92 57.645)" fill="#145DA0"/>
<path d="M87.732,31.347C87.732,30.766 87.61,30.207 87.365,29.67C87.121,29.134 86.774,28.66 86.322,28.25C85.871,27.839 85.351,27.522 84.761,27.3C84.172,27.078 83.558,26.967 82.92,26.967C82.282,26.967 81.668,27.078 81.079,27.3C80.489,27.522 79.969,27.839 79.518,28.25C79.067,28.66 78.719,29.134 78.475,29.67C78.23,30.207 78.108,30.766 78.108,31.347C78.108,31.928 78.23,32.486 78.475,33.023C78.719,33.559 79.067,34.033 79.518,34.443C79.969,34.854 80.489,35.171 81.079,35.393C81.668,35.615 82.282,35.726 82.92,35.726C83.558,35.726 84.172,35.615 84.761,35.393C85.351,35.171 85.871,34.854 86.322,34.443C86.774,34.033 87.121,33.559 87.365,33.023C87.61,32.486 87.732,31.928 87.732,31.347Z" transform="rotate(-180 82.92 31.347)" fill="#145DA0"/>
<path d="M87.732,5.05C87.732,4.469 87.61,3.91 87.365,3.374C87.121,2.837 86.774,2.363 86.322,1.953C85.871,1.542 85.351,1.226 84.761,1.003C84.172,0.781 83.558,0.67 82.92,0.67C82.282,0.67 81.668,0.781 81.079,1.003C80.489,1.226 79.969,1.542 79.518,1.953C79.067,2.363 78.719,2.837 78.475,3.374C78.23,3.91 78.108,4.469 78.108,5.05C78.108,5.631 78.23,6.189 78.475,6.726C78.719,7.263 79.067,7.736 79.518,8.147C79.969,8.557 80.489,8.874 81.079,9.096C81.668,9.318 82.282,9.429 82.92,9.429C83.558,9.429 84.172,9.318 84.761,9.096C85.351,8.874 85.871,8.557 86.322,8.147C86.774,7.736 87.121,7.263 87.365,6.726C87.61,6.189 87.732,5.631 87.732,5.05Z" transform="rotate(-180 82.92 5.05)" fill="#145DA0"/>
<path d="M120.633,83.944C120.633,83.363 120.511,82.805 120.267,82.268C120.023,81.732 119.675,81.258 119.224,80.847C118.773,80.437 118.252,80.12 117.663,79.898C117.073,79.676 116.46,79.565 115.821,79.565C115.183,79.565 114.57,79.676 113.98,79.898C113.391,80.12 112.87,80.437 112.419,80.847C111.968,81.258 111.62,81.732 111.376,82.268C111.132,82.805 111.01,83.363 111.01,83.944C111.01,84.525 111.132,85.084 111.376,85.62C111.62,86.157 111.968,86.631 112.419,87.041C112.87,87.452 113.391,87.768 113.98,87.991C114.57,88.213 115.183,88.324 115.821,88.324C116.46,88.324 117.073,88.213 117.663,87.991C118.252,87.768 118.773,87.452 119.224,87.041C119.675,86.631 120.023,86.157 120.267,85.62C120.511,85.084 120.633,84.525 120.633,83.944Z" transform="rotate(-180 115.821 83.944)" fill="#145DA0"/>
<path d="M120.633,57.645C120.633,57.065 120.511,56.506 120.267,55.969C120.023,55.433 119.675,54.959 119.224,54.549C118.773,54.138 118.252,53.821 117.663,53.599C117.073,53.377 116.46,53.266 115.821,53.266C115.183,53.266 114.57,53.377 113.98,53.599C113.39,53.821 112.87,54.138 112.419,54.549C111.968,54.959 111.62,55.433 111.376,55.969C111.132,56.506 111.01,57.065 111.01,57.645C111.01,58.226 111.132,58.785 111.376,59.322C111.62,59.858 111.968,60.332 112.419,60.742C112.87,61.153 113.39,61.47 113.98,61.692C114.57,61.914 115.183,62.025 115.821,62.025C116.46,62.025 117.073,61.914 117.663,61.692C118.252,61.47 118.773,61.153 119.224,60.742C119.675,60.332 120.023,59.858 120.267,59.322C120.511,58.785 120.633,58.226 120.633,57.645Z" transform="rotate(-180 115.821 57.645)" fill="#145DA0"/>
<path d="M120.633,31.347C120.633,30.766 120.511,30.207 120.267,29.67C120.023,29.134 119.675,28.66 119.224,28.25C118.773,27.839 118.252,27.522 117.663,27.3C117.073,27.078 116.46,26.967 115.821,26.967C115.183,26.967 114.57,27.078 113.98,27.3C113.39,27.522 112.87,27.839 112.419,28.25C111.968,28.66 111.62,29.134 111.376,29.67C111.132,30.207 111.01,30.766 111.01,31.347C111.01,31.927 111.132,32.486 111.376,33.023C111.62,33.559 111.968,34.033 112.419,34.443C112.87,34.854 113.39,35.171 113.98,35.393C114.57,35.615 115.183,35.726 115.821,35.726C116.46,35.726 117.073,35.615 117.663,35.393C118.252,35.171 118.773,34.854 119.224,34.443C119.675,34.033 120.023,33.559 120.267,33.023C120.511,32.486 120.633,31.927 120.633,31.347Z" transform="rotate(-180 115.821 31.347)" fill="#145DA0"/>
<path d="M120.633,5.05C120.633,4.469 120.511,3.91 120.267,3.374C120.023,2.837 119.675,2.363 119.224,1.953C118.773,1.542 118.252,1.226 117.663,1.003C117.073,0.781 116.46,0.67 115.821,0.67C115.183,0.67 114.57,0.781 113.98,1.003C113.39,1.226 112.87,1.542 112.419,1.953C111.968,2.363 111.62,2.837 111.376,3.374C111.132,3.91 111.01,4.469 111.01,5.05C111.01,5.631 111.132,6.189 111.376,6.726C111.62,7.263 111.968,7.736 112.419,8.147C112.87,8.557 113.39,8.874 113.98,9.096C114.57,9.318 115.183,9.429 115.821,9.429C116.46,9.429 117.073,9.318 117.663,9.096C118.252,8.874 118.773,8.557 119.224,8.147C119.675,7.736 120.023,7.263 120.267,6.726C120.511,6.189 120.633,5.631 120.633,5.05Z" transform="rotate(-180 115.821 5.05)" fill="#145DA0"/>
<path d="M153.535,83.944C153.535,83.363 153.413,82.805 153.169,82.268C152.925,81.732 152.577,81.258 152.126,80.847C151.675,80.437 151.154,80.12 150.565,79.898C149.976,79.676 149.362,79.565 148.724,79.565C148.086,79.565 147.472,79.676 146.882,79.898C146.293,80.12 145.773,80.437 145.322,80.847C144.87,81.258 144.523,81.732 144.279,82.268C144.034,82.805 143.912,83.363 143.912,83.944C143.912,84.525 144.034,85.084 144.279,85.62C144.523,86.157 144.87,86.631 145.322,87.041C145.773,87.452 146.293,87.768 146.882,87.991C147.472,88.213 148.086,88.324 148.724,88.324C149.362,88.324 149.976,88.213 150.565,87.991C151.154,87.768 151.675,87.452 152.126,87.041C152.577,86.631 152.925,86.157 153.169,85.62C153.413,85.084 153.535,84.525 153.535,83.944Z" transform="rotate(-180 148.724 83.944)" fill="#145DA0"/>
<path d="M153.535,57.645C153.535,57.065 153.413,56.506 153.169,55.969C152.925,55.433 152.577,54.959 152.126,54.549C151.675,54.138 151.154,53.821 150.565,53.599C149.976,53.377 149.362,53.266 148.724,53.266C148.086,53.266 147.472,53.377 146.882,53.599C146.293,53.821 145.773,54.138 145.322,54.549C144.87,54.959 144.523,55.433 144.279,55.969C144.034,56.506 143.912,57.065 143.912,57.645C143.912,58.226 144.034,58.785 144.279,59.322C144.523,59.858 144.87,60.332 145.322,60.742C145.773,61.153 146.293,61.47 146.882,61.692C147.472,61.914 148.086,62.025 148.724,62.025C149.362,62.025 149.976,61.914 150.565,61.692C151.154,61.47 151.675,61.153 152.126,60.742C152.577,60.332 152.925,59.858 153.169,59.322C153.413,58.785 153.535,58.226 153.535,57.645Z" transform="rotate(-180 148.724 57.645)" fill="#145DA0"/>
<path d="M153.535,31.347C153.535,30.766 153.413,30.207 153.169,29.67C152.925,29.134 152.577,28.66 152.126,28.25C151.675,27.839 151.154,27.522 150.565,27.3C149.976,27.078 149.362,26.967 148.724,26.967C148.086,26.967 147.472,27.078 146.882,27.3C146.293,27.522 145.773,27.839 145.322,28.25C144.87,28.66 144.523,29.134 144.279,29.67C144.034,30.207 143.912,30.766 143.912,31.347C143.912,31.927 144.034,32.486 144.279,33.023C144.523,33.559 144.87,34.033 145.322,34.443C145.773,34.854 146.293,35.171 146.882,35.393C147.472,35.615 148.086,35.726 148.724,35.726C149.362,35.726 149.976,35.615 150.565,35.393C151.154,35.171 151.675,34.854 152.126,34.443C152.577,34.033 152.925,33.559 153.169,33.023C153.413,32.486 153.535,31.927 153.535,31.347Z" transform="rotate(-180 148.724 31.347)" fill="#145DA0"/>
<path d="M153.535,5.05C153.535,4.469 153.413,3.91 153.169,3.374C152.925,2.837 152.577,2.363 152.126,1.953C151.675,1.542 151.154,1.226 150.565,1.003C149.976,0.781 149.362,0.67 148.724,0.67C148.086,0.67 147.472,0.781 146.882,1.003C146.293,1.226 145.773,1.542 145.322,1.953C144.87,2.363 144.523,2.837 144.279,3.374C144.034,3.91 143.912,4.469 143.912,5.05C143.912,5.631 144.034,6.189 144.279,6.726C144.523,7.263 144.87,7.736 145.322,8.147C145.773,8.557 146.293,8.874 146.882,9.096C147.472,9.318 148.086,9.429 148.724,9.429C149.362,9.429 149.976,9.318 150.565,9.096C151.154,8.874 151.675,8.557 152.126,8.147C152.577,7.736 152.925,7.263 153.169,6.726C153.413,6.189 153.535,5.631 153.535,5.05Z" transform="rotate(-180 148.724 5.05)" fill="#145DA0"/>
<path d="M21.929,84.294C21.929,83.713 21.807,83.154 21.563,82.618C21.319,82.081 20.971,81.608 20.52,81.197C20.069,80.786 19.548,80.47 18.959,80.248C18.369,80.025 17.756,79.914 17.117,79.914C16.479,79.914 15.865,80.025 15.276,80.248C14.687,80.47 14.166,80.786 13.715,81.197C13.264,81.608 12.916,82.081 12.672,82.618C12.428,83.154 12.306,83.713 12.306,84.294C12.306,84.875 12.428,85.433 12.672,85.97C12.916,86.507 13.264,86.98 13.715,87.391C14.166,87.802 14.687,88.118 15.276,88.34C15.865,88.563 16.479,88.674 17.117,88.674C17.756,88.674 18.369,88.563 18.959,88.34C19.548,88.118 20.069,87.802 20.52,87.391C20.971,86.98 21.319,86.507 21.563,85.97C21.807,85.433 21.929,84.875 21.929,84.294Z" transform="rotate(-180 17.117 84.294)" fill="#145DA0"/>
<path d="M21.929,57.995C21.929,57.414 21.807,56.856 21.563,56.319C21.319,55.783 20.971,55.309 20.52,54.898C20.069,54.487 19.548,54.171 18.959,53.949C18.369,53.726 17.756,53.615 17.117,53.615C16.479,53.615 15.865,53.726 15.276,53.949C14.687,54.171 14.166,54.487 13.715,54.898C13.264,55.309 12.916,55.783 12.672,56.319C12.428,56.856 12.306,57.414 12.306,57.995C12.306,58.576 12.428,59.135 12.672,59.671C12.916,60.208 13.264,60.681 13.715,61.092C14.166,61.503 14.687,61.819 15.276,62.041C15.865,62.264 16.479,62.375 17.117,62.375C17.756,62.375 18.369,62.264 18.959,62.041C19.548,61.819 20.069,61.503 20.52,61.092C20.971,60.681 21.319,60.208 21.563,59.671C21.807,59.135 21.929,58.576 21.929,57.995Z" transform="rotate(-180 17.117 57.995)" fill="#145DA0"/>
<path d="M21.929,31.696C21.929,31.115 21.807,30.557 21.563,30.02C21.319,29.484 20.971,29.01 20.52,28.599C20.069,28.189 19.548,27.872 18.959,27.65C18.369,27.428 17.756,27.316 17.117,27.316C16.479,27.316 15.865,27.428 15.276,27.65C14.686,27.872 14.166,28.189 13.715,28.599C13.264,29.01 12.916,29.484 12.672,30.02C12.428,30.557 12.306,31.115 12.306,31.696C12.306,32.277 12.428,32.836 12.672,33.372C12.916,33.909 13.264,34.383 13.715,34.793C14.166,35.204 14.686,35.52 15.276,35.742C15.865,35.965 16.479,36.076 17.117,36.076C17.756,36.076 18.369,35.965 18.959,35.742C19.548,35.52 20.069,35.204 20.52,34.793C20.971,34.383 21.319,33.909 21.563,33.372C21.807,32.836 21.929,32.277 21.929,31.696Z" transform="rotate(-180 17.117 31.696)" fill="#145DA0"/>
<path d="M21.929,5.397C21.929,4.816 21.807,4.258 21.563,3.721C21.319,3.185 20.971,2.711 20.52,2.301C20.069,1.89 19.548,1.573 18.959,1.351C18.369,1.129 17.755,1.018 17.117,1.018C16.479,1.018 15.865,1.129 15.276,1.351C14.686,1.573 14.166,1.89 13.715,2.301C13.264,2.711 12.916,3.185 12.672,3.721C12.428,4.258 12.306,4.816 12.306,5.397C12.306,5.978 12.428,6.537 12.672,7.074C12.916,7.61 13.264,8.084 13.715,8.494C14.166,8.905 14.686,9.222 15.276,9.444C15.865,9.666 16.479,9.777 17.117,9.777C17.755,9.777 18.369,9.666 18.959,9.444C19.548,9.222 20.069,8.905 20.52,8.494C20.971,8.084 21.319,7.61 21.563,7.074C21.807,6.537 21.929,5.978 21.929,5.397Z" transform="rotate(-180 17.117 5.397)" fill="#145DA0"/>
</svg>
