<svg width="454" height="130" viewBox="0 0 454 130" fill="none" xmlns="http://www.w3.org/2000/svg" xmlns:xlink="http://www.w3.org/1999/xlink">
<path d="M452.352,-0.134L0.04,-0.134L0.04,128.95L452.352,128.95L452.352,-0.134Z" fill="#0453F1"/>
<path d="M144.924,51.443L151.062,51.443Q152.982,51.443 154.336,52.101Q155.69,52.757 156.412,54.045Q157.136,55.333 157.136,57.227Q157.136,58.777 156.714,59.875Q156.294,60.973 155.518,61.703Q154.742,62.431 153.666,62.865L152.496,63.563L147.514,63.563L147.5,60.367L150.958,60.367Q151.746,60.367 152.266,60.019Q152.784,59.671 153.04,59.033Q153.298,58.397 153.298,57.541Q153.298,56.635 153.068,55.985Q152.836,55.333 152.344,54.985Q151.852,54.637 151.062,54.637L148.776,54.637L148.776,70.581L144.924,70.581L144.924,51.443M153.612,70.581L150.102,62.051L154.138,62.037L157.726,70.397L157.726,70.581L153.612,70.581ZM170.778,67.401L170.778,70.581L162.458,70.581L162.458,67.401L170.778,67.401M163.654,51.443L163.654,70.581L159.804,70.581L159.804,51.443L163.654,51.443M169.662,59.199L169.662,62.287L162.458,62.287L162.458,59.199L169.662,59.199M170.752,51.443L170.752,54.637L162.458,54.637L162.458,51.443L170.752,51.443ZM186.014,60.525L186.014,68.413Q185.606,68.845 184.824,69.417Q184.042,69.989 182.786,70.417Q181.53,70.843 179.73,70.843Q178.14,70.843 176.844,70.345Q175.55,69.845 174.624,68.827Q173.696,67.807 173.21,66.277Q172.724,64.745 172.724,62.641L172.724,59.383Q172.724,57.305 173.19,55.761Q173.658,54.217 174.552,53.191Q175.446,52.165 176.688,51.667Q177.93,51.167 179.494,51.167Q181.65,51.167 183.036,51.889Q184.422,52.613 185.138,54.033Q185.856,55.453 186,57.515L182.28,57.515Q182.188,56.307 181.88,55.623Q181.57,54.939 181.018,54.643Q180.466,54.347 179.586,54.347Q178.824,54.347 178.258,54.617Q177.692,54.887 177.312,55.491Q176.93,56.097 176.746,57.043Q176.562,57.989 176.562,59.355L176.562,62.641Q176.562,63.995 176.772,64.955Q176.982,65.915 177.398,66.519Q177.812,67.125 178.448,67.393Q179.086,67.663 179.954,67.663Q180.65,67.663 181.07,67.519Q181.492,67.373 181.748,67.209Q182.004,67.045 182.174,66.953L182.174,63.431L179.428,63.431L179.428,60.525L186.014,60.525ZM192.77,51.443L192.77,70.581L188.944,70.581L188.944,51.443L192.77,51.443ZM204.138,65.547Q204.138,65.035 204.046,64.613Q203.954,64.193 203.66,63.839Q203.364,63.483 202.804,63.129Q202.246,62.773 201.352,62.393Q200.288,61.945 199.288,61.439Q198.29,60.933 197.488,60.263Q196.686,59.593 196.22,58.679Q195.752,57.765 195.752,56.529Q195.752,55.321 196.194,54.335Q196.634,53.349 197.448,52.645Q198.264,51.943 199.362,51.561Q200.458,51.181 201.812,51.181Q203.652,51.181 205,51.943Q206.348,52.705 207.09,54.033Q207.832,55.361 207.832,57.081L203.994,57.081Q203.994,56.267 203.764,55.643Q203.534,55.019 203.034,54.663Q202.536,54.309 201.746,54.309Q201.01,54.309 200.53,54.605Q200.052,54.899 199.822,55.407Q199.592,55.913 199.592,56.543Q199.592,57.017 199.822,57.391Q200.052,57.765 200.458,58.061Q200.866,58.357 201.424,58.633Q201.984,58.909 202.654,59.171Q203.954,59.685 204.954,60.295Q205.952,60.907 206.624,61.663Q207.294,62.419 207.636,63.365Q207.978,64.311 207.978,65.521Q207.978,66.717 207.564,67.695Q207.148,68.675 206.36,69.379Q205.572,70.081 204.46,70.463Q203.35,70.843 201.984,70.843Q200.656,70.843 199.472,70.469Q198.29,70.095 197.39,69.325Q196.49,68.557 195.976,67.367Q195.464,66.177 195.464,64.547L199.316,64.547Q199.316,65.415 199.486,66.027Q199.656,66.637 200.012,66.999Q200.366,67.361 200.886,67.539Q201.404,67.715 202.076,67.715Q202.838,67.715 203.292,67.427Q203.744,67.137 203.942,66.651Q204.138,66.165 204.138,65.547ZM218.19,51.443L218.19,70.581L214.366,70.581L214.366,51.443L218.19,51.443M222.948,51.443L222.948,54.637L209.698,54.637L209.698,51.443L222.948,51.443ZM225.182,51.443L231.322,51.443Q233.24,51.443 234.594,52.101Q235.948,52.757 236.67,54.045Q237.394,55.333 237.394,57.227Q237.394,58.777 236.974,59.875Q236.552,60.973 235.778,61.703Q235.002,62.431 233.924,62.865L232.754,63.563L227.772,63.563L227.76,60.367L231.216,60.367Q232.004,60.367 232.524,60.019Q233.044,59.671 233.3,59.033Q233.556,58.397 233.556,57.541Q233.556,56.635 233.326,55.985Q233.096,55.333 232.602,54.985Q232.11,54.637 231.322,54.637L229.034,54.637L229.034,70.581L225.182,70.581L225.182,51.443M233.872,70.581L230.362,62.051L234.396,62.037L237.986,70.397L237.986,70.581L233.872,70.581ZM246.99,54.861L242.876,70.581L238.814,70.581L244.794,51.443L247.33,51.443L246.99,54.861M250.236,70.581L246.096,54.861L245.714,51.443L248.29,51.443L254.324,70.581L250.236,70.581M250.38,63.443L250.38,66.637L241.744,66.637L241.744,63.443L250.38,63.443ZM262.184,51.443L262.184,70.581L258.358,70.581L258.358,51.443L262.184,51.443M266.942,51.443L266.942,54.637L253.692,54.637L253.692,51.443L266.942,51.443ZM280.138,67.401L280.138,70.581L271.818,70.581L271.818,67.401L280.138,67.401M273.014,51.443L273.014,70.581L269.164,70.581L269.164,51.443L273.014,51.443M279.022,59.199L279.022,62.287L271.818,62.287L271.818,59.199L279.022,59.199M280.112,51.443L280.112,54.637L271.818,54.637L271.818,51.443L280.112,51.443Z" fill="#FFFFFF"/>
</svg>
