<svg width="210" height="102" viewBox="0 0 210 102" fill="none" xmlns="http://www.w3.org/2000/svg" xmlns:xlink="http://www.w3.org/1999/xlink">
<path d="M110.516,95.202C110.516,94.622 110.379,94.063 110.103,93.526C109.827,92.99 109.434,92.516 108.925,92.106C108.415,91.695 107.827,91.378 107.162,91.156C106.496,90.934 105.803,90.823 105.082,90.823C104.361,90.823 103.668,90.934 103.002,91.156C102.337,91.378 101.749,91.695 101.24,92.106C100.73,92.516 100.337,92.99 100.062,93.526C99.786,94.063 99.648,94.622 99.648,95.202C99.648,95.783 99.786,96.342 100.062,96.879C100.337,97.415 100.73,97.889 101.24,98.299C101.749,98.71 102.337,99.027 103.002,99.249C103.668,99.471 104.361,99.582 105.082,99.582C105.803,99.582 106.496,99.471 107.162,99.249C107.827,99.027 108.415,98.71 108.925,98.299C109.434,97.889 109.827,97.415 110.103,96.879C110.379,96.342 110.516,95.783 110.516,95.202Z" transform="rotate(-180 105.082 95.202)" fill="#145DA0"/>
<path d="M110.516,65.501C110.516,64.92 110.379,64.362 110.103,63.825C109.827,63.289 109.434,62.815 108.925,62.404C108.415,61.994 107.827,61.677 107.162,61.455C106.496,61.233 105.803,61.122 105.082,61.122C104.361,61.122 103.668,61.233 103.002,61.455C102.337,61.677 101.749,61.994 101.24,62.404C100.73,62.815 100.337,63.289 100.062,63.825C99.786,64.362 99.648,64.92 99.648,65.501C99.648,66.082 99.786,66.641 100.062,67.177C100.337,67.714 100.73,68.188 101.24,68.598C101.749,69.009 102.337,69.325 103.002,69.548C103.668,69.77 104.361,69.881 105.082,69.881C105.803,69.881 106.496,69.77 107.162,69.548C107.827,69.325 108.415,69.009 108.925,68.598C109.434,68.188 109.827,67.714 110.103,67.177C110.379,66.641 110.516,66.082 110.516,65.501Z" transform="rotate(-180 105.082 65.501)" fill="#145DA0"/>
<path d="M110.516,35.799C110.516,35.218 110.379,34.66 110.103,34.123C109.827,33.587 109.434,33.113 108.925,32.702C108.415,32.291 107.827,31.975 107.162,31.753C106.496,31.53 105.803,31.419 105.082,31.419C104.361,31.419 103.668,31.53 103.002,31.753C102.337,31.975 101.749,32.291 101.24,32.702C100.73,33.113 100.337,33.587 100.062,34.123C99.786,34.66 99.648,35.218 99.648,35.799C99.648,36.38 99.786,36.939 100.062,37.475C100.337,38.012 100.73,38.485 101.24,38.896C101.749,39.307 102.337,39.623 103.002,39.845C103.668,40.068 104.361,40.179 105.082,40.179C105.803,40.179 106.496,40.068 107.162,39.845C107.827,39.623 108.415,39.307 108.925,38.896C109.434,38.485 109.827,38.012 110.103,37.475C110.379,36.939 110.516,36.38 110.516,35.799Z" transform="rotate(-180 105.082 35.799)" fill="#145DA0"/>
<path d="M110.516,6.099C110.516,5.518 110.379,4.959 110.103,4.423C109.827,3.886 109.434,3.413 108.925,3.002C108.415,2.591 107.827,2.275 107.162,2.053C106.496,1.83 105.803,1.719 105.082,1.719C104.361,1.719 103.668,1.83 103.002,2.053C102.337,2.275 101.749,2.591 101.24,3.002C100.73,3.413 100.337,3.886 100.062,4.423C99.786,4.959 99.648,5.518 99.648,6.099C99.648,6.68 99.786,7.238 100.062,7.775C100.337,8.312 100.73,8.785 101.24,9.196C101.749,9.607 102.337,9.923 103.002,10.145C103.668,10.368 104.361,10.479 105.082,10.479C105.803,10.479 106.496,10.368 107.162,10.145C107.827,9.923 108.415,9.607 108.925,9.196C109.434,8.785 109.827,8.312 110.103,7.775C110.379,7.238 110.516,6.68 110.516,6.099Z" transform="rotate(-180 105.082 6.099)" fill="#145DA0"/>
<path d="M143.42,94.808C143.42,94.227 143.282,93.668 143.006,93.132C142.73,92.595 142.338,92.122 141.828,91.711C141.319,91.3 140.731,90.984 140.065,90.762C139.399,90.539 138.706,90.428 137.985,90.428C137.265,90.428 136.572,90.539 135.906,90.762C135.24,90.984 134.652,91.3 134.143,91.711C133.633,92.122 133.241,92.595 132.965,93.132C132.689,93.668 132.551,94.227 132.551,94.808C132.551,95.389 132.689,95.947 132.965,96.484C133.241,97.021 133.633,97.494 134.143,97.905C134.652,98.316 135.24,98.632 135.906,98.854C136.572,99.077 137.265,99.188 137.985,99.188C138.706,99.188 139.399,99.077 140.065,98.854C140.731,98.632 141.319,98.316 141.828,97.905C142.338,97.494 142.73,97.021 143.006,96.484C143.282,95.947 143.42,95.389 143.42,94.808Z" transform="rotate(-180 137.985 94.808)" fill="#145DA0"/>
<path d="M143.42,65.107C143.42,64.526 143.282,63.967 143.006,63.431C142.73,62.894 142.338,62.42 141.828,62.01C141.319,61.599 140.731,61.283 140.065,61.06C139.399,60.838 138.706,60.727 137.985,60.727C137.265,60.727 136.572,60.838 135.906,61.06C135.24,61.283 134.652,61.599 134.143,62.01C133.633,62.42 133.241,62.894 132.965,63.431C132.689,63.967 132.551,64.526 132.551,65.107C132.551,65.688 132.689,66.246 132.965,66.783C133.241,67.32 133.633,67.793 134.143,68.204C134.652,68.614 135.24,68.931 135.906,69.153C136.572,69.375 137.265,69.486 137.985,69.486C138.706,69.486 139.399,69.375 140.065,69.153C140.731,68.931 141.319,68.614 141.828,68.204C142.338,67.793 142.73,67.32 143.006,66.783C143.282,66.246 143.42,65.688 143.42,65.107Z" transform="rotate(-180 137.985 65.107)" fill="#145DA0"/>
<path d="M143.42,35.406C143.42,34.825 143.282,34.266 143.006,33.729C142.73,33.193 142.338,32.719 141.828,32.309C141.319,31.898 140.731,31.581 140.065,31.359C139.399,31.137 138.706,31.026 137.985,31.026C137.265,31.026 136.572,31.137 135.906,31.359C135.24,31.581 134.652,31.898 134.143,32.309C133.633,32.719 133.241,33.193 132.965,33.729C132.689,34.266 132.551,34.825 132.551,35.406C132.551,35.986 132.689,36.545 132.965,37.082C133.241,37.618 133.633,38.092 134.143,38.502C134.652,38.913 135.24,39.23 135.906,39.452C136.572,39.674 137.265,39.785 137.985,39.785C138.706,39.785 139.399,39.674 140.065,39.452C140.731,39.23 141.319,38.913 141.828,38.502C142.338,38.092 142.73,37.618 143.006,37.082C143.282,36.545 143.42,35.986 143.42,35.406Z" transform="rotate(-180 137.985 35.406)" fill="#145DA0"/>
<path d="M143.42,5.703C143.42,5.123 143.282,4.564 143.006,4.027C142.73,3.491 142.338,3.017 141.828,2.607C141.319,2.196 140.731,1.879 140.065,1.657C139.399,1.435 138.706,1.324 137.985,1.324C137.265,1.324 136.572,1.435 135.906,1.657C135.24,1.879 134.652,2.196 134.143,2.607C133.633,3.017 133.241,3.491 132.965,4.027C132.689,4.564 132.551,5.123 132.551,5.703C132.551,6.284 132.689,6.843 132.965,7.38C133.241,7.916 133.633,8.39 134.143,8.8C134.652,9.211 135.24,9.528 135.906,9.75C136.572,9.972 137.265,10.083 137.985,10.083C138.706,10.083 139.399,9.972 140.065,9.75C140.731,9.528 141.319,9.211 141.828,8.8C142.338,8.39 142.73,7.916 143.006,7.38C143.282,6.843 143.42,6.284 143.42,5.703Z" transform="rotate(-180 137.985 5.703)" fill="#145DA0"/>
<path d="M176.32,94.808C176.32,94.227 176.182,93.668 175.906,93.132C175.631,92.595 175.238,92.122 174.728,91.711C174.219,91.3 173.631,90.984 172.966,90.762C172.3,90.539 171.607,90.428 170.886,90.428C170.165,90.428 169.472,90.539 168.806,90.762C168.141,90.984 167.553,91.3 167.043,91.711C166.534,92.122 166.141,92.595 165.865,93.132C165.589,93.668 165.452,94.227 165.452,94.808C165.452,95.389 165.589,95.947 165.865,96.484C166.141,97.021 166.534,97.494 167.043,97.905C167.553,98.316 168.141,98.632 168.806,98.854C169.472,99.077 170.165,99.188 170.886,99.188C171.607,99.188 172.3,99.077 172.966,98.854C173.631,98.632 174.219,98.316 174.728,97.905C175.238,97.494 175.631,97.021 175.906,96.484C176.182,95.947 176.32,95.389 176.32,94.808Z" transform="rotate(-180 170.886 94.808)" fill="#145DA0"/>
<path d="M176.32,65.107C176.32,64.526 176.182,63.967 175.906,63.431C175.631,62.894 175.238,62.42 174.728,62.01C174.219,61.599 173.631,61.283 172.966,61.06C172.3,60.838 171.607,60.727 170.886,60.727C170.165,60.727 169.472,60.838 168.806,61.06C168.14,61.283 167.553,61.599 167.043,62.01C166.534,62.42 166.141,62.894 165.865,63.431C165.589,63.967 165.452,64.526 165.452,65.107C165.452,65.688 165.589,66.246 165.865,66.783C166.141,67.32 166.534,67.793 167.043,68.204C167.553,68.614 168.14,68.931 168.806,69.153C169.472,69.375 170.165,69.487 170.886,69.487C171.607,69.487 172.3,69.375 172.966,69.153C173.631,68.931 174.219,68.614 174.728,68.204C175.238,67.793 175.631,67.32 175.906,66.783C176.182,66.246 176.32,65.688 176.32,65.107Z" transform="rotate(-180 170.886 65.107)" fill="#145DA0"/>
<path d="M176.32,35.406C176.32,34.825 176.182,34.266 175.906,33.729C175.631,33.193 175.238,32.719 174.728,32.309C174.219,31.898 173.631,31.581 172.966,31.359C172.3,31.137 171.607,31.026 170.886,31.026C170.165,31.026 169.472,31.137 168.806,31.359C168.14,31.581 167.553,31.898 167.043,32.309C166.534,32.719 166.141,33.193 165.865,33.729C165.589,34.266 165.452,34.825 165.452,35.406C165.452,35.986 165.589,36.545 165.865,37.082C166.141,37.618 166.534,38.092 167.043,38.502C167.553,38.913 168.14,39.23 168.806,39.452C169.472,39.674 170.165,39.785 170.886,39.785C171.607,39.785 172.3,39.674 172.966,39.452C173.631,39.23 174.219,38.913 174.728,38.502C175.238,38.092 175.631,37.618 175.906,37.082C176.182,36.545 176.32,35.986 176.32,35.406Z" transform="rotate(-180 170.886 35.406)" fill="#145DA0"/>
<path d="M176.32,5.703C176.32,5.123 176.182,4.564 175.906,4.027C175.631,3.491 175.238,3.017 174.728,2.607C174.219,2.196 173.631,1.879 172.966,1.657C172.3,1.435 171.607,1.324 170.886,1.324C170.165,1.324 169.472,1.435 168.806,1.657C168.14,1.879 167.553,2.196 167.043,2.607C166.534,3.017 166.141,3.491 165.865,4.027C165.589,4.564 165.452,5.123 165.452,5.703C165.452,6.284 165.589,6.843 165.865,7.38C166.141,7.916 166.534,8.39 167.043,8.8C167.553,9.211 168.14,9.528 168.806,9.75C169.472,9.972 170.165,10.083 170.886,10.083C171.607,10.083 172.3,9.972 172.966,9.75C173.631,9.528 174.219,9.211 174.728,8.8C175.238,8.39 175.631,7.916 175.906,7.38C176.182,6.843 176.32,6.284 176.32,5.703Z" transform="rotate(-180 170.886 5.703)" fill="#145DA0"/>
<path d="M209.222,94.808C209.222,94.227 209.085,93.668 208.809,93.132C208.533,92.595 208.14,92.122 207.631,91.711C207.121,91.3 206.533,90.984 205.868,90.762C205.202,90.539 204.509,90.428 203.788,90.428C203.067,90.428 202.374,90.539 201.709,90.762C201.043,90.984 200.455,91.3 199.946,91.711C199.436,92.122 199.043,92.595 198.768,93.132C198.492,93.668 198.354,94.227 198.354,94.808C198.354,95.389 198.492,95.947 198.768,96.484C199.043,97.021 199.436,97.494 199.946,97.905C200.455,98.316 201.043,98.632 201.709,98.854C202.374,99.077 203.067,99.188 203.788,99.188C204.509,99.188 205.202,99.077 205.868,98.854C206.533,98.632 207.121,98.316 207.631,97.905C208.14,97.494 208.533,97.021 208.809,96.484C209.085,95.947 209.222,95.389 209.222,94.808Z" transform="rotate(-180 203.788 94.808)" fill="#145DA0"/>
<path d="M209.222,65.107C209.222,64.526 209.085,63.967 208.809,63.431C208.533,62.894 208.14,62.42 207.631,62.01C207.121,61.599 206.533,61.283 205.868,61.06C205.202,60.838 204.509,60.727 203.788,60.727C203.067,60.727 202.374,60.838 201.709,61.06C201.043,61.283 200.455,61.599 199.946,62.01C199.436,62.42 199.043,62.894 198.768,63.431C198.492,63.967 198.354,64.526 198.354,65.107C198.354,65.688 198.492,66.246 198.768,66.783C199.043,67.32 199.436,67.793 199.946,68.204C200.455,68.614 201.043,68.931 201.709,69.153C202.374,69.375 203.067,69.487 203.788,69.487C204.509,69.487 205.202,69.375 205.868,69.153C206.533,68.931 207.121,68.614 207.631,68.204C208.14,67.793 208.533,67.32 208.809,66.783C209.085,66.246 209.222,65.688 209.222,65.107Z" transform="rotate(-180 203.788 65.107)" fill="#145DA0"/>
<path d="M209.222,35.406C209.222,34.825 209.085,34.266 208.809,33.729C208.533,33.193 208.14,32.719 207.631,32.309C207.121,31.898 206.533,31.581 205.868,31.359C205.202,31.137 204.509,31.026 203.788,31.026C203.067,31.026 202.374,31.137 201.709,31.359C201.043,31.581 200.455,31.898 199.946,32.309C199.436,32.719 199.043,33.193 198.768,33.729C198.492,34.266 198.354,34.825 198.354,35.406C198.354,35.986 198.492,36.545 198.768,37.082C199.043,37.618 199.436,38.092 199.946,38.502C200.455,38.913 201.043,39.23 201.709,39.452C202.374,39.674 203.067,39.785 203.788,39.785C204.509,39.785 205.202,39.674 205.868,39.452C206.533,39.23 207.121,38.913 207.631,38.502C208.14,38.092 208.533,37.618 208.809,37.082C209.085,36.545 209.222,35.986 209.222,35.406Z" transform="rotate(-180 203.788 35.406)" fill="#145DA0"/>
<path d="M209.222,5.703C209.222,5.123 209.085,4.564 208.809,4.027C208.533,3.491 208.14,3.017 207.631,2.607C207.121,2.196 206.533,1.879 205.868,1.657C205.202,1.435 204.509,1.324 203.788,1.324C203.067,1.324 202.374,1.435 201.709,1.657C201.043,1.879 200.455,2.196 199.946,2.607C199.436,3.017 199.043,3.491 198.768,4.027C198.492,4.564 198.354,5.123 198.354,5.703C198.354,6.284 198.492,6.843 198.768,7.38C199.043,7.916 199.436,8.39 199.946,8.8C200.455,9.211 201.043,9.528 201.709,9.75C202.374,9.972 203.067,10.083 203.788,10.083C204.509,10.083 205.202,9.972 205.868,9.75C206.533,9.528 207.121,9.211 207.631,8.8C208.14,8.39 208.533,7.916 208.809,7.38C209.085,6.843 209.222,6.284 209.222,5.703Z" transform="rotate(-180 203.788 5.703)" fill="#145DA0"/>
<path d="M77.617,95.202C77.617,94.622 77.479,94.063 77.203,93.526C76.928,92.99 76.535,92.516 76.025,92.106C75.516,91.695 74.928,91.378 74.262,91.156C73.597,90.934 72.904,90.823 72.183,90.823C71.462,90.823 70.769,90.934 70.103,91.156C69.438,91.378 68.85,91.695 68.34,92.106C67.831,92.516 67.438,92.99 67.162,93.526C66.886,94.063 66.748,94.622 66.748,95.202C66.748,95.783 66.886,96.342 67.162,96.879C67.438,97.415 67.831,97.889 68.34,98.299C68.85,98.71 69.438,99.027 70.103,99.249C70.769,99.471 71.462,99.582 72.183,99.582C72.904,99.582 73.597,99.471 74.262,99.249C74.928,99.027 75.516,98.71 76.025,98.299C76.535,97.889 76.928,97.415 77.203,96.879C77.479,96.342 77.617,95.783 77.617,95.202Z" transform="rotate(-180 72.183 95.202)" fill="#145DA0"/>
<path d="M77.617,65.501C77.617,64.92 77.479,64.362 77.203,63.825C76.928,63.289 76.535,62.815 76.025,62.404C75.516,61.994 74.928,61.677 74.262,61.455C73.597,61.233 72.904,61.122 72.183,61.122C71.462,61.122 70.769,61.233 70.103,61.455C69.438,61.677 68.85,61.994 68.34,62.404C67.831,62.815 67.438,63.289 67.162,63.825C66.886,64.362 66.748,64.92 66.748,65.501C66.748,66.082 66.886,66.641 67.162,67.177C67.438,67.714 67.831,68.188 68.34,68.598C68.85,69.009 69.438,69.325 70.103,69.548C70.769,69.77 71.462,69.881 72.183,69.881C72.904,69.881 73.597,69.77 74.262,69.548C74.928,69.325 75.516,69.009 76.025,68.598C76.535,68.188 76.928,67.714 77.203,67.177C77.479,66.641 77.617,66.082 77.617,65.501Z" transform="rotate(-180 72.183 65.501)" fill="#145DA0"/>
<path d="M77.617,35.799C77.617,35.218 77.479,34.66 77.203,34.123C76.928,33.587 76.535,33.113 76.025,32.702C75.516,32.291 74.928,31.975 74.262,31.753C73.597,31.53 72.904,31.419 72.183,31.419C71.462,31.419 70.769,31.53 70.103,31.753C69.437,31.975 68.85,32.291 68.34,32.702C67.831,33.113 67.438,33.587 67.162,34.123C66.886,34.66 66.748,35.218 66.748,35.799C66.748,36.38 66.886,36.939 67.162,37.475C67.438,38.012 67.831,38.485 68.34,38.896C68.85,39.307 69.437,39.623 70.103,39.845C70.769,40.068 71.462,40.179 72.183,40.179C72.904,40.179 73.597,40.068 74.262,39.845C74.928,39.623 75.516,39.307 76.025,38.896C76.535,38.485 76.928,38.012 77.203,37.475C77.479,36.939 77.617,36.38 77.617,35.799Z" transform="rotate(-180 72.183 35.799)" fill="#145DA0"/>
<path d="M77.617,6.099C77.617,5.518 77.479,4.959 77.203,4.423C76.928,3.886 76.535,3.413 76.025,3.002C75.516,2.591 74.928,2.275 74.262,2.053C73.597,1.83 72.904,1.719 72.183,1.719C71.462,1.719 70.769,1.83 70.103,2.053C69.437,2.275 68.85,2.591 68.34,3.002C67.831,3.413 67.438,3.886 67.162,4.423C66.886,4.959 66.749,5.518 66.749,6.099C66.749,6.68 66.886,7.238 67.162,7.775C67.438,8.312 67.831,8.785 68.34,9.196C68.85,9.607 69.437,9.923 70.103,10.145C70.769,10.368 71.462,10.479 72.183,10.479C72.904,10.479 73.597,10.368 74.262,10.145C74.928,9.923 75.516,9.607 76.025,9.196C76.535,8.785 76.928,8.312 77.203,7.775C77.479,7.238 77.617,6.68 77.617,6.099Z" transform="rotate(-180 72.183 6.099)" fill="#145DA0"/>
<path d="M44.715,95.202C44.715,94.622 44.577,94.063 44.301,93.526C44.025,92.99 43.633,92.516 43.123,92.106C42.614,91.695 42.026,91.378 41.36,91.156C40.694,90.934 40.001,90.823 39.28,90.823C38.56,90.823 37.867,90.934 37.201,91.156C36.535,91.378 35.947,91.695 35.438,92.106C34.928,92.516 34.536,92.99 34.26,93.526C33.984,94.063 33.846,94.622 33.846,95.202C33.846,95.783 33.984,96.342 34.26,96.879C34.536,97.415 34.928,97.889 35.438,98.299C35.947,98.71 36.535,99.027 37.201,99.249C37.867,99.471 38.56,99.582 39.28,99.582C40.001,99.582 40.694,99.471 41.36,99.249C42.026,99.027 42.614,98.71 43.123,98.299C43.633,97.889 44.025,97.415 44.301,96.879C44.577,96.342 44.715,95.783 44.715,95.202Z" transform="rotate(-180 39.28 95.202)" fill="#145DA0"/>
<path d="M44.715,65.501C44.715,64.92 44.577,64.362 44.301,63.825C44.025,63.289 43.633,62.815 43.123,62.404C42.614,61.994 42.026,61.677 41.36,61.455C40.694,61.233 40.001,61.122 39.28,61.122C38.56,61.122 37.867,61.233 37.201,61.455C36.535,61.677 35.947,61.994 35.438,62.404C34.928,62.815 34.536,63.289 34.26,63.825C33.984,64.362 33.846,64.92 33.846,65.501C33.846,66.082 33.984,66.641 34.26,67.177C34.536,67.714 34.928,68.188 35.438,68.598C35.947,69.009 36.535,69.325 37.201,69.548C37.867,69.77 38.56,69.881 39.28,69.881C40.001,69.881 40.694,69.77 41.36,69.548C42.026,69.325 42.614,69.009 43.123,68.598C43.633,68.188 44.025,67.714 44.301,67.177C44.577,66.641 44.715,66.082 44.715,65.501Z" transform="rotate(-180 39.28 65.501)" fill="#145DA0"/>
<path d="M44.715,35.799C44.715,35.218 44.577,34.66 44.301,34.123C44.025,33.587 43.633,33.113 43.123,32.702C42.614,32.291 42.026,31.975 41.36,31.753C40.694,31.53 40.001,31.419 39.28,31.419C38.56,31.419 37.867,31.53 37.201,31.753C36.535,31.975 35.947,32.291 35.438,32.702C34.928,33.113 34.536,33.587 34.26,34.123C33.984,34.66 33.846,35.218 33.846,35.799C33.846,36.38 33.984,36.939 34.26,37.475C34.536,38.012 34.928,38.485 35.438,38.896C35.947,39.307 36.535,39.623 37.201,39.845C37.867,40.068 38.56,40.179 39.28,40.179C40.001,40.179 40.694,40.068 41.36,39.845C42.026,39.623 42.614,39.307 43.123,38.896C43.633,38.485 44.025,38.012 44.301,37.475C44.577,36.939 44.715,36.38 44.715,35.799Z" transform="rotate(-180 39.28 35.799)" fill="#145DA0"/>
<path d="M44.715,6.099C44.715,5.518 44.577,4.959 44.301,4.423C44.025,3.886 43.633,3.413 43.123,3.002C42.614,2.591 42.026,2.275 41.36,2.053C40.694,1.83 40.001,1.719 39.28,1.719C38.56,1.719 37.867,1.83 37.201,2.053C36.535,2.275 35.947,2.591 35.438,3.002C34.928,3.413 34.536,3.886 34.26,4.423C33.984,4.959 33.846,5.518 33.846,6.099C33.846,6.68 33.984,7.238 34.26,7.775C34.536,8.312 34.928,8.785 35.438,9.196C35.947,9.607 36.535,9.923 37.201,10.145C37.867,10.368 38.56,10.479 39.28,10.479C40.001,10.479 40.694,10.368 41.36,10.145C42.026,9.923 42.614,9.607 43.123,9.196C43.633,8.785 44.025,8.312 44.301,7.775C44.577,7.238 44.715,6.68 44.715,6.099Z" transform="rotate(-180 39.28 6.099)" fill="#145DA0"/>
<path d="M11.813,94.808C11.813,94.227 11.675,93.668 11.4,93.132C11.124,92.595 10.731,92.122 10.222,91.711C9.712,91.3 9.124,90.984 8.459,90.762C7.793,90.539 7.1,90.428 6.379,90.428C5.658,90.428 4.965,90.539 4.299,90.762C3.634,90.984 3.046,91.3 2.537,91.711C2.027,92.122 1.634,92.595 1.359,93.132C1.083,93.668 0.945,94.227 0.945,94.808C0.945,95.389 1.083,95.947 1.359,96.484C1.634,97.02 2.027,97.494 2.537,97.905C3.046,98.316 3.634,98.632 4.299,98.854C4.965,99.077 5.658,99.188 6.379,99.188C7.1,99.188 7.793,99.077 8.459,98.854C9.124,98.632 9.712,98.316 10.222,97.905C10.731,97.494 11.124,97.02 11.4,96.484C11.675,95.947 11.813,95.389 11.813,94.808Z" transform="rotate(-180 6.379 94.808)" fill="#145DA0"/>
<path d="M11.813,65.501C11.813,64.92 11.675,64.362 11.4,63.825C11.124,63.289 10.731,62.815 10.222,62.404C9.712,61.994 9.124,61.677 8.459,61.455C7.793,61.233 7.1,61.122 6.379,61.122C5.658,61.122 4.965,61.233 4.299,61.455C3.634,61.677 3.046,61.994 2.537,62.404C2.027,62.815 1.634,63.289 1.359,63.825C1.083,64.362 0.945,64.92 0.945,65.501C0.945,66.082 1.083,66.641 1.359,67.177C1.634,67.714 2.027,68.188 2.537,68.598C3.046,69.009 3.634,69.325 4.299,69.548C4.965,69.77 5.658,69.881 6.379,69.881C7.1,69.881 7.793,69.77 8.459,69.548C9.124,69.325 9.712,69.009 10.222,68.598C10.731,68.188 11.124,67.714 11.4,67.177C11.675,66.641 11.813,66.082 11.813,65.501Z" transform="rotate(-180 6.379 65.501)" fill="#145DA0"/>
<path d="M11.813,35.799C11.813,35.218 11.675,34.66 11.4,34.123C11.124,33.587 10.731,33.113 10.222,32.702C9.712,32.291 9.124,31.975 8.459,31.753C7.793,31.53 7.1,31.419 6.379,31.419C5.658,31.419 4.965,31.53 4.299,31.753C3.634,31.975 3.046,32.291 2.537,32.702C2.027,33.113 1.634,33.587 1.359,34.123C1.083,34.66 0.945,35.218 0.945,35.799C0.945,36.38 1.083,36.939 1.359,37.475C1.634,38.012 2.027,38.485 2.537,38.896C3.046,39.307 3.634,39.623 4.299,39.845C4.965,40.068 5.658,40.179 6.379,40.179C7.1,40.179 7.793,40.068 8.459,39.845C9.124,39.623 9.712,39.307 10.222,38.896C10.731,38.485 11.124,38.012 11.4,37.475C11.675,36.939 11.813,36.38 11.813,35.799Z" transform="rotate(-180 6.379 35.799)" fill="#145DA0"/>
<path d="M11.813,6.099C11.813,5.518 11.675,4.959 11.4,4.423C11.124,3.886 10.731,3.413 10.222,3.002C9.712,2.591 9.124,2.275 8.459,2.053C7.793,1.83 7.1,1.719 6.379,1.719C5.658,1.719 4.965,1.83 4.299,2.053C3.634,2.275 3.046,2.591 2.537,3.002C2.027,3.413 1.634,3.886 1.359,4.423C1.083,4.959 0.945,5.518 0.945,6.099C0.945,6.68 1.083,7.238 1.359,7.775C1.634,8.311 2.027,8.785 2.537,9.196C3.046,9.607 3.634,9.923 4.299,10.145C4.965,10.368 5.658,10.479 6.379,10.479C7.1,10.479 7.793,10.368 8.459,10.145C9.124,9.923 9.712,9.607 10.222,9.196C10.731,8.785 11.124,8.311 11.4,7.775C11.675,7.238 11.813,6.68 11.813,6.099Z" transform="rotate(-180 6.379 6.099)" fill="#145DA0"/>
</svg>
