<svg width="454" height="130" viewBox="0 0 454 130" fill="none" xmlns="http://www.w3.org/2000/svg" xmlns:xlink="http://www.w3.org/1999/xlink">
<path d="M452.312,0L0,0L0,129.085L452.312,129.085L452.312,0Z" fill="#0453F1"/>
<path d="M80.581,60.58L84.373,60.58Q84.295,62.716 83.513,64.182Q82.731,65.648 81.291,66.404Q79.851,67.158 77.819,67.158Q76.243,67.158 75.019,66.632Q73.793,66.104 72.935,65.074Q72.075,64.046 71.637,62.528Q71.201,61.01 71.201,59.03L71.201,55.812Q71.201,53.832 71.665,52.308Q72.127,50.784 72.993,49.748Q73.859,48.712 75.091,48.184Q76.321,47.656 77.871,47.656Q79.943,47.656 81.337,48.438Q82.731,49.22 83.493,50.712Q84.255,52.204 84.411,54.352L80.607,54.352Q80.569,52.998 80.301,52.222Q80.035,51.448 79.461,51.128Q78.887,50.81 77.871,50.81Q77.115,50.81 76.569,51.076Q76.021,51.344 75.669,51.93Q75.319,52.516 75.155,53.466Q74.993,54.418 74.993,55.786L74.993,59.03Q74.993,60.372 75.135,61.316Q75.279,62.26 75.591,62.86Q75.905,63.458 76.445,63.732Q76.985,64.006 77.819,64.006Q78.783,64.006 79.377,63.72Q79.969,63.432 80.255,62.69Q80.543,61.948 80.581,60.58ZM100.071,55.942L100.071,59.108Q100.071,61.114 99.581,62.618Q99.093,64.124 98.201,65.132Q97.309,66.142 96.051,66.65Q94.795,67.158 93.271,67.158Q91.745,67.158 90.489,66.65Q89.231,66.142 88.327,65.132Q87.421,64.124 86.925,62.618Q86.431,61.114 86.431,59.108L86.431,55.942Q86.431,53.884 86.913,52.34Q87.395,50.796 88.307,49.76Q89.219,48.724 90.469,48.198Q91.719,47.67 93.245,47.67Q94.769,47.67 96.019,48.198Q97.269,48.724 98.181,49.76Q99.093,50.796 99.581,52.34Q100.071,53.884 100.071,55.942M96.279,59.108L96.279,55.916Q96.279,54.562 96.085,53.604Q95.889,52.646 95.497,52.034Q95.107,51.422 94.547,51.134Q93.987,50.848 93.245,50.848Q92.501,50.848 91.935,51.134Q91.369,51.422 90.983,52.034Q90.599,52.646 90.411,53.604Q90.221,54.562 90.221,55.916L90.221,59.108Q90.221,60.41 90.417,61.336Q90.613,62.26 91.003,62.846Q91.395,63.432 91.961,63.712Q92.527,63.994 93.271,63.994Q93.999,63.994 94.567,63.712Q95.133,63.432 95.511,62.846Q95.889,62.26 96.085,61.336Q96.279,60.41 96.279,59.108ZM104.201,47.93L107.549,47.93L111.417,60.906L115.273,47.93L118.231,47.93L112.837,66.898L109.985,66.898L104.201,47.93M102.845,47.93L106.037,47.93L106.533,60.436L106.533,66.898L102.845,66.898L102.845,47.93M116.771,47.93L119.977,47.93L119.977,66.898L116.303,66.898L116.303,60.436L116.771,47.93ZM129.539,60.216L125.657,60.216L125.657,57.05L129.539,57.05Q130.359,57.05 130.867,56.684Q131.375,56.32 131.609,55.676Q131.845,55.03 131.845,54.222Q131.845,53.388 131.603,52.686Q131.363,51.982 130.861,51.538Q130.359,51.096 129.539,51.096L126.895,51.096L126.895,66.898L123.077,66.898L123.077,47.93L129.539,47.93Q131.453,47.93 132.835,48.738Q134.215,49.546 134.951,50.966Q135.687,52.386 135.687,54.196Q135.687,56.034 134.951,57.382Q134.215,58.73 132.835,59.472Q131.453,60.216 129.539,60.216ZM138.253,47.93L144.337,47.93Q146.239,47.93 147.581,48.582Q148.923,49.232 149.639,50.51Q150.357,51.786 150.357,53.662Q150.357,55.2 149.939,56.288Q149.523,57.376 148.755,58.098Q147.985,58.822 146.917,59.252L145.757,59.942L140.821,59.942L140.807,56.776L144.233,56.776Q145.015,56.776 145.529,56.43Q146.045,56.086 146.299,55.454Q146.553,54.822 146.553,53.974Q146.553,53.076 146.325,52.432Q146.097,51.786 145.607,51.442Q145.119,51.096 144.337,51.096L142.071,51.096L142.071,66.898L138.253,66.898L138.253,47.93M146.865,66.898L143.387,58.444L147.387,58.43L150.943,66.716L150.943,66.898L146.865,66.898ZM159.867,51.318L155.789,66.898L151.763,66.898L157.691,47.93L160.205,47.93L159.867,51.318M163.085,66.898L158.981,51.318L158.603,47.93L161.157,47.93L167.135,66.898L163.085,66.898M163.227,59.824L163.227,62.99L154.669,62.99L154.669,59.824L163.227,59.824ZM188.019,47.93L188.019,66.898L184.227,66.898L184.227,47.93L188.019,47.93M192.735,47.93L192.735,51.096L179.603,51.096L179.603,47.93L192.735,47.93ZM203.457,47.93L207.261,47.93L207.261,60.958Q207.261,63.146 206.459,64.52Q205.659,65.896 204.251,66.526Q202.845,67.158 201.033,67.158Q199.209,67.158 197.789,66.526Q196.369,65.896 195.581,64.52Q194.793,63.146 194.793,60.958L194.793,47.93L198.597,47.93L198.597,60.958Q198.597,62.196 198.877,62.86Q199.157,63.524 199.699,63.766Q200.239,64.006 201.033,64.006Q201.841,64.006 202.369,63.766Q202.897,63.524 203.177,62.86Q203.457,62.196 203.457,60.958L203.457,47.93ZM222.711,58.626L218.829,58.626L218.815,55.864L222.125,55.864Q222.907,55.864 223.409,55.596Q223.909,55.33 224.151,54.808Q224.391,54.288 224.391,53.518Q224.391,52.646 224.171,52.118Q223.949,51.59 223.453,51.344Q222.959,51.096 222.163,51.096L220.131,51.096L220.131,66.898L216.315,66.898L216.315,47.93L222.163,47.93Q223.583,47.93 224.697,48.242Q225.811,48.556 226.599,49.2Q227.389,49.846 227.799,50.816Q228.209,51.786 228.209,53.116Q228.209,54.288 227.739,55.278Q227.271,56.268 226.267,56.9Q225.265,57.532 223.675,57.61L222.711,58.626M222.581,66.898L217.747,66.898L219.271,63.746L222.581,63.746Q223.337,63.746 223.799,63.42Q224.261,63.094 224.477,62.54Q224.691,61.986 224.691,61.27Q224.691,60.45 224.503,59.864Q224.313,59.278 223.883,58.952Q223.453,58.626 222.725,58.626L219.441,58.626L219.467,55.864L223.453,55.864L224.353,56.958Q225.877,56.906 226.789,57.538Q227.701,58.17 228.099,59.18Q228.495,60.19 228.495,61.322Q228.495,63.146 227.811,64.39Q227.127,65.634 225.811,66.266Q224.495,66.898 222.581,66.898ZM244.611,55.942L244.611,59.108Q244.611,61.114 244.121,62.618Q243.633,64.124 242.741,65.132Q241.849,66.142 240.591,66.65Q239.335,67.158 237.811,67.158Q236.285,67.158 235.029,66.65Q233.771,66.142 232.867,65.132Q231.961,64.124 231.465,62.618Q230.971,61.114 230.971,59.108L230.971,55.942Q230.971,53.884 231.453,52.34Q231.935,50.796 232.847,49.76Q233.759,48.724 235.009,48.198Q236.259,47.67 237.783,47.67Q239.309,47.67 240.559,48.198Q241.809,48.724 242.721,49.76Q243.633,50.796 244.121,52.34Q244.611,53.884 244.611,55.942M240.819,59.108L240.819,55.916Q240.819,54.562 240.623,53.604Q240.429,52.646 240.037,52.034Q239.647,51.422 239.087,51.134Q238.527,50.848 237.783,50.848Q237.041,50.848 236.475,51.134Q235.907,51.422 235.523,52.034Q235.139,52.646 234.951,53.604Q234.761,54.562 234.761,55.916L234.761,59.108Q234.761,60.41 234.957,61.336Q235.153,62.26 235.543,62.846Q235.935,63.432 236.501,63.712Q237.067,63.994 237.811,63.994Q238.539,63.994 239.107,63.712Q239.673,63.432 240.051,62.846Q240.429,62.26 240.623,61.336Q240.819,60.41 240.819,59.108ZM257.911,63.746L257.911,66.898L250.029,66.898L250.029,63.746L257.911,63.746M251.203,47.93L251.203,66.898L247.385,66.898L247.385,47.93L251.203,47.93ZM271.031,63.746L271.031,66.898L262.783,66.898L262.783,63.746L271.031,63.746M263.969,47.93L263.969,66.898L260.153,66.898L260.153,47.93L263.969,47.93M269.923,55.616L269.923,58.678L262.783,58.678L262.783,55.616L269.923,55.616M271.003,47.93L271.003,51.096L262.783,51.096L262.783,47.93L271.003,47.93ZM281.061,47.93L281.061,66.898L277.271,66.898L277.271,47.93L281.061,47.93M285.777,47.93L285.777,51.096L272.645,51.096L272.645,47.93L285.777,47.93ZM300.941,55.942L300.941,59.108Q300.941,61.114 300.453,62.618Q299.965,64.124 299.071,65.132Q298.179,66.142 296.923,66.65Q295.665,67.158 294.141,67.158Q292.617,67.158 291.359,66.65Q290.103,66.142 289.197,65.132Q288.291,64.124 287.797,62.618Q287.301,61.114 287.301,59.108L287.301,55.942Q287.301,53.884 287.783,52.34Q288.265,50.796 289.177,49.76Q290.089,48.724 291.339,48.198Q292.591,47.67 294.115,47.67Q295.639,47.67 296.889,48.198Q298.141,48.724 299.053,49.76Q299.965,50.796 300.453,52.34Q300.941,53.884 300.941,55.942M297.151,59.108L297.151,55.916Q297.151,54.562 296.955,53.604Q296.759,52.646 296.369,52.034Q295.977,51.422 295.417,51.134Q294.857,50.848 294.115,50.848Q293.373,50.848 292.805,51.134Q292.239,51.422 291.855,52.034Q291.471,52.646 291.281,53.604Q291.093,54.562 291.093,55.916L291.093,59.108Q291.093,60.41 291.287,61.336Q291.483,62.26 291.875,62.846Q292.265,63.432 292.831,63.712Q293.399,63.994 294.141,63.994Q294.871,63.994 295.437,63.712Q296.003,63.432 296.381,62.846Q296.759,62.26 296.955,61.336Q297.151,60.41 297.151,59.108Z" fill="#FFFFFF"/>
</svg>
