<svg width="210" height="102" viewBox="0 0 210 102" fill="none" xmlns="http://www.w3.org/2000/svg" xmlns:xlink="http://www.w3.org/1999/xlink">
<path d="M110.518,95.202C110.518,94.622 110.381,94.063 110.105,93.526C109.829,92.99 109.436,92.516 108.927,92.106C108.417,91.695 107.829,91.378 107.164,91.156C106.498,90.934 105.805,90.823 105.084,90.823C104.363,90.823 103.67,90.934 103.004,91.156C102.339,91.378 101.751,91.695 101.242,92.106C100.732,92.516 100.339,92.99 100.064,93.526C99.788,94.063 99.65,94.622 99.65,95.202C99.65,95.783 99.788,96.342 100.064,96.879C100.339,97.415 100.732,97.889 101.242,98.299C101.751,98.71 102.339,99.027 103.004,99.249C103.67,99.471 104.363,99.582 105.084,99.582C105.805,99.582 106.498,99.471 107.164,99.249C107.829,99.027 108.417,98.71 108.927,98.299C109.436,97.889 109.829,97.415 110.105,96.879C110.381,96.342 110.518,95.783 110.518,95.202Z" transform="rotate(-180 105.084 95.202)" fill="#145DA0"/>
<path d="M110.518,65.501C110.518,64.92 110.381,64.362 110.105,63.825C109.829,63.289 109.436,62.815 108.927,62.404C108.417,61.994 107.829,61.677 107.164,61.455C106.498,61.233 105.805,61.122 105.084,61.122C104.363,61.122 103.67,61.233 103.004,61.455C102.339,61.677 101.751,61.994 101.242,62.404C100.732,62.815 100.339,63.289 100.064,63.825C99.788,64.362 99.65,64.92 99.65,65.501C99.65,66.082 99.788,66.641 100.064,67.177C100.339,67.714 100.732,68.188 101.242,68.598C101.751,69.009 102.339,69.325 103.004,69.548C103.67,69.77 104.363,69.881 105.084,69.881C105.805,69.881 106.498,69.77 107.164,69.548C107.829,69.325 108.417,69.009 108.927,68.598C109.436,68.188 109.829,67.714 110.105,67.177C110.381,66.641 110.518,66.082 110.518,65.501Z" transform="rotate(-180 105.084 65.501)" fill="#145DA0"/>
<path d="M110.518,35.8C110.518,35.219 110.381,34.661 110.105,34.124C109.829,33.588 109.436,33.114 108.927,32.703C108.417,32.292 107.829,31.976 107.164,31.754C106.498,31.531 105.805,31.42 105.084,31.42C104.363,31.42 103.67,31.531 103.004,31.754C102.339,31.976 101.751,32.292 101.242,32.703C100.732,33.114 100.339,33.588 100.064,34.124C99.788,34.661 99.65,35.219 99.65,35.8C99.65,36.381 99.788,36.94 100.064,37.476C100.339,38.013 100.732,38.486 101.242,38.897C101.751,39.308 102.339,39.624 103.004,39.846C103.67,40.069 104.363,40.18 105.084,40.18C105.805,40.18 106.498,40.069 107.164,39.846C107.829,39.624 108.417,39.308 108.927,38.897C109.436,38.486 109.829,38.013 110.105,37.476C110.381,36.94 110.518,36.381 110.518,35.8Z" transform="rotate(-180 105.084 35.8)" fill="#145DA0"/>
<path d="M110.518,6.099C110.518,5.518 110.381,4.959 110.105,4.423C109.829,3.886 109.436,3.413 108.927,3.002C108.417,2.591 107.829,2.275 107.164,2.053C106.498,1.83 105.805,1.719 105.084,1.719C104.363,1.719 103.67,1.83 103.004,2.053C102.339,2.275 101.751,2.591 101.242,3.002C100.732,3.413 100.339,3.886 100.064,4.423C99.788,4.959 99.65,5.518 99.65,6.099C99.65,6.68 99.788,7.238 100.064,7.775C100.339,8.312 100.732,8.785 101.242,9.196C101.751,9.607 102.339,9.923 103.004,10.145C103.67,10.368 104.363,10.479 105.084,10.479C105.805,10.479 106.498,10.368 107.164,10.145C107.829,9.923 108.417,9.607 108.927,9.196C109.436,8.785 109.829,8.312 110.105,7.775C110.381,7.238 110.518,6.68 110.518,6.099Z" transform="rotate(-180 105.084 6.099)" fill="#145DA0"/>
<path d="M143.421,94.808C143.421,94.227 143.283,93.668 143.007,93.132C142.731,92.595 142.339,92.122 141.829,91.711C141.32,91.3 140.732,90.984 140.066,90.762C139.4,90.539 138.707,90.428 137.986,90.428C137.266,90.428 136.573,90.539 135.907,90.762C135.241,90.984 134.653,91.3 134.144,91.711C133.634,92.122 133.242,92.595 132.966,93.132C132.69,93.668 132.552,94.227 132.552,94.808C132.552,95.389 132.69,95.947 132.966,96.484C133.242,97.021 133.634,97.494 134.144,97.905C134.653,98.316 135.241,98.632 135.907,98.854C136.573,99.077 137.266,99.188 137.986,99.188C138.707,99.188 139.4,99.077 140.066,98.854C140.732,98.632 141.32,98.316 141.829,97.905C142.339,97.494 142.731,97.021 143.007,96.484C143.283,95.947 143.421,95.389 143.421,94.808Z" transform="rotate(-180 137.986 94.808)" fill="#145DA0"/>
<path d="M143.421,65.107C143.421,64.526 143.283,63.967 143.007,63.431C142.731,62.894 142.339,62.42 141.829,62.01C141.32,61.599 140.732,61.283 140.066,61.06C139.4,60.838 138.707,60.727 137.986,60.727C137.266,60.727 136.573,60.838 135.907,61.06C135.241,61.283 134.653,61.599 134.144,62.01C133.634,62.42 133.242,62.894 132.966,63.431C132.69,63.967 132.552,64.526 132.552,65.107C132.552,65.688 132.69,66.246 132.966,66.783C133.242,67.32 133.634,67.793 134.144,68.204C134.653,68.614 135.241,68.931 135.907,69.153C136.573,69.375 137.266,69.486 137.986,69.486C138.707,69.486 139.4,69.375 140.066,69.153C140.732,68.931 141.32,68.614 141.829,68.204C142.339,67.793 142.731,67.32 143.007,66.783C143.283,66.246 143.421,65.688 143.421,65.107Z" transform="rotate(-180 137.986 65.107)" fill="#145DA0"/>
<path d="M143.421,35.406C143.421,34.825 143.283,34.266 143.007,33.729C142.731,33.193 142.339,32.719 141.829,32.309C141.32,31.898 140.732,31.581 140.066,31.359C139.4,31.137 138.707,31.026 137.986,31.026C137.266,31.026 136.573,31.137 135.907,31.359C135.241,31.581 134.653,31.898 134.144,32.309C133.634,32.719 133.242,33.193 132.966,33.729C132.69,34.266 132.552,34.825 132.552,35.406C132.552,35.986 132.69,36.545 132.966,37.082C133.242,37.618 133.634,38.092 134.144,38.502C134.653,38.913 135.241,39.23 135.907,39.452C136.573,39.674 137.266,39.785 137.986,39.785C138.707,39.785 139.4,39.674 140.066,39.452C140.732,39.23 141.32,38.913 141.829,38.502C142.339,38.092 142.731,37.618 143.007,37.082C143.283,36.545 143.421,35.986 143.421,35.406Z" transform="rotate(-180 137.986 35.406)" fill="#145DA0"/>
<path d="M143.421,5.704C143.421,5.124 143.283,4.565 143.007,4.028C142.731,3.492 142.339,3.018 141.829,2.608C141.32,2.197 140.732,1.88 140.066,1.658C139.4,1.436 138.707,1.325 137.986,1.325C137.266,1.325 136.573,1.436 135.907,1.658C135.241,1.88 134.653,2.197 134.144,2.608C133.634,3.018 133.242,3.492 132.966,4.028C132.69,4.565 132.552,5.124 132.552,5.704C132.552,6.285 132.69,6.844 132.966,7.381C133.242,7.917 133.634,8.391 134.144,8.801C134.653,9.212 135.241,9.529 135.907,9.751C136.573,9.973 137.266,10.084 137.986,10.084C138.707,10.084 139.4,9.973 140.066,9.751C140.732,9.529 141.32,9.212 141.829,8.801C142.339,8.391 142.731,7.917 143.007,7.381C143.283,6.844 143.421,6.285 143.421,5.704Z" transform="rotate(-180 137.986 5.704)" fill="#145DA0"/>
<path d="M176.321,94.808C176.321,94.227 176.183,93.668 175.907,93.132C175.632,92.595 175.239,92.122 174.729,91.711C174.22,91.3 173.632,90.984 172.967,90.762C172.301,90.539 171.608,90.428 170.887,90.428C170.166,90.428 169.473,90.539 168.807,90.762C168.142,90.984 167.554,91.3 167.044,91.711C166.535,92.122 166.142,92.595 165.866,93.132C165.59,93.668 165.453,94.227 165.453,94.808C165.453,95.389 165.59,95.947 165.866,96.484C166.142,97.021 166.535,97.494 167.044,97.905C167.554,98.316 168.142,98.632 168.807,98.854C169.473,99.077 170.166,99.188 170.887,99.188C171.608,99.188 172.301,99.077 172.967,98.854C173.632,98.632 174.22,98.316 174.729,97.905C175.239,97.494 175.632,97.021 175.907,96.484C176.183,95.947 176.321,95.389 176.321,94.808Z" transform="rotate(-180 170.887 94.808)" fill="#145DA0"/>
<path d="M176.321,65.107C176.321,64.526 176.183,63.967 175.907,63.431C175.632,62.894 175.239,62.42 174.729,62.01C174.22,61.599 173.632,61.283 172.967,61.06C172.301,60.838 171.608,60.727 170.887,60.727C170.166,60.727 169.473,60.838 168.807,61.06C168.141,61.283 167.554,61.599 167.044,62.01C166.535,62.42 166.142,62.894 165.866,63.431C165.59,63.967 165.453,64.526 165.453,65.107C165.453,65.688 165.59,66.246 165.866,66.783C166.142,67.32 166.535,67.793 167.044,68.204C167.554,68.614 168.141,68.931 168.807,69.153C169.473,69.375 170.166,69.487 170.887,69.487C171.608,69.487 172.301,69.375 172.967,69.153C173.632,68.931 174.22,68.614 174.729,68.204C175.239,67.793 175.632,67.32 175.907,66.783C176.183,66.246 176.321,65.688 176.321,65.107Z" transform="rotate(-180 170.887 65.107)" fill="#145DA0"/>
<path d="M176.321,35.406C176.321,34.825 176.183,34.266 175.907,33.729C175.632,33.193 175.239,32.719 174.729,32.309C174.22,31.898 173.632,31.581 172.967,31.359C172.301,31.137 171.608,31.026 170.887,31.026C170.166,31.026 169.473,31.137 168.807,31.359C168.141,31.581 167.554,31.898 167.044,32.309C166.535,32.719 166.142,33.193 165.866,33.729C165.59,34.266 165.453,34.825 165.453,35.406C165.453,35.986 165.59,36.545 165.866,37.082C166.142,37.618 166.535,38.092 167.044,38.502C167.554,38.913 168.141,39.23 168.807,39.452C169.473,39.674 170.166,39.785 170.887,39.785C171.608,39.785 172.301,39.674 172.967,39.452C173.632,39.23 174.22,38.913 174.729,38.502C175.239,38.092 175.632,37.618 175.907,37.082C176.183,36.545 176.321,35.986 176.321,35.406Z" transform="rotate(-180 170.887 35.406)" fill="#145DA0"/>
<path d="M176.321,5.704C176.321,5.124 176.183,4.565 175.907,4.028C175.632,3.492 175.239,3.018 174.729,2.608C174.22,2.197 173.632,1.88 172.967,1.658C172.301,1.436 171.608,1.325 170.887,1.325C170.166,1.325 169.473,1.436 168.807,1.658C168.141,1.88 167.554,2.197 167.044,2.608C166.535,3.018 166.142,3.492 165.866,4.028C165.59,4.565 165.453,5.124 165.453,5.704C165.453,6.285 165.59,6.844 165.866,7.381C166.142,7.917 166.535,8.391 167.044,8.801C167.554,9.212 168.141,9.529 168.807,9.751C169.473,9.973 170.166,10.084 170.887,10.084C171.608,10.084 172.301,9.973 172.967,9.751C173.632,9.529 174.22,9.212 174.729,8.801C175.239,8.391 175.632,7.917 175.907,7.381C176.183,6.844 176.321,6.285 176.321,5.704Z" transform="rotate(-180 170.887 5.704)" fill="#145DA0"/>
<path d="M209.223,94.808C209.223,94.227 209.086,93.668 208.81,93.132C208.534,92.595 208.141,92.122 207.632,91.711C207.122,91.3 206.534,90.984 205.869,90.762C205.203,90.539 204.51,90.428 203.789,90.428C203.068,90.428 202.375,90.539 201.709,90.762C201.044,90.984 200.456,91.3 199.947,91.711C199.437,92.122 199.044,92.595 198.769,93.132C198.493,93.668 198.355,94.227 198.355,94.808C198.355,95.389 198.493,95.947 198.769,96.484C199.044,97.021 199.437,97.494 199.947,97.905C200.456,98.316 201.044,98.632 201.709,98.854C202.375,99.077 203.068,99.188 203.789,99.188C204.51,99.188 205.203,99.077 205.869,98.854C206.534,98.632 207.122,98.316 207.632,97.905C208.141,97.494 208.534,97.021 208.81,96.484C209.086,95.947 209.223,95.389 209.223,94.808Z" transform="rotate(-180 203.789 94.808)" fill="#145DA0"/>
<path d="M209.223,65.107C209.223,64.526 209.086,63.967 208.81,63.431C208.534,62.894 208.141,62.42 207.632,62.01C207.122,61.599 206.534,61.283 205.869,61.06C205.203,60.838 204.51,60.727 203.789,60.727C203.068,60.727 202.375,60.838 201.709,61.06C201.044,61.283 200.456,61.599 199.947,62.01C199.437,62.42 199.044,62.894 198.769,63.431C198.493,63.967 198.355,64.526 198.355,65.107C198.355,65.688 198.493,66.246 198.769,66.783C199.044,67.32 199.437,67.793 199.947,68.204C200.456,68.614 201.044,68.931 201.709,69.153C202.375,69.375 203.068,69.487 203.789,69.487C204.51,69.487 205.203,69.375 205.869,69.153C206.534,68.931 207.122,68.614 207.632,68.204C208.141,67.793 208.534,67.32 208.81,66.783C209.086,66.246 209.223,65.688 209.223,65.107Z" transform="rotate(-180 203.789 65.107)" fill="#145DA0"/>
<path d="M209.223,35.406C209.223,34.825 209.086,34.266 208.81,33.729C208.534,33.193 208.141,32.719 207.632,32.309C207.122,31.898 206.534,31.581 205.869,31.359C205.203,31.137 204.51,31.026 203.789,31.026C203.068,31.026 202.375,31.137 201.709,31.359C201.044,31.581 200.456,31.898 199.947,32.309C199.437,32.719 199.044,33.193 198.769,33.729C198.493,34.266 198.355,34.825 198.355,35.406C198.355,35.986 198.493,36.545 198.769,37.082C199.044,37.618 199.437,38.092 199.947,38.502C200.456,38.913 201.044,39.23 201.709,39.452C202.375,39.674 203.068,39.785 203.789,39.785C204.51,39.785 205.203,39.674 205.869,39.452C206.534,39.23 207.122,38.913 207.632,38.502C208.141,38.092 208.534,37.618 208.81,37.082C209.086,36.545 209.223,35.986 209.223,35.406Z" transform="rotate(-180 203.789 35.406)" fill="#145DA0"/>
<path d="M209.223,5.704C209.223,5.124 209.086,4.565 208.81,4.028C208.534,3.492 208.141,3.018 207.632,2.608C207.122,2.197 206.534,1.88 205.869,1.658C205.203,1.436 204.51,1.325 203.789,1.325C203.068,1.325 202.375,1.436 201.709,1.658C201.044,1.88 200.456,2.197 199.947,2.608C199.437,3.018 199.044,3.492 198.769,4.028C198.493,4.565 198.355,5.124 198.355,5.704C198.355,6.285 198.493,6.844 198.769,7.381C199.044,7.917 199.437,8.391 199.947,8.801C200.456,9.212 201.044,9.529 201.709,9.751C202.375,9.973 203.068,10.084 203.789,10.084C204.51,10.084 205.203,9.973 205.869,9.751C206.534,9.529 207.122,9.212 207.632,8.801C208.141,8.391 208.534,7.917 208.81,7.381C209.086,6.844 209.223,6.285 209.223,5.704Z" transform="rotate(-180 203.789 5.704)" fill="#145DA0"/>
<path d="M77.618,95.202C77.618,94.622 77.481,94.063 77.205,93.526C76.929,92.99 76.536,92.516 76.027,92.106C75.517,91.695 74.929,91.378 74.264,91.156C73.598,90.934 72.905,90.823 72.184,90.823C71.463,90.823 70.77,90.934 70.105,91.156C69.439,91.378 68.851,91.695 68.342,92.106C67.832,92.516 67.439,92.99 67.164,93.526C66.888,94.063 66.75,94.622 66.75,95.202C66.75,95.783 66.888,96.342 67.164,96.879C67.439,97.415 67.832,97.889 68.342,98.299C68.851,98.71 69.439,99.027 70.105,99.249C70.77,99.471 71.463,99.582 72.184,99.582C72.905,99.582 73.598,99.471 74.264,99.249C74.929,99.027 75.517,98.71 76.027,98.299C76.536,97.889 76.929,97.415 77.205,96.879C77.481,96.342 77.618,95.783 77.618,95.202Z" transform="rotate(-180 72.184 95.202)" fill="#145DA0"/>
<path d="M77.618,65.501C77.618,64.92 77.481,64.362 77.205,63.825C76.929,63.289 76.536,62.815 76.027,62.404C75.517,61.994 74.929,61.677 74.264,61.455C73.598,61.233 72.905,61.122 72.184,61.122C71.463,61.122 70.77,61.233 70.105,61.455C69.439,61.677 68.851,61.994 68.342,62.404C67.832,62.815 67.439,63.289 67.164,63.825C66.888,64.362 66.75,64.92 66.75,65.501C66.75,66.082 66.888,66.641 67.164,67.177C67.439,67.714 67.832,68.188 68.342,68.598C68.851,69.009 69.439,69.325 70.105,69.548C70.77,69.77 71.463,69.881 72.184,69.881C72.905,69.881 73.598,69.77 74.264,69.548C74.929,69.325 75.517,69.009 76.027,68.598C76.536,68.188 76.929,67.714 77.205,67.177C77.481,66.641 77.618,66.082 77.618,65.501Z" transform="rotate(-180 72.184 65.501)" fill="#145DA0"/>
<path d="M77.618,35.8C77.618,35.219 77.481,34.661 77.205,34.124C76.929,33.588 76.536,33.114 76.027,32.703C75.517,32.292 74.929,31.976 74.264,31.754C73.598,31.531 72.905,31.42 72.184,31.42C71.463,31.42 70.77,31.531 70.105,31.754C69.439,31.976 68.851,32.292 68.342,32.703C67.832,33.114 67.439,33.588 67.164,34.124C66.888,34.661 66.75,35.219 66.75,35.8C66.75,36.381 66.888,36.94 67.164,37.476C67.439,38.013 67.832,38.486 68.342,38.897C68.851,39.308 69.439,39.624 70.105,39.846C70.77,40.069 71.463,40.18 72.184,40.18C72.905,40.18 73.598,40.069 74.264,39.846C74.929,39.624 75.517,39.308 76.027,38.897C76.536,38.486 76.929,38.013 77.205,37.476C77.481,36.94 77.618,36.381 77.618,35.8Z" transform="rotate(-180 72.184 35.8)" fill="#145DA0"/>
<path d="M77.618,6.099C77.618,5.518 77.481,4.959 77.205,4.423C76.929,3.886 76.536,3.413 76.027,3.002C75.517,2.591 74.929,2.275 74.264,2.053C73.598,1.83 72.905,1.719 72.184,1.719C71.463,1.719 70.77,1.83 70.105,2.053C69.439,2.275 68.851,2.591 68.342,3.002C67.832,3.413 67.439,3.886 67.164,4.423C66.888,4.959 66.75,5.518 66.75,6.099C66.75,6.68 66.888,7.238 67.164,7.775C67.439,8.312 67.832,8.785 68.342,9.196C68.851,9.607 69.439,9.923 70.105,10.145C70.77,10.368 71.463,10.479 72.184,10.479C72.905,10.479 73.598,10.368 74.264,10.145C74.929,9.923 75.517,9.607 76.027,9.196C76.536,8.785 76.929,8.312 77.205,7.775C77.481,7.238 77.618,6.68 77.618,6.099Z" transform="rotate(-180 72.184 6.099)" fill="#145DA0"/>
<path d="M44.716,95.202C44.716,94.622 44.578,94.063 44.302,93.526C44.027,92.99 43.634,92.516 43.124,92.106C42.615,91.695 42.027,91.378 41.362,91.156C40.696,90.934 40.003,90.823 39.282,90.823C38.561,90.823 37.868,90.934 37.202,91.156C36.537,91.378 35.949,91.695 35.439,92.106C34.93,92.516 34.537,92.99 34.261,93.526C33.985,94.063 33.848,94.622 33.848,95.202C33.848,95.783 33.985,96.342 34.261,96.879C34.537,97.415 34.93,97.889 35.439,98.299C35.949,98.71 36.537,99.027 37.202,99.249C37.868,99.471 38.561,99.582 39.282,99.582C40.003,99.582 40.696,99.471 41.362,99.249C42.027,99.027 42.615,98.71 43.124,98.299C43.634,97.889 44.027,97.415 44.302,96.879C44.578,96.342 44.716,95.783 44.716,95.202Z" transform="rotate(-180 39.282 95.202)" fill="#145DA0"/>
<path d="M44.716,65.501C44.716,64.92 44.578,64.362 44.302,63.825C44.027,63.289 43.634,62.815 43.124,62.404C42.615,61.994 42.027,61.677 41.362,61.455C40.696,61.233 40.003,61.122 39.282,61.122C38.561,61.122 37.868,61.233 37.202,61.455C36.537,61.677 35.949,61.994 35.439,62.404C34.93,62.815 34.537,63.289 34.261,63.825C33.985,64.362 33.848,64.92 33.848,65.501C33.848,66.082 33.985,66.641 34.261,67.177C34.537,67.714 34.93,68.188 35.439,68.598C35.949,69.009 36.537,69.325 37.202,69.548C37.868,69.77 38.561,69.881 39.282,69.881C40.003,69.881 40.696,69.77 41.362,69.548C42.027,69.325 42.615,69.009 43.124,68.598C43.634,68.188 44.027,67.714 44.302,67.177C44.578,66.641 44.716,66.082 44.716,65.501Z" transform="rotate(-180 39.282 65.501)" fill="#145DA0"/>
<path d="M44.716,35.8C44.716,35.219 44.578,34.661 44.302,34.124C44.027,33.588 43.634,33.114 43.124,32.703C42.615,32.292 42.027,31.976 41.362,31.754C40.696,31.531 40.003,31.42 39.282,31.42C38.561,31.42 37.868,31.531 37.202,31.754C36.536,31.976 35.949,32.292 35.439,32.703C34.93,33.114 34.537,33.588 34.261,34.124C33.985,34.661 33.848,35.219 33.848,35.8C33.848,36.381 33.985,36.94 34.261,37.476C34.537,38.013 34.93,38.486 35.439,38.897C35.949,39.308 36.536,39.624 37.202,39.846C37.868,40.069 38.561,40.18 39.282,40.18C40.003,40.18 40.696,40.069 41.362,39.846C42.027,39.624 42.615,39.308 43.124,38.897C43.634,38.486 44.027,38.013 44.302,37.476C44.578,36.94 44.716,36.381 44.716,35.8Z" transform="rotate(-180 39.282 35.8)" fill="#145DA0"/>
<path d="M44.716,6.099C44.716,5.518 44.578,4.959 44.302,4.423C44.027,3.886 43.634,3.413 43.124,3.002C42.615,2.591 42.027,2.275 41.362,2.053C40.696,1.83 40.003,1.719 39.282,1.719C38.561,1.719 37.868,1.83 37.202,2.053C36.536,2.275 35.949,2.591 35.439,3.002C34.93,3.413 34.537,3.886 34.261,4.423C33.985,4.959 33.848,5.518 33.848,6.099C33.848,6.68 33.985,7.238 34.261,7.775C34.537,8.312 34.93,8.785 35.439,9.196C35.949,9.607 36.536,9.923 37.202,10.145C37.868,10.368 38.561,10.479 39.282,10.479C40.003,10.479 40.696,10.368 41.362,10.145C42.027,9.923 42.615,9.607 43.124,9.196C43.634,8.785 44.027,8.312 44.302,7.775C44.578,7.238 44.716,6.68 44.716,6.099Z" transform="rotate(-180 39.282 6.099)" fill="#145DA0"/>
<path d="M11.814,94.808C11.814,94.227 11.676,93.668 11.4,93.132C11.124,92.595 10.732,92.122 10.222,91.711C9.713,91.3 9.125,90.984 8.459,90.762C7.793,90.539 7.1,90.428 6.38,90.428C5.659,90.428 4.966,90.539 4.3,90.762C3.634,90.984 3.046,91.3 2.537,91.711C2.027,92.122 1.635,92.595 1.359,93.132C1.083,93.668 0.945,94.227 0.945,94.808C0.945,95.389 1.083,95.947 1.359,96.484C1.635,97.02 2.027,97.494 2.537,97.905C3.046,98.316 3.634,98.632 4.3,98.854C4.966,99.077 5.659,99.188 6.38,99.188C7.1,99.188 7.793,99.077 8.459,98.854C9.125,98.632 9.713,98.316 10.222,97.905C10.732,97.494 11.124,97.02 11.4,96.484C11.676,95.947 11.814,95.389 11.814,94.808Z" transform="rotate(-180 6.38 94.808)" fill="#145DA0"/>
<path d="M11.814,65.501C11.814,64.92 11.676,64.362 11.4,63.825C11.124,63.289 10.732,62.815 10.222,62.404C9.713,61.994 9.125,61.677 8.459,61.455C7.793,61.233 7.1,61.122 6.38,61.122C5.659,61.122 4.966,61.233 4.3,61.455C3.634,61.677 3.046,61.994 2.537,62.404C2.027,62.815 1.635,63.289 1.359,63.825C1.083,64.362 0.945,64.92 0.945,65.501C0.945,66.082 1.083,66.641 1.359,67.177C1.635,67.714 2.027,68.188 2.537,68.598C3.046,69.009 3.634,69.325 4.3,69.548C4.966,69.77 5.659,69.881 6.38,69.881C7.1,69.881 7.793,69.77 8.459,69.548C9.125,69.325 9.713,69.009 10.222,68.598C10.732,68.188 11.124,67.714 11.4,67.177C11.676,66.641 11.814,66.082 11.814,65.501Z" transform="rotate(-180 6.38 65.501)" fill="#145DA0"/>
<path d="M11.814,35.8C11.814,35.219 11.676,34.661 11.4,34.124C11.124,33.588 10.732,33.114 10.222,32.703C9.713,32.292 9.125,31.976 8.459,31.754C7.793,31.531 7.1,31.42 6.38,31.42C5.659,31.42 4.966,31.531 4.3,31.754C3.634,31.976 3.046,32.292 2.537,32.703C2.027,33.114 1.635,33.588 1.359,34.124C1.083,34.661 0.945,35.219 0.945,35.8C0.945,36.381 1.083,36.94 1.359,37.476C1.635,38.013 2.027,38.486 2.537,38.897C3.046,39.308 3.634,39.624 4.3,39.846C4.966,40.069 5.659,40.18 6.38,40.18C7.1,40.18 7.793,40.069 8.459,39.846C9.125,39.624 9.713,39.308 10.222,38.897C10.732,38.486 11.124,38.013 11.4,37.476C11.676,36.94 11.814,36.381 11.814,35.8Z" transform="rotate(-180 6.38 35.8)" fill="#145DA0"/>
<path d="M11.814,6.099C11.814,5.518 11.676,4.959 11.4,4.423C11.124,3.886 10.732,3.413 10.222,3.002C9.713,2.591 9.125,2.275 8.459,2.053C7.793,1.83 7.1,1.719 6.38,1.719C5.659,1.719 4.966,1.83 4.3,2.053C3.634,2.275 3.046,2.591 2.537,3.002C2.027,3.413 1.635,3.886 1.359,4.423C1.083,4.959 0.945,5.518 0.945,6.099C0.945,6.68 1.083,7.238 1.359,7.775C1.635,8.311 2.027,8.785 2.537,9.196C3.046,9.607 3.634,9.923 4.3,10.145C4.966,10.368 5.659,10.479 6.38,10.479C7.1,10.479 7.793,10.368 8.459,10.145C9.125,9.923 9.713,9.607 10.222,9.196C10.732,8.785 11.124,8.311 11.4,7.775C11.676,7.238 11.814,6.68 11.814,6.099Z" transform="rotate(-180 6.38 6.099)" fill="#145DA0"/>
</svg>
