<svg width="154" height="90" viewBox="0 0 154 90" fill="none" xmlns="http://www.w3.org/2000/svg" xmlns:xlink="http://www.w3.org/1999/xlink">
<path d="M55.222,84.068C55.222,83.487 55.1,82.929 54.856,82.392C54.611,81.856 54.264,81.382 53.813,80.971C53.362,80.561 52.841,80.244 52.252,80.022C51.662,79.8 51.048,79.689 50.41,79.689C49.772,79.689 49.158,79.8 48.569,80.022C47.98,80.244 47.459,80.561 47.008,80.971C46.557,81.382 46.209,81.856 45.965,82.392C45.721,82.929 45.599,83.487 45.599,84.068C45.599,84.649 45.721,85.208 45.965,85.744C46.209,86.281 46.557,86.755 47.008,87.165C47.459,87.576 47.98,87.892 48.569,88.115C49.158,88.337 49.772,88.448 50.41,88.448C51.048,88.448 51.662,88.337 52.252,88.115C52.841,87.892 53.362,87.576 53.813,87.165C54.264,86.755 54.611,86.281 54.856,85.744C55.1,85.208 55.222,84.649 55.222,84.068Z" transform="rotate(-180 50.41 84.068)" fill="#145DA0"/>
<path d="M55.222,57.77C55.222,57.19 55.1,56.631 54.856,56.094C54.611,55.558 54.264,55.084 53.813,54.674C53.362,54.263 52.841,53.946 52.252,53.724C51.662,53.502 51.048,53.391 50.41,53.391C49.772,53.391 49.158,53.502 48.569,53.724C47.98,53.946 47.459,54.263 47.008,54.674C46.557,55.084 46.209,55.558 45.965,56.094C45.721,56.631 45.599,57.19 45.599,57.77C45.599,58.351 45.721,58.91 45.965,59.447C46.209,59.983 46.557,60.457 47.008,60.867C47.459,61.278 47.98,61.595 48.569,61.817C49.158,62.039 49.772,62.15 50.41,62.15C51.048,62.15 51.662,62.039 52.252,61.817C52.841,61.595 53.362,61.278 53.813,60.867C54.264,60.457 54.611,59.983 54.856,59.447C55.1,58.91 55.222,58.351 55.222,57.77Z" transform="rotate(-180 50.41 57.77)" fill="#145DA0"/>
<path d="M55.222,31.472C55.222,30.891 55.1,30.332 54.856,29.795C54.611,29.259 54.264,28.785 53.813,28.375C53.362,27.964 52.841,27.647 52.252,27.425C51.662,27.203 51.048,27.092 50.41,27.092C49.772,27.092 49.158,27.203 48.569,27.425C47.979,27.647 47.459,27.964 47.008,28.375C46.557,28.785 46.209,29.259 45.965,29.795C45.721,30.332 45.599,30.891 45.599,31.472C45.599,32.053 45.721,32.611 45.965,33.148C46.209,33.684 46.557,34.158 47.008,34.568C47.459,34.979 47.979,35.296 48.569,35.518C49.158,35.74 49.772,35.851 50.41,35.851C51.048,35.851 51.662,35.74 52.252,35.518C52.841,35.296 53.362,34.979 53.813,34.568C54.264,34.158 54.611,33.684 54.856,33.148C55.1,32.611 55.222,32.053 55.222,31.472Z" transform="rotate(-180 50.41 31.472)" fill="#145DA0"/>
<path d="M55.222,5.174C55.222,4.593 55.1,4.034 54.856,3.498C54.611,2.961 54.264,2.487 53.813,2.077C53.362,1.666 52.841,1.35 52.252,1.127C51.662,0.905 51.048,0.794 50.41,0.794C49.772,0.794 49.158,0.905 48.569,1.127C47.979,1.35 47.459,1.666 47.008,2.077C46.557,2.487 46.209,2.961 45.965,3.498C45.721,4.034 45.599,4.593 45.599,5.174C45.599,5.755 45.721,6.313 45.965,6.85C46.209,7.387 46.557,7.86 47.008,8.271C47.459,8.681 47.979,8.998 48.569,9.22C49.158,9.442 49.772,9.553 50.41,9.553C51.048,9.553 51.662,9.442 52.252,9.22C52.841,8.998 53.362,8.681 53.813,8.271C54.264,7.86 54.611,7.387 54.856,6.85C55.1,6.313 55.222,5.755 55.222,5.174Z" transform="rotate(-180 50.41 5.174)" fill="#145DA0"/>
<path d="M88.123,83.719C88.123,83.138 88.001,82.579 87.757,82.043C87.513,81.506 87.165,81.032 86.714,80.622C86.263,80.211 85.742,79.895 85.153,79.672C84.564,79.45 83.95,79.339 83.312,79.339C82.673,79.339 82.06,79.45 81.47,79.672C80.881,79.895 80.36,80.211 79.909,80.622C79.458,81.032 79.11,81.506 78.866,82.043C78.622,82.579 78.5,83.138 78.5,83.719C78.5,84.3 78.622,84.858 78.866,85.395C79.11,85.931 79.458,86.405 79.909,86.816C80.36,87.226 80.881,87.543 81.47,87.765C82.06,87.987 82.673,88.098 83.312,88.098C83.95,88.098 84.564,87.987 85.153,87.765C85.742,87.543 86.263,87.226 86.714,86.816C87.165,86.405 87.513,85.931 87.757,85.395C88.001,84.858 88.123,84.3 88.123,83.719Z" transform="rotate(-180 83.312 83.719)" fill="#145DA0"/>
<path d="M88.123,57.421C88.123,56.84 88.001,56.281 87.757,55.745C87.513,55.208 87.165,54.734 86.714,54.324C86.263,53.913 85.742,53.597 85.153,53.375C84.564,53.152 83.95,53.041 83.312,53.041C82.673,53.041 82.06,53.152 81.47,53.375C80.881,53.597 80.36,53.913 79.909,54.324C79.458,54.734 79.11,55.208 78.866,55.745C78.622,56.281 78.5,56.84 78.5,57.421C78.5,58.002 78.622,58.56 78.866,59.097C79.11,59.634 79.458,60.107 79.909,60.518C80.36,60.928 80.881,61.245 81.47,61.467C82.06,61.69 82.673,61.801 83.312,61.801C83.95,61.801 84.564,61.69 85.153,61.467C85.742,61.245 86.263,60.928 86.714,60.518C87.165,60.107 87.513,59.634 87.757,59.097C88.001,58.56 88.123,58.002 88.123,57.421Z" transform="rotate(-180 83.312 57.421)" fill="#145DA0"/>
<path d="M88.123,31.122C88.123,30.541 88.001,29.982 87.757,29.446C87.513,28.909 87.165,28.436 86.714,28.025C86.263,27.614 85.742,27.298 85.153,27.076C84.564,26.853 83.95,26.742 83.312,26.742C82.673,26.742 82.06,26.853 81.47,27.076C80.881,27.298 80.36,27.614 79.909,28.025C79.458,28.436 79.11,28.909 78.866,29.446C78.622,29.982 78.5,30.541 78.5,31.122C78.5,31.703 78.622,32.262 78.866,32.798C79.11,33.335 79.458,33.808 79.909,34.219C80.36,34.63 80.881,34.946 81.47,35.168C82.06,35.391 82.673,35.502 83.312,35.502C83.95,35.502 84.564,35.391 85.153,35.168C85.742,34.946 86.263,34.63 86.714,34.219C87.165,33.808 87.513,33.335 87.757,32.798C88.001,32.262 88.123,31.703 88.123,31.122Z" transform="rotate(-180 83.312 31.122)" fill="#145DA0"/>
<path d="M88.123,4.825C88.123,4.244 88.001,3.686 87.757,3.149C87.513,2.613 87.165,2.139 86.714,1.728C86.263,1.317 85.742,1.001 85.153,0.779C84.564,0.556 83.95,0.445 83.312,0.445C82.673,0.445 82.06,0.556 81.47,0.779C80.881,1.001 80.36,1.317 79.909,1.728C79.458,2.139 79.11,2.613 78.866,3.149C78.622,3.686 78.5,4.244 78.5,4.825C78.5,5.406 78.622,5.965 78.866,6.501C79.11,7.038 79.458,7.511 79.909,7.922C80.36,8.333 80.881,8.649 81.47,8.871C82.06,9.094 82.673,9.205 83.312,9.205C83.95,9.205 84.564,9.094 85.153,8.871C85.742,8.649 86.263,8.333 86.714,7.922C87.165,7.511 87.513,7.038 87.757,6.501C88.001,5.965 88.123,5.406 88.123,4.825Z" transform="rotate(-180 83.312 4.825)" fill="#145DA0"/>
<path d="M121.025,83.719C121.025,83.138 120.903,82.579 120.658,82.043C120.414,81.506 120.067,81.032 119.615,80.622C119.164,80.211 118.644,79.895 118.054,79.672C117.465,79.45 116.851,79.339 116.213,79.339C115.575,79.339 114.961,79.45 114.372,79.672C113.782,79.895 113.262,80.211 112.811,80.622C112.36,81.032 112.012,81.506 111.768,82.043C111.523,82.579 111.401,83.138 111.401,83.719C111.401,84.3 111.523,84.858 111.768,85.395C112.012,85.931 112.36,86.405 112.811,86.816C113.262,87.226 113.782,87.543 114.372,87.765C114.961,87.987 115.575,88.098 116.213,88.098C116.851,88.098 117.465,87.987 118.054,87.765C118.644,87.543 119.164,87.226 119.615,86.816C120.067,86.405 120.414,85.931 120.658,85.395C120.903,84.858 121.025,84.3 121.025,83.719Z" transform="rotate(-180 116.213 83.719)" fill="#145DA0"/>
<path d="M121.025,57.421C121.025,56.84 120.903,56.281 120.658,55.745C120.414,55.208 120.067,54.734 119.615,54.324C119.164,53.913 118.644,53.597 118.054,53.375C117.465,53.152 116.851,53.041 116.213,53.041C115.575,53.041 114.961,53.152 114.372,53.375C113.782,53.597 113.262,53.913 112.811,54.324C112.36,54.734 112.012,55.208 111.768,55.745C111.523,56.281 111.401,56.84 111.401,57.421C111.401,58.002 111.523,58.56 111.768,59.097C112.012,59.634 112.36,60.107 112.811,60.518C113.262,60.928 113.782,61.245 114.372,61.467C114.961,61.689 115.575,61.801 116.213,61.801C116.851,61.801 117.465,61.689 118.054,61.467C118.644,61.245 119.164,60.928 119.615,60.518C120.067,60.107 120.414,59.634 120.658,59.097C120.903,58.56 121.025,58.002 121.025,57.421Z" transform="rotate(-180 116.213 57.421)" fill="#145DA0"/>
<path d="M121.025,31.122C121.025,30.541 120.903,29.982 120.658,29.446C120.414,28.909 120.067,28.436 119.615,28.025C119.164,27.614 118.644,27.298 118.054,27.076C117.465,26.853 116.851,26.742 116.213,26.742C115.575,26.742 114.961,26.853 114.372,27.076C113.782,27.298 113.262,27.614 112.811,28.025C112.36,28.436 112.012,28.909 111.768,29.446C111.523,29.982 111.401,30.541 111.401,31.122C111.401,31.703 111.523,32.262 111.768,32.798C112.012,33.335 112.36,33.808 112.811,34.219C113.262,34.63 113.782,34.946 114.372,35.168C114.961,35.391 115.575,35.502 116.213,35.502C116.851,35.502 117.465,35.391 118.054,35.168C118.644,34.946 119.164,34.63 119.615,34.219C120.067,33.808 120.414,33.335 120.658,32.798C120.903,32.262 121.025,31.703 121.025,31.122Z" transform="rotate(-180 116.213 31.122)" fill="#145DA0"/>
<path d="M121.025,4.825C121.025,4.244 120.903,3.686 120.658,3.149C120.414,2.613 120.067,2.139 119.615,1.728C119.164,1.317 118.644,1.001 118.054,0.779C117.465,0.556 116.851,0.445 116.213,0.445C115.575,0.445 114.961,0.556 114.372,0.779C113.782,1.001 113.262,1.317 112.811,1.728C112.36,2.139 112.012,2.613 111.768,3.149C111.523,3.686 111.401,4.244 111.401,4.825C111.401,5.406 111.523,5.965 111.768,6.501C112.012,7.038 112.36,7.511 112.811,7.922C113.262,8.333 113.782,8.649 114.372,8.871C114.961,9.094 115.575,9.205 116.213,9.205C116.851,9.205 117.465,9.094 118.054,8.871C118.644,8.649 119.164,8.333 119.615,7.922C120.067,7.511 120.414,7.038 120.658,6.501C120.903,5.965 121.025,5.406 121.025,4.825Z" transform="rotate(-180 116.213 4.825)" fill="#145DA0"/>
<path d="M153.927,83.719C153.927,83.138 153.805,82.579 153.561,82.043C153.317,81.506 152.969,81.032 152.518,80.622C152.067,80.211 151.546,79.895 150.957,79.672C150.367,79.45 149.754,79.339 149.115,79.339C148.477,79.339 147.863,79.45 147.274,79.672C146.685,79.895 146.164,80.211 145.713,80.622C145.262,81.032 144.914,81.506 144.67,82.043C144.426,82.579 144.304,83.138 144.304,83.719C144.304,84.3 144.426,84.858 144.67,85.395C144.914,85.931 145.262,86.405 145.713,86.816C146.164,87.226 146.685,87.543 147.274,87.765C147.863,87.987 148.477,88.098 149.115,88.098C149.754,88.098 150.367,87.987 150.957,87.765C151.546,87.543 152.067,87.226 152.518,86.816C152.969,86.405 153.317,85.931 153.561,85.395C153.805,84.858 153.927,84.3 153.927,83.719Z" transform="rotate(-180 149.115 83.719)" fill="#145DA0"/>
<path d="M153.927,57.421C153.927,56.84 153.805,56.281 153.561,55.745C153.317,55.208 152.969,54.734 152.518,54.324C152.067,53.913 151.546,53.597 150.957,53.375C150.367,53.152 149.754,53.041 149.115,53.041C148.477,53.041 147.863,53.152 147.274,53.375C146.684,53.597 146.164,53.913 145.713,54.324C145.262,54.734 144.914,55.208 144.67,55.745C144.426,56.281 144.304,56.84 144.304,57.421C144.304,58.002 144.426,58.56 144.67,59.097C144.914,59.634 145.262,60.107 145.713,60.518C146.164,60.928 146.684,61.245 147.274,61.467C147.863,61.689 148.477,61.801 149.115,61.801C149.754,61.801 150.367,61.689 150.957,61.467C151.546,61.245 152.067,60.928 152.518,60.518C152.969,60.107 153.317,59.634 153.561,59.097C153.805,58.56 153.927,58.002 153.927,57.421Z" transform="rotate(-180 149.115 57.421)" fill="#145DA0"/>
<path d="M153.927,31.122C153.927,30.541 153.805,29.982 153.561,29.446C153.317,28.909 152.969,28.436 152.518,28.025C152.067,27.614 151.546,27.298 150.957,27.076C150.367,26.853 149.754,26.742 149.115,26.742C148.477,26.742 147.863,26.853 147.274,27.076C146.684,27.298 146.164,27.614 145.713,28.025C145.262,28.436 144.914,28.909 144.67,29.446C144.426,29.982 144.304,30.541 144.304,31.122C144.304,31.703 144.426,32.262 144.67,32.798C144.914,33.335 145.262,33.808 145.713,34.219C146.164,34.63 146.684,34.946 147.274,35.168C147.863,35.391 148.477,35.502 149.115,35.502C149.754,35.502 150.367,35.391 150.957,35.168C151.546,34.946 152.067,34.63 152.518,34.219C152.969,33.808 153.317,33.335 153.561,32.798C153.805,32.262 153.927,31.703 153.927,31.122Z" transform="rotate(-180 149.115 31.122)" fill="#145DA0"/>
<path d="M153.927,4.825C153.927,4.244 153.805,3.686 153.561,3.149C153.317,2.613 152.969,2.139 152.518,1.728C152.067,1.317 151.546,1.001 150.957,0.779C150.367,0.556 149.754,0.445 149.115,0.445C148.477,0.445 147.863,0.556 147.274,0.779C146.684,1.001 146.164,1.317 145.713,1.728C145.262,2.139 144.914,2.613 144.67,3.149C144.426,3.686 144.304,4.244 144.304,4.825C144.304,5.406 144.426,5.965 144.67,6.501C144.914,7.038 145.262,7.511 145.713,7.922C146.164,8.333 146.684,8.649 147.274,8.871C147.863,9.094 148.477,9.205 149.115,9.205C149.754,9.205 150.367,9.094 150.957,8.871C151.546,8.649 152.067,8.333 152.518,7.922C152.969,7.511 153.317,7.038 153.561,6.501C153.805,5.965 153.927,5.406 153.927,4.825Z" transform="rotate(-180 149.115 4.825)" fill="#145DA0"/>
<path d="M22.321,84.068C22.321,83.487 22.198,82.929 21.954,82.392C21.71,81.856 21.362,81.382 20.911,80.971C20.46,80.561 19.94,80.244 19.35,80.022C18.761,79.8 18.147,79.689 17.509,79.689C16.871,79.689 16.257,79.8 15.668,80.022C15.078,80.244 14.558,80.561 14.107,80.971C13.655,81.382 13.308,81.856 13.064,82.392C12.819,82.929 12.697,83.487 12.697,84.068C12.697,84.649 12.819,85.208 13.064,85.744C13.308,86.281 13.655,86.755 14.107,87.165C14.558,87.576 15.078,87.892 15.668,88.115C16.257,88.337 16.871,88.448 17.509,88.448C18.147,88.448 18.761,88.337 19.35,88.115C19.94,87.892 20.46,87.576 20.911,87.165C21.362,86.755 21.71,86.281 21.954,85.744C22.198,85.208 22.321,84.649 22.321,84.068Z" transform="rotate(-180 17.509 84.068)" fill="#145DA0"/>
<path d="M22.321,57.77C22.321,57.19 22.199,56.631 21.954,56.094C21.71,55.558 21.362,55.084 20.911,54.674C20.46,54.263 19.94,53.946 19.35,53.724C18.761,53.502 18.147,53.391 17.509,53.391C16.871,53.391 16.257,53.502 15.668,53.724C15.078,53.946 14.558,54.263 14.107,54.674C13.655,55.084 13.308,55.558 13.064,56.094C12.819,56.631 12.697,57.19 12.697,57.77C12.697,58.351 12.819,58.91 13.064,59.447C13.308,59.983 13.655,60.457 14.107,60.867C14.558,61.278 15.078,61.595 15.668,61.817C16.257,62.039 16.871,62.15 17.509,62.15C18.147,62.15 18.761,62.039 19.35,61.817C19.94,61.595 20.46,61.278 20.911,60.867C21.362,60.457 21.71,59.983 21.954,59.447C22.199,58.91 22.321,58.351 22.321,57.77Z" transform="rotate(-180 17.509 57.77)" fill="#145DA0"/>
<path d="M22.321,31.472C22.321,30.891 22.198,30.332 21.954,29.795C21.71,29.259 21.362,28.785 20.911,28.375C20.46,27.964 19.94,27.647 19.35,27.425C18.761,27.203 18.147,27.092 17.509,27.092C16.871,27.092 16.257,27.203 15.668,27.425C15.078,27.647 14.558,27.964 14.107,28.375C13.655,28.785 13.308,29.259 13.064,29.795C12.819,30.332 12.697,30.891 12.697,31.472C12.697,32.053 12.819,32.611 13.064,33.148C13.308,33.684 13.655,34.158 14.107,34.568C14.558,34.979 15.078,35.296 15.668,35.518C16.257,35.74 16.871,35.851 17.509,35.851C18.147,35.851 18.761,35.74 19.35,35.518C19.94,35.296 20.46,34.979 20.911,34.568C21.362,34.158 21.71,33.684 21.954,33.148C22.198,32.611 22.321,32.053 22.321,31.472Z" transform="rotate(-180 17.509 31.472)" fill="#145DA0"/>
<path d="M22.321,5.174C22.321,4.593 22.198,4.034 21.954,3.498C21.71,2.961 21.362,2.487 20.911,2.077C20.46,1.666 19.94,1.35 19.35,1.127C18.761,0.905 18.147,0.794 17.509,0.794C16.871,0.794 16.257,0.905 15.668,1.127C15.078,1.35 14.558,1.666 14.107,2.077C13.655,2.487 13.308,2.961 13.064,3.498C12.819,4.034 12.697,4.593 12.697,5.174C12.697,5.755 12.819,6.313 13.064,6.85C13.308,7.387 13.655,7.86 14.107,8.271C14.558,8.681 15.078,8.998 15.668,9.22C16.257,9.442 16.871,9.553 17.509,9.553C18.147,9.553 18.761,9.442 19.35,9.22C19.94,8.998 20.46,8.681 20.911,8.271C21.362,7.86 21.71,7.387 21.954,6.85C22.198,6.313 22.321,5.755 22.321,5.174Z" transform="rotate(-180 17.509 5.174)" fill="#145DA0"/>
</svg>
