<svg width="344" height="100" viewBox="0 0 344 100" fill="none" xmlns="http://www.w3.org/2000/svg" xmlns:xlink="http://www.w3.org/1999/xlink">
<path d="M343.305,0.961L0.211,0.961L0.211,98.876L343.305,98.876L343.305,0.961Z" fill="#0453F1"/>
<path d="M76.081,39.477L80.579,39.477Q81.985,39.477 82.979,39.959Q83.971,40.441 84.501,41.385Q85.031,42.329 85.031,43.717Q85.031,44.853 84.721,45.657Q84.413,46.461 83.845,46.997Q83.277,47.531 82.487,47.849L81.629,48.359L77.979,48.359L77.969,46.019L80.503,46.019Q81.081,46.019 81.461,45.763Q81.841,45.507 82.029,45.041Q82.217,44.573 82.217,43.947Q82.217,43.283 82.049,42.805Q81.879,42.329 81.519,42.073Q81.157,41.819 80.579,41.819L78.903,41.819L78.903,53.503L76.081,53.503L76.081,39.477M82.449,53.503L79.877,47.251L82.833,47.241L85.463,53.369L85.463,53.503L82.449,53.503ZM95.029,51.173L95.029,53.503L88.931,53.503L88.931,51.173L95.029,51.173M89.809,39.477L89.809,53.503L86.985,53.503L86.985,39.477L89.809,39.477M94.211,45.161L94.211,47.425L88.931,47.425L88.931,45.161L94.211,45.161M95.011,39.477L95.011,41.819L88.931,41.819L88.931,39.477L95.011,39.477ZM106.195,46.135L106.195,51.915Q105.895,52.231 105.323,52.651Q104.749,53.071 103.829,53.383Q102.909,53.697 101.589,53.697Q100.425,53.697 99.475,53.331Q98.527,52.965 97.847,52.217Q97.169,51.471 96.811,50.349Q96.455,49.227 96.455,47.685L96.455,45.295Q96.455,43.773 96.797,42.641Q97.139,41.511 97.795,40.759Q98.449,40.007 99.359,39.641Q100.271,39.275 101.417,39.275Q102.997,39.275 104.013,39.805Q105.029,40.335 105.553,41.375Q106.079,42.415 106.185,43.929L103.459,43.929Q103.391,43.041 103.165,42.541Q102.939,42.039 102.533,41.823Q102.129,41.607 101.483,41.607Q100.925,41.607 100.511,41.803Q100.097,42.001 99.817,42.445Q99.537,42.887 99.403,43.581Q99.269,44.275 99.269,45.277L99.269,47.685Q99.269,48.677 99.423,49.381Q99.577,50.083 99.879,50.527Q100.183,50.969 100.651,51.167Q101.117,51.365 101.753,51.365Q102.265,51.365 102.573,51.259Q102.881,51.153 103.069,51.033Q103.257,50.913 103.381,50.845L103.381,48.263L101.369,48.263L101.369,46.135L106.195,46.135ZM111.147,39.477L111.147,53.503L108.343,53.503L108.343,39.477L111.147,39.477M108.411,38.669L110.309,35.691L113.333,35.691L110.665,38.669L108.411,38.669ZM119.479,49.813Q119.479,49.439 119.411,49.131Q119.345,48.821 119.127,48.561Q118.911,48.301 118.501,48.041Q118.091,47.781 117.437,47.501Q116.657,47.175 115.925,46.803Q115.193,46.433 114.605,45.941Q114.017,45.451 113.675,44.781Q113.333,44.111 113.333,43.205Q113.333,42.319 113.655,41.597Q113.979,40.875 114.575,40.359Q115.173,39.843 115.977,39.565Q116.781,39.285 117.773,39.285Q119.123,39.285 120.111,39.843Q121.097,40.403 121.641,41.375Q122.185,42.349 122.185,43.611L119.373,43.611Q119.373,43.013 119.205,42.555Q119.035,42.097 118.669,41.837Q118.303,41.577 117.725,41.577Q117.187,41.577 116.835,41.795Q116.483,42.011 116.315,42.381Q116.145,42.753 116.145,43.215Q116.145,43.561 116.315,43.837Q116.483,44.111 116.781,44.327Q117.081,44.545 117.489,44.747Q117.899,44.949 118.391,45.141Q119.345,45.517 120.077,45.965Q120.809,46.413 121.299,46.967Q121.791,47.521 122.041,48.215Q122.291,48.909 122.291,49.795Q122.291,50.671 121.989,51.389Q121.685,52.107 121.107,52.623Q120.529,53.137 119.715,53.417Q118.901,53.697 117.899,53.697Q116.927,53.697 116.059,53.421Q115.193,53.147 114.533,52.583Q113.873,52.021 113.497,51.149Q113.121,50.277 113.121,49.081L115.943,49.081Q115.943,49.717 116.069,50.165Q116.195,50.613 116.455,50.879Q116.715,51.143 117.095,51.273Q117.475,51.403 117.967,51.403Q118.525,51.403 118.857,51.191Q119.191,50.979 119.335,50.623Q119.479,50.267 119.479,49.813ZM129.777,39.477L129.777,53.503L126.973,53.503L126.973,39.477L129.777,39.477M133.265,39.477L133.265,41.819L123.553,41.819L123.553,39.477L133.265,39.477ZM134.903,39.477L139.401,39.477Q140.807,39.477 141.799,39.959Q142.791,40.441 143.321,41.385Q143.851,42.329 143.851,43.717Q143.851,44.853 143.543,45.657Q143.235,46.461 142.667,46.997Q142.099,47.531 141.309,47.849L140.451,48.359L136.799,48.359L136.791,46.019L139.323,46.019Q139.901,46.019 140.283,45.763Q140.663,45.507 140.851,45.041Q141.039,44.573 141.039,43.947Q141.039,43.283 140.869,42.805Q140.701,42.329 140.341,42.073Q139.979,41.819 139.401,41.819L137.725,41.819L137.725,53.503L134.903,53.503L134.903,39.477M141.269,53.503L138.697,47.251L141.655,47.241L144.285,53.369L144.285,53.503L141.269,53.503ZM150.883,41.983L147.869,53.503L144.891,53.503L149.275,39.477L151.135,39.477L150.883,41.983M153.263,53.503L150.229,41.983L149.949,39.477L151.837,39.477L156.259,53.503L153.263,53.503M153.369,48.273L153.369,50.613L147.041,50.613L147.041,48.273L153.369,48.273ZM162.021,39.477L162.021,53.503L159.217,53.503L159.217,39.477L162.021,39.477M165.507,39.477L165.507,41.819L155.797,41.819L155.797,39.477L165.507,39.477ZM175.179,51.173L175.179,53.503L169.081,53.503L169.081,51.173L175.179,51.173M169.957,39.477L169.957,53.503L167.135,53.503L167.135,39.477L169.957,39.477M174.361,45.161L174.361,47.425L169.081,47.425L169.081,45.161L174.361,45.161M175.161,39.477L175.161,41.819L169.081,41.819L169.081,39.477L175.161,39.477ZM186.441,41.983L183.425,53.503L180.449,53.503L184.831,39.477L186.691,39.477L186.441,41.983M188.821,53.503L185.785,41.983L185.507,39.477L187.395,39.477L191.817,53.503L188.821,53.503M188.927,48.273L188.927,50.613L182.597,50.613L182.597,48.273L188.927,48.273ZM200.919,45.161L200.919,47.493L195.169,47.493L195.169,45.161L200.919,45.161M195.969,39.477L195.969,53.503L193.145,53.503L193.145,39.477L195.969,39.477M202.961,39.477L202.961,53.503L200.169,53.503L200.169,39.477L202.961,39.477ZM215.109,45.401L215.109,47.743Q215.109,49.227 214.749,50.339Q214.387,51.451 213.727,52.199Q213.067,52.945 212.137,53.321Q211.209,53.697 210.081,53.697Q208.953,53.697 208.025,53.321Q207.095,52.945 206.425,52.199Q205.755,51.451 205.389,50.339Q205.023,49.227 205.023,47.743L205.023,45.401Q205.023,43.879 205.379,42.739Q205.737,41.597 206.411,40.831Q207.085,40.065 208.009,39.675Q208.935,39.285 210.061,39.285Q211.189,39.285 212.113,39.675Q213.039,40.065 213.713,40.831Q214.387,41.597 214.749,42.739Q215.109,43.879 215.109,45.401M212.307,47.743L212.307,45.383Q212.307,44.381 212.161,43.673Q212.017,42.965 211.729,42.511Q211.439,42.059 211.025,41.847Q210.611,41.635 210.061,41.635Q209.513,41.635 209.093,41.847Q208.675,42.059 208.391,42.511Q208.107,42.965 207.967,43.673Q207.827,44.381 207.827,45.383L207.827,47.743Q207.827,48.707 207.971,49.391Q208.115,50.075 208.405,50.507Q208.693,50.941 209.113,51.149Q209.531,51.355 210.081,51.355Q210.621,51.355 211.039,51.149Q211.459,50.941 211.737,50.507Q212.017,50.075 212.161,49.391Q212.307,48.707 212.307,47.743ZM217.171,39.477L221.671,39.477Q223.077,39.477 224.069,39.959Q225.061,40.441 225.591,41.385Q226.121,42.329 226.121,43.717Q226.121,44.853 225.813,45.657Q225.505,46.461 224.935,46.997Q224.367,47.531 223.577,47.849L222.721,48.359L219.069,48.359L219.059,46.019L221.593,46.019Q222.171,46.019 222.551,45.763Q222.931,45.507 223.119,45.041Q223.307,44.573 223.307,43.947Q223.307,43.283 223.139,42.805Q222.971,42.329 222.609,42.073Q222.249,41.819 221.671,41.819L219.993,41.819L219.993,53.503L217.171,53.503L217.171,39.477M223.539,53.503L220.967,47.251L223.925,47.241L226.555,53.369L226.555,53.503L223.539,53.503ZM233.153,41.983L230.137,53.503L227.161,53.503L231.545,39.477L233.403,39.477L233.153,41.983M235.533,53.503L232.497,41.983L232.219,39.477L234.107,39.477L238.529,53.503L235.533,53.503M235.639,48.273L235.639,50.613L229.309,50.613L229.309,48.273L235.639,48.273Z" fill="#FFFFFF"/>
</svg>
