<svg width="210" height="100" viewBox="0 0 210 100" fill="none" xmlns="http://www.w3.org/2000/svg" xmlns:xlink="http://www.w3.org/1999/xlink">
<path d="M109.512,94.22C109.512,93.639 109.374,93.08 109.098,92.544C108.823,92.008 108.43,91.534 107.92,91.123C107.411,90.712 106.823,90.396 106.158,90.174C105.492,89.951 104.799,89.84 104.078,89.84C103.357,89.84 102.664,89.951 101.998,90.174C101.333,90.396 100.745,90.712 100.235,91.123C99.726,91.534 99.333,92.008 99.057,92.544C98.781,93.08 98.644,93.639 98.644,94.22C98.644,94.801 98.781,95.36 99.057,95.896C99.333,96.433 99.726,96.906 100.235,97.317C100.745,97.728 101.333,98.044 101.998,98.266C102.664,98.489 103.357,98.6 104.078,98.6C104.799,98.6 105.492,98.489 106.158,98.266C106.823,98.044 107.411,97.728 107.92,97.317C108.43,96.906 108.823,96.433 109.098,95.896C109.374,95.36 109.512,94.801 109.512,94.22Z" transform="rotate(-180 104.078 94.22)" fill="#145DA0"/>
<path d="M109.512,64.519C109.512,63.938 109.374,63.379 109.098,62.843C108.823,62.306 108.43,61.833 107.92,61.422C107.411,61.011 106.823,60.695 106.158,60.473C105.492,60.25 104.799,60.139 104.078,60.139C103.357,60.139 102.664,60.25 101.998,60.473C101.333,60.695 100.745,61.011 100.235,61.422C99.726,61.833 99.333,62.306 99.057,62.843C98.781,63.379 98.644,63.938 98.644,64.519C98.644,65.1 98.781,65.658 99.057,66.195C99.333,66.732 99.726,67.205 100.235,67.616C100.745,68.027 101.333,68.343 101.998,68.565C102.664,68.788 103.357,68.899 104.078,68.899C104.799,68.899 105.492,68.788 106.158,68.565C106.823,68.343 107.411,68.027 107.92,67.616C108.43,67.205 108.823,66.732 109.098,66.195C109.374,65.658 109.512,65.1 109.512,64.519Z" transform="rotate(-180 104.078 64.519)" fill="#145DA0"/>
<path d="M109.512,34.817C109.512,34.236 109.374,33.677 109.098,33.141C108.823,32.604 108.43,32.13 107.92,31.72C107.411,31.309 106.823,30.993 106.157,30.77C105.492,30.548 104.799,30.437 104.078,30.437C103.357,30.437 102.664,30.548 101.998,30.77C101.332,30.993 100.745,31.309 100.235,31.72C99.726,32.13 99.333,32.604 99.057,33.141C98.781,33.677 98.644,34.236 98.644,34.817C98.644,35.398 98.781,35.956 99.057,36.493C99.333,37.029 99.726,37.503 100.235,37.914C100.745,38.324 101.332,38.641 101.998,38.863C102.664,39.085 103.357,39.196 104.078,39.196C104.799,39.196 105.492,39.085 106.157,38.863C106.823,38.641 107.411,38.324 107.92,37.914C108.43,37.503 108.823,37.029 109.098,36.493C109.374,35.956 109.512,35.398 109.512,34.817Z" transform="rotate(-180 104.078 34.817)" fill="#145DA0"/>
<path d="M109.512,5.116C109.512,4.535 109.374,3.976 109.098,3.439C108.823,2.903 108.43,2.429 107.92,2.019C107.411,1.608 106.823,1.291 106.157,1.069C105.492,0.847 104.799,0.736 104.078,0.736C103.357,0.736 102.664,0.847 101.998,1.069C101.332,1.291 100.745,1.608 100.235,2.019C99.726,2.429 99.333,2.903 99.057,3.439C98.781,3.976 98.644,4.535 98.644,5.116C98.644,5.696 98.781,6.255 99.057,6.792C99.333,7.328 99.726,7.802 100.235,8.212C100.745,8.623 101.332,8.94 101.998,9.162C102.664,9.384 103.357,9.495 104.078,9.495C104.799,9.495 105.492,9.384 106.157,9.162C106.823,8.94 107.411,8.623 107.92,8.212C108.43,7.802 108.823,7.328 109.098,6.792C109.374,6.255 109.512,5.696 109.512,5.116Z" transform="rotate(-180 104.078 5.116)" fill="#145DA0"/>
<path d="M142.414,93.826C142.414,93.245 142.277,92.686 142.001,92.149C141.725,91.613 141.332,91.139 140.823,90.729C140.313,90.318 139.725,90.001 139.06,89.779C138.394,89.557 137.701,89.446 136.98,89.446C136.259,89.446 135.566,89.557 134.9,89.779C134.235,90.001 133.647,90.318 133.138,90.729C132.628,91.139 132.235,91.613 131.96,92.149C131.684,92.686 131.546,93.245 131.546,93.826C131.546,94.406 131.684,94.965 131.96,95.502C132.235,96.038 132.628,96.512 133.138,96.922C133.647,97.333 134.235,97.65 134.9,97.872C135.566,98.094 136.259,98.205 136.98,98.205C137.701,98.205 138.394,98.094 139.06,97.872C139.725,97.65 140.313,97.333 140.823,96.922C141.332,96.512 141.725,96.038 142.001,95.502C142.277,94.965 142.414,94.406 142.414,93.826Z" transform="rotate(-180 136.98 93.826)" fill="#145DA0"/>
<path d="M142.414,64.123C142.414,63.542 142.277,62.984 142.001,62.447C141.725,61.911 141.332,61.437 140.823,61.026C140.313,60.616 139.725,60.299 139.06,60.077C138.394,59.855 137.701,59.744 136.98,59.744C136.259,59.744 135.566,59.855 134.9,60.077C134.235,60.299 133.647,60.616 133.138,61.026C132.628,61.437 132.235,61.911 131.96,62.447C131.684,62.984 131.546,63.542 131.546,64.123C131.546,64.704 131.684,65.263 131.96,65.8C132.235,66.336 132.628,66.81 133.138,67.22C133.647,67.631 134.235,67.947 134.9,68.17C135.566,68.392 136.259,68.503 136.98,68.503C137.701,68.503 138.394,68.392 139.06,68.17C139.725,67.947 140.313,67.631 140.823,67.22C141.332,66.81 141.725,66.336 142.001,65.8C142.277,65.263 142.414,64.704 142.414,64.123Z" transform="rotate(-180 136.98 64.123)" fill="#145DA0"/>
<path d="M142.414,34.422C142.414,33.841 142.277,33.283 142.001,32.746C141.725,32.21 141.332,31.736 140.823,31.325C140.313,30.915 139.725,30.598 139.06,30.376C138.394,30.154 137.701,30.042 136.98,30.042C136.259,30.042 135.566,30.154 134.9,30.376C134.235,30.598 133.647,30.915 133.138,31.325C132.628,31.736 132.235,32.21 131.96,32.746C131.684,33.283 131.546,33.841 131.546,34.422C131.546,35.003 131.684,35.562 131.96,36.098C132.235,36.635 132.628,37.109 133.138,37.519C133.647,37.93 134.235,38.246 134.9,38.468C135.566,38.691 136.259,38.802 136.98,38.802C137.701,38.802 138.394,38.691 139.06,38.468C139.725,38.246 140.313,37.93 140.823,37.519C141.332,37.109 141.725,36.635 142.001,36.098C142.277,35.562 142.414,35.003 142.414,34.422Z" transform="rotate(-180 136.98 34.422)" fill="#145DA0"/>
<path d="M142.414,4.722C142.414,4.141 142.277,3.582 142.001,3.046C141.725,2.509 141.332,2.036 140.823,1.625C140.313,1.214 139.725,0.898 139.06,0.676C138.394,0.453 137.701,0.342 136.98,0.342C136.259,0.342 135.566,0.453 134.9,0.676C134.235,0.898 133.647,1.214 133.138,1.625C132.628,2.036 132.235,2.509 131.96,3.046C131.684,3.582 131.546,4.141 131.546,4.722C131.546,5.303 131.684,5.862 131.96,6.398C132.235,6.935 132.628,7.408 133.138,7.819C133.647,8.23 134.235,8.546 134.9,8.768C135.566,8.991 136.259,9.102 136.98,9.102C137.701,9.102 138.394,8.991 139.06,8.768C139.725,8.546 140.313,8.23 140.823,7.819C141.332,7.408 141.725,6.935 142.001,6.398C142.277,5.862 142.414,5.303 142.414,4.722Z" transform="rotate(-180 136.98 4.722)" fill="#145DA0"/>
<path d="M175.315,93.825C175.315,93.245 175.177,92.686 174.901,92.149C174.625,91.613 174.233,91.139 173.723,90.729C173.214,90.318 172.626,90.001 171.96,89.779C171.294,89.557 170.601,89.446 169.881,89.446C169.16,89.446 168.467,89.557 167.801,89.779C167.135,90.001 166.547,90.318 166.038,90.729C165.528,91.139 165.136,91.613 164.86,92.149C164.584,92.686 164.446,93.245 164.446,93.825C164.446,94.406 164.584,94.965 164.86,95.502C165.136,96.038 165.528,96.512 166.038,96.922C166.547,97.333 167.135,97.65 167.801,97.872C168.467,98.094 169.16,98.205 169.881,98.205C170.601,98.205 171.294,98.094 171.96,97.872C172.626,97.65 173.214,97.333 173.723,96.922C174.233,96.512 174.625,96.038 174.901,95.502C175.177,94.965 175.315,94.406 175.315,93.825Z" transform="rotate(-180 169.881 93.826)" fill="#145DA0"/>
<path d="M175.315,64.123C175.315,63.542 175.177,62.984 174.901,62.447C174.625,61.911 174.233,61.437 173.723,61.027C173.214,60.616 172.626,60.299 171.96,60.077C171.294,59.855 170.601,59.744 169.881,59.744C169.16,59.744 168.467,59.855 167.801,60.077C167.135,60.299 166.547,60.616 166.038,61.027C165.528,61.437 165.136,61.911 164.86,62.447C164.584,62.984 164.446,63.542 164.446,64.123C164.446,64.704 164.584,65.263 164.86,65.8C165.136,66.336 165.528,66.81 166.038,67.22C166.547,67.631 167.135,67.947 167.801,68.17C168.467,68.392 169.16,68.503 169.881,68.503C170.601,68.503 171.294,68.392 171.96,68.17C172.626,67.947 173.214,67.631 173.723,67.22C174.233,66.81 174.625,66.336 174.901,65.8C175.177,65.263 175.315,64.704 175.315,64.123Z" transform="rotate(-180 169.881 64.123)" fill="#145DA0"/>
<path d="M175.315,34.422C175.315,33.841 175.177,33.283 174.901,32.746C174.625,32.21 174.233,31.736 173.723,31.325C173.214,30.915 172.626,30.598 171.96,30.376C171.294,30.154 170.601,30.042 169.881,30.042C169.16,30.042 168.467,30.154 167.801,30.376C167.135,30.598 166.547,30.915 166.038,31.325C165.528,31.736 165.136,32.21 164.86,32.746C164.584,33.283 164.446,33.841 164.446,34.422C164.446,35.003 164.584,35.562 164.86,36.098C165.136,36.635 165.528,37.109 166.038,37.519C166.547,37.93 167.135,38.246 167.801,38.468C168.467,38.691 169.16,38.802 169.881,38.802C170.601,38.802 171.294,38.691 171.96,38.468C172.626,38.246 173.214,37.93 173.723,37.519C174.233,37.109 174.625,36.635 174.901,36.098C175.177,35.562 175.315,35.003 175.315,34.422Z" transform="rotate(-180 169.881 34.422)" fill="#145DA0"/>
<path d="M175.315,4.722C175.315,4.141 175.177,3.582 174.901,3.046C174.625,2.509 174.233,2.036 173.723,1.625C173.214,1.214 172.626,0.898 171.96,0.676C171.294,0.453 170.601,0.342 169.881,0.342C169.16,0.342 168.467,0.453 167.801,0.676C167.135,0.898 166.547,1.214 166.038,1.625C165.528,2.036 165.136,2.509 164.86,3.046C164.584,3.582 164.446,4.141 164.446,4.722C164.446,5.303 164.584,5.862 164.86,6.398C165.136,6.935 165.528,7.408 166.038,7.819C166.547,8.23 167.135,8.546 167.801,8.768C168.467,8.991 169.16,9.102 169.881,9.102C170.601,9.102 171.294,8.991 171.96,8.768C172.626,8.546 173.214,8.23 173.723,7.819C174.233,7.408 174.625,6.935 174.901,6.398C175.177,5.862 175.315,5.303 175.315,4.722Z" transform="rotate(-180 169.881 4.722)" fill="#145DA0"/>
<path d="M208.217,93.825C208.217,93.245 208.079,92.686 207.803,92.149C207.527,91.613 207.135,91.139 206.625,90.729C206.115,90.318 205.528,90.001 204.862,89.779C204.196,89.557 203.503,89.446 202.782,89.446C202.062,89.446 201.368,89.557 200.703,89.779C200.037,90.001 199.449,90.318 198.94,90.729C198.43,91.139 198.038,91.613 197.762,92.149C197.486,92.686 197.348,93.245 197.348,93.825C197.348,94.406 197.486,94.965 197.762,95.502C198.038,96.038 198.43,96.512 198.94,96.922C199.449,97.333 200.037,97.65 200.703,97.872C201.368,98.094 202.062,98.205 202.782,98.205C203.503,98.205 204.196,98.094 204.862,97.872C205.528,97.65 206.115,97.333 206.625,96.922C207.135,96.512 207.527,96.038 207.803,95.502C208.079,94.965 208.217,94.406 208.217,93.825Z" transform="rotate(-180 202.782 93.826)" fill="#145DA0"/>
<path d="M208.217,64.123C208.217,63.542 208.079,62.984 207.803,62.447C207.527,61.911 207.135,61.437 206.625,61.026C206.115,60.616 205.528,60.299 204.862,60.077C204.196,59.855 203.503,59.744 202.782,59.744C202.062,59.744 201.368,59.855 200.703,60.077C200.037,60.299 199.449,60.616 198.94,61.026C198.43,61.437 198.038,61.911 197.762,62.447C197.486,62.984 197.348,63.542 197.348,64.123C197.348,64.704 197.486,65.263 197.762,65.8C198.038,66.336 198.43,66.81 198.94,67.22C199.449,67.631 200.037,67.947 200.703,68.17C201.368,68.392 202.062,68.503 202.782,68.503C203.503,68.503 204.196,68.392 204.862,68.17C205.528,67.947 206.115,67.631 206.625,67.22C207.135,66.81 207.527,66.336 207.803,65.8C208.079,65.263 208.217,64.704 208.217,64.123Z" transform="rotate(-180 202.782 64.123)" fill="#145DA0"/>
<path d="M208.217,34.422C208.217,33.841 208.079,33.283 207.803,32.746C207.527,32.21 207.135,31.736 206.625,31.325C206.115,30.915 205.528,30.598 204.862,30.376C204.196,30.154 203.503,30.042 202.782,30.042C202.062,30.042 201.368,30.154 200.703,30.376C200.037,30.598 199.449,30.915 198.94,31.325C198.43,31.736 198.038,32.21 197.762,32.746C197.486,33.283 197.348,33.841 197.348,34.422C197.348,35.003 197.486,35.562 197.762,36.098C198.038,36.635 198.43,37.109 198.94,37.519C199.449,37.93 200.037,38.246 200.703,38.468C201.368,38.691 202.062,38.802 202.782,38.802C203.503,38.802 204.196,38.691 204.862,38.468C205.528,38.246 206.115,37.93 206.625,37.519C207.135,37.109 207.527,36.635 207.803,36.098C208.079,35.562 208.217,35.003 208.217,34.422Z" transform="rotate(-180 202.782 34.422)" fill="#145DA0"/>
<path d="M208.217,4.722C208.217,4.141 208.079,3.582 207.803,3.046C207.527,2.509 207.135,2.036 206.625,1.625C206.115,1.214 205.528,0.898 204.862,0.676C204.196,0.453 203.503,0.342 202.782,0.342C202.062,0.342 201.368,0.453 200.703,0.676C200.037,0.898 199.449,1.214 198.94,1.625C198.43,2.036 198.038,2.509 197.762,3.046C197.486,3.582 197.348,4.141 197.348,4.722C197.348,5.303 197.486,5.862 197.762,6.398C198.038,6.935 198.43,7.408 198.94,7.819C199.449,8.23 200.037,8.546 200.703,8.768C201.368,8.991 202.062,9.102 202.782,9.102C203.503,9.102 204.196,8.991 204.862,8.768C205.528,8.546 206.115,8.23 206.625,7.819C207.135,7.408 207.527,6.935 207.803,6.398C208.079,5.862 208.217,5.303 208.217,4.722Z" transform="rotate(-180 202.782 4.722)" fill="#145DA0"/>
<path d="M76.612,94.22C76.612,93.639 76.474,93.081 76.198,92.544C75.922,92.008 75.53,91.534 75.02,91.123C74.511,90.712 73.923,90.396 73.257,90.174C72.591,89.951 71.898,89.84 71.177,89.84C70.457,89.84 69.763,89.951 69.098,90.174C68.432,90.396 67.844,90.712 67.335,91.123C66.825,91.534 66.433,92.008 66.157,92.544C65.881,93.081 65.743,93.639 65.743,94.22C65.743,94.801 65.881,95.36 66.157,95.896C66.433,96.433 66.825,96.906 67.335,97.317C67.844,97.728 68.432,98.044 69.098,98.266C69.763,98.489 70.457,98.6 71.177,98.6C71.898,98.6 72.591,98.489 73.257,98.266C73.923,98.044 74.511,97.728 75.02,97.317C75.53,96.906 75.922,96.433 76.198,95.896C76.474,95.36 76.612,94.801 76.612,94.22Z" transform="rotate(-180 71.177 94.22)" fill="#145DA0"/>
<path d="M76.612,64.519C76.612,63.938 76.474,63.379 76.198,62.843C75.922,62.306 75.53,61.833 75.02,61.422C74.511,61.011 73.923,60.695 73.257,60.473C72.591,60.25 71.898,60.139 71.177,60.139C70.457,60.139 69.763,60.25 69.098,60.473C68.432,60.695 67.844,61.011 67.335,61.422C66.825,61.833 66.433,62.306 66.157,62.843C65.881,63.379 65.743,63.938 65.743,64.519C65.743,65.1 65.881,65.658 66.157,66.195C66.433,66.732 66.825,67.205 67.335,67.616C67.844,68.027 68.432,68.343 69.098,68.565C69.763,68.788 70.457,68.899 71.177,68.899C71.898,68.899 72.591,68.788 73.257,68.565C73.923,68.343 74.511,68.027 75.02,67.616C75.53,67.205 75.922,66.732 76.198,66.195C76.474,65.658 76.612,65.1 76.612,64.519Z" transform="rotate(-180 71.177 64.519)" fill="#145DA0"/>
<path d="M76.612,34.817C76.612,34.236 76.474,33.677 76.198,33.141C75.922,32.604 75.53,32.13 75.02,31.72C74.511,31.309 73.923,30.993 73.257,30.77C72.591,30.548 71.898,30.437 71.177,30.437C70.457,30.437 69.763,30.548 69.098,30.77C68.432,30.993 67.844,31.309 67.335,31.72C66.825,32.13 66.433,32.604 66.157,33.141C65.881,33.677 65.743,34.236 65.743,34.817C65.743,35.398 65.881,35.956 66.157,36.493C66.433,37.029 66.825,37.503 67.335,37.914C67.844,38.324 68.432,38.641 69.098,38.863C69.763,39.085 70.457,39.196 71.177,39.196C71.898,39.196 72.591,39.085 73.257,38.863C73.923,38.641 74.511,38.324 75.02,37.914C75.53,37.503 75.922,37.029 76.198,36.493C76.474,35.956 76.612,35.398 76.612,34.817Z" transform="rotate(-180 71.177 34.817)" fill="#145DA0"/>
<path d="M76.612,5.116C76.612,4.535 76.474,3.976 76.198,3.439C75.922,2.903 75.53,2.429 75.02,2.019C74.511,1.608 73.923,1.291 73.257,1.069C72.591,0.847 71.898,0.736 71.177,0.736C70.457,0.736 69.763,0.847 69.098,1.069C68.432,1.291 67.844,1.608 67.335,2.019C66.825,2.429 66.433,2.903 66.157,3.439C65.881,3.976 65.743,4.535 65.743,5.116C65.743,5.696 65.881,6.255 66.157,6.792C66.433,7.328 66.825,7.802 67.335,8.212C67.844,8.623 68.432,8.94 69.098,9.162C69.763,9.384 70.457,9.495 71.177,9.495C71.898,9.495 72.591,9.384 73.257,9.162C73.923,8.94 74.511,8.623 75.02,8.212C75.53,7.802 75.922,7.328 76.198,6.792C76.474,6.255 76.612,5.696 76.612,5.116Z" transform="rotate(-180 71.177 5.116)" fill="#145DA0"/>
<path d="M43.71,94.22C43.71,93.639 43.572,93.081 43.296,92.544C43.02,92.008 42.628,91.534 42.118,91.123C41.609,90.712 41.021,90.396 40.355,90.174C39.689,89.951 38.996,89.84 38.276,89.84C37.555,89.84 36.862,89.951 36.196,90.174C35.53,90.396 34.942,90.712 34.433,91.123C33.923,91.534 33.531,92.008 33.255,92.544C32.979,93.081 32.841,93.639 32.841,94.22C32.841,94.801 32.979,95.36 33.255,95.896C33.531,96.433 33.923,96.906 34.433,97.317C34.942,97.728 35.53,98.044 36.196,98.266C36.862,98.489 37.555,98.6 38.276,98.6C38.996,98.6 39.689,98.489 40.355,98.266C41.021,98.044 41.609,97.728 42.118,97.317C42.628,96.906 43.02,96.433 43.296,95.896C43.572,95.36 43.71,94.801 43.71,94.22Z" transform="rotate(-180 38.276 94.22)" fill="#145DA0"/>
<path d="M43.71,64.519C43.71,63.938 43.572,63.379 43.296,62.843C43.02,62.306 42.628,61.833 42.118,61.422C41.609,61.011 41.021,60.695 40.355,60.473C39.689,60.25 38.996,60.139 38.276,60.139C37.555,60.139 36.862,60.25 36.196,60.473C35.53,60.695 34.942,61.011 34.433,61.422C33.923,61.833 33.531,62.306 33.255,62.843C32.979,63.379 32.841,63.938 32.841,64.519C32.841,65.1 32.979,65.658 33.255,66.195C33.531,66.732 33.923,67.205 34.433,67.616C34.942,68.027 35.53,68.343 36.196,68.565C36.862,68.788 37.555,68.899 38.276,68.899C38.996,68.899 39.689,68.788 40.355,68.565C41.021,68.343 41.609,68.027 42.118,67.616C42.628,67.205 43.02,66.732 43.296,66.195C43.572,65.658 43.71,65.1 43.71,64.519Z" transform="rotate(-180 38.276 64.519)" fill="#145DA0"/>
<path d="M43.71,34.817C43.71,34.236 43.572,33.677 43.296,33.141C43.02,32.604 42.628,32.13 42.118,31.72C41.609,31.309 41.021,30.993 40.355,30.77C39.689,30.548 38.996,30.437 38.276,30.437C37.555,30.437 36.862,30.548 36.196,30.77C35.53,30.993 34.942,31.309 34.433,31.72C33.923,32.13 33.531,32.604 33.255,33.141C32.979,33.677 32.841,34.236 32.841,34.817C32.841,35.398 32.979,35.956 33.255,36.493C33.531,37.029 33.923,37.503 34.433,37.914C34.942,38.324 35.53,38.641 36.196,38.863C36.862,39.085 37.555,39.196 38.276,39.196C38.996,39.196 39.689,39.085 40.355,38.863C41.021,38.641 41.609,38.324 42.118,37.914C42.628,37.503 43.02,37.029 43.296,36.493C43.572,35.956 43.71,35.398 43.71,34.817Z" transform="rotate(-180 38.276 34.817)" fill="#145DA0"/>
<path d="M43.71,5.116C43.71,4.535 43.572,3.976 43.296,3.439C43.02,2.903 42.628,2.429 42.118,2.019C41.609,1.608 41.021,1.291 40.355,1.069C39.689,0.847 38.996,0.736 38.276,0.736C37.555,0.736 36.862,0.847 36.196,1.069C35.53,1.291 34.942,1.608 34.433,2.019C33.923,2.429 33.531,2.903 33.255,3.439C32.979,3.976 32.841,4.535 32.841,5.116C32.841,5.696 32.979,6.255 33.255,6.792C33.531,7.328 33.923,7.802 34.433,8.212C34.942,8.623 35.53,8.94 36.196,9.162C36.862,9.384 37.555,9.495 38.276,9.495C38.996,9.495 39.689,9.384 40.355,9.162C41.021,8.94 41.609,8.623 42.118,8.212C42.628,7.802 43.02,7.328 43.296,6.792C43.572,6.255 43.71,5.696 43.71,5.116Z" transform="rotate(-180 38.276 5.116)" fill="#145DA0"/>
<path d="M10.807,93.826C10.807,93.245 10.67,92.686 10.394,92.149C10.118,91.613 9.725,91.139 9.216,90.729C8.706,90.318 8.118,90.001 7.453,89.779C6.787,89.557 6.094,89.446 5.373,89.446C4.652,89.446 3.959,89.557 3.293,89.779C2.628,90.001 2.04,90.318 1.531,90.729C1.021,91.139 0.628,91.613 0.353,92.149C0.077,92.686 -0.061,93.245 -0.061,93.826C-0.061,94.406 0.077,94.965 0.353,95.502C0.628,96.038 1.021,96.512 1.531,96.922C2.04,97.333 2.628,97.65 3.293,97.872C3.959,98.094 4.652,98.205 5.373,98.205C6.094,98.205 6.787,98.094 7.453,97.872C8.118,97.65 8.706,97.333 9.216,96.922C9.725,96.512 10.118,96.038 10.394,95.502C10.67,94.965 10.807,94.406 10.807,93.826Z" transform="rotate(-180 5.373 93.826)" fill="#145DA0"/>
<path d="M10.807,64.519C10.807,63.938 10.67,63.379 10.394,62.843C10.118,62.306 9.725,61.833 9.216,61.422C8.706,61.011 8.118,60.695 7.453,60.473C6.787,60.25 6.094,60.139 5.373,60.139C4.652,60.139 3.959,60.25 3.293,60.473C2.628,60.695 2.04,61.011 1.531,61.422C1.021,61.833 0.628,62.306 0.353,62.843C0.077,63.379 -0.061,63.938 -0.061,64.519C-0.061,65.1 0.077,65.658 0.353,66.195C0.628,66.731 1.021,67.205 1.531,67.616C2.04,68.027 2.628,68.343 3.293,68.565C3.959,68.788 4.652,68.899 5.373,68.899C6.094,68.899 6.787,68.788 7.453,68.565C8.118,68.343 8.706,68.027 9.216,67.616C9.725,67.205 10.118,66.731 10.394,66.195C10.67,65.658 10.807,65.1 10.807,64.519Z" transform="rotate(-180 5.373 64.519)" fill="#145DA0"/>
<path d="M10.807,34.817C10.807,34.236 10.67,33.677 10.394,33.141C10.118,32.604 9.725,32.13 9.216,31.72C8.706,31.309 8.118,30.993 7.453,30.77C6.787,30.548 6.094,30.437 5.373,30.437C4.652,30.437 3.959,30.548 3.293,30.77C2.628,30.993 2.04,31.309 1.531,31.72C1.021,32.13 0.628,32.604 0.353,33.141C0.077,33.677 -0.061,34.236 -0.061,34.817C-0.061,35.398 0.077,35.956 0.353,36.493C0.628,37.029 1.021,37.503 1.531,37.914C2.04,38.324 2.628,38.641 3.293,38.863C3.959,39.085 4.652,39.196 5.373,39.196C6.094,39.196 6.787,39.085 7.453,38.863C8.118,38.641 8.706,38.324 9.216,37.914C9.725,37.503 10.118,37.029 10.394,36.493C10.67,35.956 10.807,35.398 10.807,34.817Z" transform="rotate(-180 5.373 34.817)" fill="#145DA0"/>
<path d="M10.807,5.116C10.807,4.535 10.67,3.976 10.394,3.439C10.118,2.903 9.725,2.429 9.216,2.019C8.706,1.608 8.118,1.291 7.453,1.069C6.787,0.847 6.094,0.736 5.373,0.736C4.652,0.736 3.959,0.847 3.293,1.069C2.628,1.291 2.04,1.608 1.531,2.019C1.021,2.429 0.628,2.903 0.353,3.439C0.077,3.976 -0.061,4.535 -0.061,5.116C-0.061,5.696 0.077,6.255 0.353,6.792C0.628,7.328 1.021,7.802 1.531,8.212C2.04,8.623 2.628,8.94 3.293,9.162C3.959,9.384 4.652,9.495 5.373,9.495C6.094,9.495 6.787,9.384 7.453,9.162C8.118,8.94 8.706,8.623 9.216,8.212C9.725,7.802 10.118,7.328 10.394,6.792C10.67,6.255 10.807,5.696 10.807,5.116Z" transform="rotate(-180 5.373 5.116)" fill="#145DA0"/>
</svg>
