<svg width="210" height="102" viewBox="0 0 210 102" fill="none" xmlns="http://www.w3.org/2000/svg" xmlns:xlink="http://www.w3.org/1999/xlink">
<path d="M110.518,95.202C110.518,94.622 110.38,94.063 110.104,93.526C109.828,92.99 109.436,92.516 108.926,92.106C108.417,91.695 107.829,91.378 107.163,91.156C106.498,90.934 105.804,90.823 105.084,90.823C104.363,90.823 103.67,90.934 103.004,91.156C102.338,91.378 101.751,91.695 101.241,92.106C100.731,92.516 100.339,92.99 100.063,93.526C99.787,94.063 99.649,94.622 99.649,95.202C99.649,95.783 99.787,96.342 100.063,96.879C100.339,97.415 100.731,97.889 101.241,98.299C101.751,98.71 102.338,99.027 103.004,99.249C103.67,99.471 104.363,99.582 105.084,99.582C105.804,99.582 106.498,99.471 107.163,99.249C107.829,99.027 108.417,98.71 108.926,98.299C109.436,97.889 109.828,97.415 110.104,96.879C110.38,96.342 110.518,95.783 110.518,95.202Z" transform="rotate(-180 105.084 95.202)" fill="#145DA0"/>
<path d="M110.518,65.501C110.518,64.92 110.38,64.362 110.104,63.825C109.829,63.289 109.436,62.815 108.926,62.404C108.417,61.994 107.829,61.677 107.163,61.455C106.498,61.233 105.804,61.122 105.084,61.122C104.363,61.122 103.67,61.233 103.004,61.455C102.338,61.677 101.751,61.994 101.241,62.404C100.731,62.815 100.339,63.289 100.063,63.825C99.787,64.362 99.649,64.92 99.649,65.501C99.649,66.082 99.787,66.641 100.063,67.177C100.339,67.714 100.731,68.188 101.241,68.598C101.751,69.009 102.338,69.325 103.004,69.548C103.67,69.77 104.363,69.881 105.084,69.881C105.804,69.881 106.498,69.77 107.163,69.548C107.829,69.325 108.417,69.009 108.926,68.598C109.436,68.188 109.829,67.714 110.104,67.177C110.38,66.641 110.518,66.082 110.518,65.501Z" transform="rotate(-180 105.084 65.501)" fill="#145DA0"/>
<path d="M110.518,35.8C110.518,35.219 110.38,34.661 110.104,34.124C109.828,33.588 109.436,33.114 108.926,32.703C108.417,32.292 107.829,31.976 107.163,31.754C106.498,31.531 105.804,31.42 105.084,31.42C104.363,31.42 103.67,31.531 103.004,31.754C102.338,31.976 101.751,32.292 101.241,32.703C100.731,33.114 100.339,33.588 100.063,34.124C99.787,34.661 99.649,35.219 99.649,35.8C99.649,36.381 99.787,36.94 100.063,37.476C100.339,38.013 100.731,38.486 101.241,38.897C101.751,39.308 102.338,39.624 103.004,39.846C103.67,40.069 104.363,40.18 105.084,40.18C105.804,40.18 106.498,40.069 107.163,39.846C107.829,39.624 108.417,39.308 108.926,38.897C109.436,38.486 109.828,38.013 110.104,37.476C110.38,36.94 110.518,36.381 110.518,35.8Z" transform="rotate(-180 105.084 35.8)" fill="#145DA0"/>
<path d="M110.518,6.098C110.518,5.517 110.38,4.958 110.104,4.422C109.828,3.885 109.436,3.412 108.926,3.001C108.417,2.59 107.829,2.274 107.163,2.052C106.498,1.829 105.804,1.718 105.084,1.718C104.363,1.718 103.67,1.829 103.004,2.052C102.338,2.274 101.751,2.59 101.241,3.001C100.731,3.412 100.339,3.885 100.063,4.422C99.787,4.958 99.649,5.517 99.649,6.098C99.649,6.679 99.787,7.237 100.063,7.774C100.339,8.311 100.731,8.784 101.241,9.195C101.751,9.606 102.338,9.922 103.004,10.144C103.67,10.367 104.363,10.478 105.084,10.478C105.804,10.478 106.498,10.367 107.163,10.144C107.829,9.922 108.417,9.606 108.926,9.195C109.436,8.784 109.828,8.311 110.104,7.774C110.38,7.237 110.518,6.679 110.518,6.098Z" transform="rotate(-180 105.084 6.098)" fill="#145DA0"/>
<path d="M143.42,94.808C143.42,94.227 143.282,93.668 143.006,93.132C142.73,92.595 142.338,92.122 141.828,91.711C141.319,91.3 140.731,90.984 140.065,90.762C139.399,90.539 138.706,90.428 137.985,90.428C137.265,90.428 136.572,90.539 135.906,90.762C135.24,90.984 134.652,91.3 134.143,91.711C133.633,92.122 133.241,92.595 132.965,93.132C132.689,93.668 132.551,94.227 132.551,94.808C132.551,95.389 132.689,95.947 132.965,96.484C133.241,97.021 133.633,97.494 134.143,97.905C134.652,98.316 135.24,98.632 135.906,98.854C136.572,99.077 137.265,99.188 137.985,99.188C138.706,99.188 139.399,99.077 140.065,98.854C140.731,98.632 141.319,98.316 141.828,97.905C142.338,97.494 142.73,97.021 143.006,96.484C143.282,95.947 143.42,95.389 143.42,94.808Z" transform="rotate(-180 137.985 94.808)" fill="#145DA0"/>
<path d="M143.42,65.107C143.42,64.526 143.282,63.967 143.006,63.431C142.73,62.894 142.338,62.42 141.828,62.01C141.319,61.599 140.731,61.283 140.065,61.061C139.399,60.838 138.706,60.727 137.985,60.727C137.265,60.727 136.572,60.838 135.906,61.061C135.24,61.283 134.652,61.599 134.143,62.01C133.633,62.42 133.241,62.894 132.965,63.431C132.689,63.967 132.551,64.526 132.551,65.107C132.551,65.688 132.689,66.246 132.965,66.783C133.241,67.32 133.633,67.793 134.143,68.204C134.652,68.614 135.24,68.931 135.906,69.153C136.572,69.375 137.265,69.487 137.985,69.487C138.706,69.487 139.399,69.375 140.065,69.153C140.731,68.931 141.319,68.614 141.828,68.204C142.338,67.793 142.73,67.32 143.006,66.783C143.282,66.246 143.42,65.688 143.42,65.107Z" transform="rotate(-180 137.985 65.107)" fill="#145DA0"/>
<path d="M143.42,35.406C143.42,34.825 143.282,34.266 143.006,33.729C142.73,33.193 142.338,32.719 141.828,32.309C141.319,31.898 140.731,31.581 140.065,31.359C139.399,31.137 138.706,31.026 137.985,31.026C137.265,31.026 136.572,31.137 135.906,31.359C135.24,31.581 134.652,31.898 134.143,32.309C133.633,32.719 133.241,33.193 132.965,33.729C132.689,34.266 132.551,34.825 132.551,35.406C132.551,35.986 132.689,36.545 132.965,37.082C133.241,37.618 133.633,38.092 134.143,38.502C134.652,38.913 135.24,39.23 135.906,39.452C136.572,39.674 137.265,39.785 137.985,39.785C138.706,39.785 139.399,39.674 140.065,39.452C140.731,39.23 141.319,38.913 141.828,38.502C142.338,38.092 142.73,37.618 143.006,37.082C143.282,36.545 143.42,35.986 143.42,35.406Z" transform="rotate(-180 137.985 35.406)" fill="#145DA0"/>
<path d="M143.42,5.704C143.42,5.124 143.282,4.565 143.006,4.028C142.73,3.492 142.338,3.018 141.828,2.608C141.319,2.197 140.731,1.88 140.065,1.658C139.399,1.436 138.706,1.325 137.985,1.325C137.265,1.325 136.572,1.436 135.906,1.658C135.24,1.88 134.652,2.197 134.143,2.608C133.633,3.018 133.241,3.492 132.965,4.028C132.689,4.565 132.551,5.124 132.551,5.704C132.551,6.285 132.689,6.844 132.965,7.381C133.241,7.917 133.633,8.391 134.143,8.801C134.652,9.212 135.24,9.529 135.906,9.751C136.572,9.973 137.265,10.084 137.985,10.084C138.706,10.084 139.399,9.973 140.065,9.751C140.731,9.529 141.319,9.212 141.828,8.801C142.338,8.391 142.73,7.917 143.006,7.381C143.282,6.844 143.42,6.285 143.42,5.704Z" transform="rotate(-180 137.985 5.704)" fill="#145DA0"/>
<path d="M176.32,94.808C176.32,94.227 176.182,93.668 175.906,93.132C175.631,92.595 175.238,92.122 174.728,91.711C174.219,91.3 173.631,90.984 172.966,90.762C172.3,90.539 171.607,90.428 170.886,90.428C170.165,90.428 169.472,90.539 168.806,90.762C168.141,90.984 167.553,91.3 167.043,91.711C166.534,92.122 166.141,92.595 165.865,93.132C165.589,93.668 165.452,94.227 165.452,94.808C165.452,95.389 165.589,95.947 165.865,96.484C166.141,97.021 166.534,97.494 167.043,97.905C167.553,98.316 168.141,98.632 168.806,98.854C169.472,99.077 170.165,99.188 170.886,99.188C171.607,99.188 172.3,99.077 172.966,98.854C173.631,98.632 174.219,98.316 174.728,97.905C175.238,97.494 175.631,97.021 175.906,96.484C176.182,95.947 176.32,95.389 176.32,94.808Z" transform="rotate(-180 170.886 94.808)" fill="#145DA0"/>
<path d="M176.32,65.107C176.32,64.526 176.182,63.967 175.906,63.431C175.631,62.894 175.238,62.42 174.728,62.01C174.219,61.599 173.631,61.283 172.966,61.06C172.3,60.838 171.607,60.727 170.886,60.727C170.165,60.727 169.472,60.838 168.806,61.06C168.14,61.283 167.553,61.599 167.043,62.01C166.534,62.42 166.141,62.894 165.865,63.431C165.589,63.967 165.452,64.526 165.452,65.107C165.452,65.688 165.589,66.246 165.865,66.783C166.141,67.32 166.534,67.793 167.043,68.204C167.553,68.614 168.14,68.931 168.806,69.153C169.472,69.375 170.165,69.487 170.886,69.487C171.607,69.487 172.3,69.375 172.966,69.153C173.631,68.931 174.219,68.614 174.728,68.204C175.238,67.793 175.631,67.32 175.906,66.783C176.182,66.246 176.32,65.688 176.32,65.107Z" transform="rotate(-180 170.886 65.107)" fill="#145DA0"/>
<path d="M176.32,35.406C176.32,34.825 176.182,34.266 175.906,33.729C175.631,33.193 175.238,32.719 174.728,32.309C174.219,31.898 173.631,31.581 172.966,31.359C172.3,31.137 171.607,31.026 170.886,31.026C170.165,31.026 169.472,31.137 168.806,31.359C168.14,31.581 167.553,31.898 167.043,32.309C166.534,32.719 166.141,33.193 165.865,33.729C165.589,34.266 165.452,34.825 165.452,35.406C165.452,35.986 165.589,36.545 165.865,37.082C166.141,37.618 166.534,38.092 167.043,38.502C167.553,38.913 168.14,39.23 168.806,39.452C169.472,39.674 170.165,39.785 170.886,39.785C171.607,39.785 172.3,39.674 172.966,39.452C173.631,39.23 174.219,38.913 174.728,38.502C175.238,38.092 175.631,37.618 175.906,37.082C176.182,36.545 176.32,35.986 176.32,35.406Z" transform="rotate(-180 170.886 35.406)" fill="#145DA0"/>
<path d="M176.32,5.704C176.32,5.124 176.182,4.565 175.906,4.028C175.631,3.492 175.238,3.018 174.728,2.608C174.219,2.197 173.631,1.88 172.966,1.658C172.3,1.436 171.607,1.325 170.886,1.325C170.165,1.325 169.472,1.436 168.806,1.658C168.14,1.88 167.553,2.197 167.043,2.608C166.534,3.018 166.141,3.492 165.865,4.028C165.589,4.565 165.452,5.124 165.452,5.704C165.452,6.285 165.589,6.844 165.865,7.381C166.141,7.917 166.534,8.391 167.043,8.801C167.553,9.212 168.14,9.529 168.806,9.751C169.472,9.973 170.165,10.084 170.886,10.084C171.607,10.084 172.3,9.973 172.966,9.751C173.631,9.529 174.219,9.212 174.728,8.801C175.238,8.391 175.631,7.917 175.906,7.381C176.182,6.844 176.32,6.285 176.32,5.704Z" transform="rotate(-180 170.886 5.704)" fill="#145DA0"/>
<path d="M209.222,94.808C209.222,94.227 209.085,93.668 208.809,93.132C208.533,92.595 208.14,92.122 207.631,91.711C207.121,91.3 206.533,90.984 205.868,90.762C205.202,90.539 204.509,90.428 203.788,90.428C203.067,90.428 202.374,90.539 201.709,90.762C201.043,90.984 200.455,91.3 199.946,91.711C199.436,92.122 199.043,92.595 198.768,93.132C198.492,93.668 198.354,94.227 198.354,94.808C198.354,95.389 198.492,95.947 198.768,96.484C199.043,97.021 199.436,97.494 199.946,97.905C200.455,98.316 201.043,98.632 201.709,98.854C202.374,99.077 203.067,99.188 203.788,99.188C204.509,99.188 205.202,99.077 205.868,98.854C206.533,98.632 207.121,98.316 207.631,97.905C208.14,97.494 208.533,97.021 208.809,96.484C209.085,95.947 209.222,95.389 209.222,94.808Z" transform="rotate(-180 203.788 94.808)" fill="#145DA0"/>
<path d="M209.222,65.107C209.222,64.526 209.085,63.967 208.809,63.431C208.533,62.894 208.14,62.42 207.631,62.01C207.121,61.599 206.533,61.283 205.868,61.06C205.202,60.838 204.509,60.727 203.788,60.727C203.067,60.727 202.374,60.838 201.709,61.06C201.043,61.283 200.455,61.599 199.946,62.01C199.436,62.42 199.043,62.894 198.768,63.431C198.492,63.967 198.354,64.526 198.354,65.107C198.354,65.688 198.492,66.246 198.768,66.783C199.043,67.32 199.436,67.793 199.946,68.204C200.455,68.614 201.043,68.931 201.709,69.153C202.374,69.375 203.067,69.487 203.788,69.487C204.509,69.487 205.202,69.375 205.868,69.153C206.533,68.931 207.121,68.614 207.631,68.204C208.14,67.793 208.533,67.32 208.809,66.783C209.085,66.246 209.222,65.688 209.222,65.107Z" transform="rotate(-180 203.788 65.107)" fill="#145DA0"/>
<path d="M209.222,35.406C209.222,34.825 209.085,34.266 208.809,33.729C208.533,33.193 208.14,32.719 207.631,32.309C207.121,31.898 206.533,31.581 205.868,31.359C205.202,31.137 204.509,31.026 203.788,31.026C203.067,31.026 202.374,31.137 201.709,31.359C201.043,31.581 200.455,31.898 199.946,32.309C199.436,32.719 199.043,33.193 198.768,33.729C198.492,34.266 198.354,34.825 198.354,35.406C198.354,35.986 198.492,36.545 198.768,37.082C199.043,37.618 199.436,38.092 199.946,38.502C200.455,38.913 201.043,39.23 201.709,39.452C202.374,39.674 203.067,39.785 203.788,39.785C204.509,39.785 205.202,39.674 205.868,39.452C206.533,39.23 207.121,38.913 207.631,38.502C208.14,38.092 208.533,37.618 208.809,37.082C209.085,36.545 209.222,35.986 209.222,35.406Z" transform="rotate(-180 203.788 35.406)" fill="#145DA0"/>
<path d="M209.222,5.704C209.222,5.124 209.085,4.565 208.809,4.028C208.533,3.492 208.14,3.018 207.631,2.608C207.121,2.197 206.533,1.88 205.868,1.658C205.202,1.436 204.509,1.325 203.788,1.325C203.067,1.325 202.374,1.436 201.709,1.658C201.043,1.88 200.455,2.197 199.946,2.608C199.436,3.018 199.043,3.492 198.768,4.028C198.492,4.565 198.354,5.124 198.354,5.704C198.354,6.285 198.492,6.844 198.768,7.381C199.043,7.917 199.436,8.391 199.946,8.801C200.455,9.212 201.043,9.529 201.709,9.751C202.374,9.973 203.067,10.084 203.788,10.084C204.509,10.084 205.202,9.973 205.868,9.751C206.533,9.529 207.121,9.212 207.631,8.801C208.14,8.391 208.533,7.917 208.809,7.381C209.085,6.844 209.222,6.285 209.222,5.704Z" transform="rotate(-180 203.788 5.704)" fill="#145DA0"/>
<path d="M77.618,95.202C77.618,94.622 77.48,94.063 77.204,93.526C76.928,92.99 76.535,92.516 76.026,92.106C75.516,91.695 74.928,91.378 74.263,91.156C73.597,90.934 72.904,90.823 72.183,90.823C71.462,90.823 70.769,90.934 70.104,91.156C69.438,91.378 68.85,91.695 68.341,92.106C67.831,92.516 67.438,92.99 67.163,93.526C66.887,94.063 66.749,94.622 66.749,95.202C66.749,95.783 66.887,96.342 67.163,96.879C67.438,97.415 67.831,97.889 68.341,98.299C68.85,98.71 69.438,99.027 70.104,99.249C70.769,99.471 71.462,99.582 72.183,99.582C72.904,99.582 73.597,99.471 74.263,99.249C74.928,99.027 75.516,98.71 76.026,98.299C76.535,97.889 76.928,97.415 77.204,96.879C77.48,96.342 77.618,95.783 77.618,95.202Z" transform="rotate(-180 72.183 95.202)" fill="#145DA0"/>
<path d="M77.618,65.501C77.618,64.92 77.48,64.362 77.204,63.825C76.928,63.289 76.535,62.815 76.026,62.404C75.516,61.994 74.928,61.677 74.263,61.455C73.597,61.233 72.904,61.122 72.183,61.122C71.462,61.122 70.769,61.233 70.104,61.455C69.438,61.677 68.85,61.994 68.341,62.404C67.831,62.815 67.438,63.289 67.163,63.825C66.887,64.362 66.749,64.92 66.749,65.501C66.749,66.082 66.887,66.641 67.163,67.177C67.438,67.714 67.831,68.188 68.341,68.598C68.85,69.009 69.438,69.325 70.104,69.548C70.769,69.77 71.462,69.881 72.183,69.881C72.904,69.881 73.597,69.77 74.263,69.548C74.928,69.325 75.516,69.009 76.026,68.598C76.535,68.188 76.928,67.714 77.204,67.177C77.48,66.641 77.618,66.082 77.618,65.501Z" transform="rotate(-180 72.183 65.501)" fill="#145DA0"/>
<path d="M77.618,35.8C77.618,35.219 77.48,34.661 77.204,34.124C76.928,33.588 76.535,33.114 76.026,32.703C75.516,32.292 74.928,31.976 74.263,31.754C73.597,31.531 72.904,31.42 72.183,31.42C71.462,31.42 70.769,31.531 70.104,31.754C69.438,31.976 68.85,32.292 68.341,32.703C67.831,33.114 67.438,33.588 67.163,34.124C66.887,34.661 66.749,35.219 66.749,35.8C66.749,36.381 66.887,36.94 67.163,37.476C67.438,38.013 67.831,38.486 68.341,38.897C68.85,39.308 69.438,39.624 70.104,39.846C70.769,40.069 71.462,40.18 72.183,40.18C72.904,40.18 73.597,40.069 74.263,39.846C74.928,39.624 75.516,39.308 76.026,38.897C76.535,38.486 76.928,38.013 77.204,37.476C77.48,36.94 77.618,36.381 77.618,35.8Z" transform="rotate(-180 72.183 35.8)" fill="#145DA0"/>
<path d="M77.617,6.098C77.617,5.517 77.48,4.958 77.204,4.422C76.928,3.885 76.535,3.412 76.026,3.001C75.516,2.59 74.928,2.274 74.263,2.052C73.597,1.829 72.904,1.718 72.183,1.718C71.462,1.718 70.769,1.829 70.104,2.052C69.438,2.274 68.85,2.59 68.341,3.001C67.831,3.412 67.438,3.885 67.163,4.422C66.887,4.958 66.749,5.517 66.749,6.098C66.749,6.679 66.887,7.238 67.163,7.774C67.438,8.311 67.831,8.784 68.341,9.195C68.85,9.606 69.438,9.922 70.104,10.144C70.769,10.367 71.462,10.478 72.183,10.478C72.904,10.478 73.597,10.367 74.263,10.144C74.928,9.922 75.516,9.606 76.026,9.195C76.535,8.784 76.928,8.311 77.204,7.774C77.48,7.238 77.617,6.679 77.617,6.098Z" transform="rotate(-180 72.183 6.098)" fill="#145DA0"/>
<path d="M44.715,95.202C44.715,94.622 44.577,94.063 44.301,93.526C44.026,92.99 43.633,92.516 43.123,92.106C42.614,91.695 42.026,91.378 41.361,91.156C40.695,90.934 40.002,90.823 39.281,90.823C38.56,90.823 37.867,90.934 37.201,91.156C36.536,91.378 35.948,91.695 35.438,92.106C34.929,92.516 34.536,92.99 34.26,93.526C33.984,94.063 33.847,94.622 33.847,95.202C33.847,95.783 33.984,96.342 34.26,96.879C34.536,97.415 34.929,97.889 35.438,98.299C35.948,98.71 36.536,99.027 37.201,99.249C37.867,99.471 38.56,99.582 39.281,99.582C40.002,99.582 40.695,99.471 41.361,99.249C42.026,99.027 42.614,98.71 43.123,98.299C43.633,97.889 44.026,97.415 44.301,96.879C44.577,96.342 44.715,95.783 44.715,95.202Z" transform="rotate(-180 39.281 95.202)" fill="#145DA0"/>
<path d="M44.715,65.501C44.715,64.92 44.577,64.362 44.301,63.825C44.026,63.289 43.633,62.815 43.123,62.404C42.614,61.994 42.026,61.677 41.361,61.455C40.695,61.233 40.002,61.122 39.281,61.122C38.56,61.122 37.867,61.233 37.201,61.455C36.536,61.677 35.948,61.994 35.438,62.404C34.929,62.815 34.536,63.289 34.26,63.825C33.984,64.362 33.847,64.92 33.847,65.501C33.847,66.082 33.984,66.641 34.26,67.177C34.536,67.714 34.929,68.188 35.438,68.598C35.948,69.009 36.536,69.325 37.201,69.548C37.867,69.77 38.56,69.881 39.281,69.881C40.002,69.881 40.695,69.77 41.361,69.548C42.026,69.325 42.614,69.009 43.123,68.598C43.633,68.188 44.026,67.714 44.301,67.177C44.577,66.641 44.715,66.082 44.715,65.501Z" transform="rotate(-180 39.281 65.501)" fill="#145DA0"/>
<path d="M44.715,35.8C44.715,35.219 44.577,34.661 44.301,34.124C44.026,33.588 43.633,33.114 43.123,32.703C42.614,32.292 42.026,31.976 41.361,31.754C40.695,31.531 40.002,31.42 39.281,31.42C38.56,31.42 37.867,31.531 37.201,31.754C36.535,31.976 35.948,32.292 35.438,32.703C34.929,33.114 34.536,33.588 34.26,34.124C33.984,34.661 33.847,35.219 33.847,35.8C33.847,36.381 33.984,36.94 34.26,37.476C34.536,38.013 34.929,38.486 35.438,38.897C35.948,39.308 36.535,39.624 37.201,39.846C37.867,40.069 38.56,40.18 39.281,40.18C40.002,40.18 40.695,40.069 41.361,39.846C42.026,39.624 42.614,39.308 43.123,38.897C43.633,38.486 44.026,38.013 44.301,37.476C44.577,36.94 44.715,36.381 44.715,35.8Z" transform="rotate(-180 39.281 35.8)" fill="#145DA0"/>
<path d="M44.715,6.098C44.715,5.517 44.577,4.958 44.301,4.422C44.026,3.885 43.633,3.412 43.123,3.001C42.614,2.59 42.026,2.274 41.361,2.052C40.695,1.829 40.002,1.718 39.281,1.718C38.56,1.718 37.867,1.829 37.201,2.052C36.535,2.274 35.948,2.59 35.438,3.001C34.929,3.412 34.536,3.885 34.26,4.422C33.984,4.958 33.847,5.517 33.847,6.098C33.847,6.679 33.984,7.238 34.26,7.774C34.536,8.311 34.929,8.784 35.438,9.195C35.948,9.606 36.535,9.922 37.201,10.144C37.867,10.367 38.56,10.478 39.281,10.478C40.002,10.478 40.695,10.367 41.361,10.144C42.026,9.922 42.614,9.606 43.123,9.195C43.633,8.784 44.026,8.311 44.301,7.774C44.577,7.238 44.715,6.679 44.715,6.098Z" transform="rotate(-180 39.281 6.098)" fill="#145DA0"/>
<path d="M11.813,94.808C11.813,94.227 11.675,93.668 11.399,93.132C11.123,92.595 10.731,92.122 10.221,91.711C9.712,91.3 9.124,90.984 8.458,90.762C7.792,90.539 7.099,90.428 6.379,90.428C5.658,90.428 4.965,90.539 4.299,90.762C3.633,90.984 3.045,91.3 2.536,91.711C2.026,92.122 1.634,92.595 1.358,93.132C1.082,93.668 0.944,94.227 0.944,94.808C0.944,95.389 1.082,95.947 1.358,96.484C1.634,97.02 2.026,97.494 2.536,97.905C3.045,98.316 3.633,98.632 4.299,98.854C4.965,99.077 5.658,99.188 6.379,99.188C7.099,99.188 7.792,99.077 8.458,98.854C9.124,98.632 9.712,98.316 10.221,97.905C10.731,97.494 11.123,97.02 11.399,96.484C11.675,95.947 11.813,95.389 11.813,94.808Z" transform="rotate(-180 6.379 94.808)" fill="#145DA0"/>
<path d="M11.813,65.501C11.813,64.92 11.675,64.362 11.399,63.825C11.123,63.289 10.731,62.815 10.221,62.404C9.712,61.994 9.124,61.677 8.458,61.455C7.792,61.233 7.099,61.122 6.379,61.122C5.658,61.122 4.965,61.233 4.299,61.455C3.633,61.677 3.045,61.994 2.536,62.404C2.026,62.815 1.634,63.289 1.358,63.825C1.082,64.362 0.944,64.92 0.944,65.501C0.944,66.082 1.082,66.641 1.358,67.177C1.634,67.714 2.026,68.188 2.536,68.598C3.045,69.009 3.633,69.325 4.299,69.548C4.965,69.77 5.658,69.881 6.379,69.881C7.099,69.881 7.792,69.77 8.458,69.548C9.124,69.325 9.712,69.009 10.221,68.598C10.731,68.188 11.123,67.714 11.399,67.177C11.675,66.641 11.813,66.082 11.813,65.501Z" transform="rotate(-180 6.379 65.501)" fill="#145DA0"/>
<path d="M11.813,35.8C11.813,35.219 11.675,34.661 11.399,34.124C11.123,33.588 10.731,33.114 10.221,32.703C9.712,32.292 9.124,31.976 8.458,31.754C7.792,31.531 7.099,31.42 6.379,31.42C5.658,31.42 4.965,31.531 4.299,31.754C3.633,31.976 3.045,32.292 2.536,32.703C2.026,33.114 1.634,33.588 1.358,34.124C1.082,34.661 0.944,35.219 0.944,35.8C0.944,36.381 1.082,36.94 1.358,37.476C1.634,38.013 2.026,38.486 2.536,38.897C3.045,39.308 3.633,39.624 4.299,39.846C4.965,40.069 5.658,40.18 6.379,40.18C7.099,40.18 7.792,40.069 8.458,39.846C9.124,39.624 9.712,39.308 10.221,38.897C10.731,38.486 11.123,38.013 11.399,37.476C11.675,36.94 11.813,36.381 11.813,35.8Z" transform="rotate(-180 6.379 35.8)" fill="#145DA0"/>
<path d="M11.813,6.098C11.813,5.517 11.675,4.958 11.399,4.422C11.123,3.885 10.731,3.412 10.221,3.001C9.712,2.59 9.124,2.274 8.458,2.052C7.792,1.829 7.099,1.718 6.379,1.718C5.658,1.718 4.965,1.829 4.299,2.052C3.633,2.274 3.045,2.59 2.536,3.001C2.026,3.412 1.634,3.885 1.358,4.422C1.082,4.958 0.944,5.517 0.944,6.098C0.944,6.679 1.082,7.238 1.358,7.774C1.634,8.31 2.026,8.784 2.536,9.195C3.045,9.606 3.633,9.922 4.299,10.144C4.965,10.367 5.658,10.478 6.379,10.478C7.099,10.478 7.792,10.367 8.458,10.144C9.124,9.922 9.712,9.606 10.221,9.195C10.731,8.784 11.123,8.31 11.399,7.774C11.675,7.238 11.813,6.679 11.813,6.098Z" transform="rotate(-180 6.379 6.098)" fill="#145DA0"/>
</svg>
