<svg width="210" height="102" viewBox="0 0 210 102" fill="none" xmlns="http://www.w3.org/2000/svg" xmlns:xlink="http://www.w3.org/1999/xlink">
<path d="M109.786,95.49C109.786,94.909 109.648,94.35 109.372,93.813C109.097,93.277 108.704,92.803 108.194,92.393C107.685,91.982 107.097,91.665 106.431,91.443C105.766,91.221 105.072,91.11 104.352,91.11C103.631,91.11 102.938,91.221 102.272,91.443C101.606,91.665 101.019,91.982 100.509,92.393C100,92.803 99.607,93.277 99.331,93.813C99.055,94.35 98.917,94.909 98.917,95.49C98.917,96.07 99.055,96.629 99.331,97.166C99.607,97.702 100,98.176 100.509,98.586C101.019,98.997 101.606,99.314 102.272,99.536C102.938,99.758 103.631,99.869 104.352,99.869C105.072,99.869 105.766,99.758 106.431,99.536C107.097,99.314 107.685,98.997 108.194,98.586C108.704,98.176 109.097,97.702 109.372,97.166C109.648,96.629 109.786,96.07 109.786,95.49Z" transform="rotate(-180 104.352 95.49)" fill="#145DA0"/>
<path d="M109.786,65.788C109.786,65.207 109.648,64.649 109.372,64.112C109.097,63.576 108.704,63.102 108.194,62.692C107.685,62.281 107.097,61.964 106.431,61.742C105.766,61.52 105.072,61.409 104.352,61.409C103.631,61.409 102.938,61.52 102.272,61.742C101.606,61.964 101.019,62.281 100.509,62.692C100,63.102 99.607,63.576 99.331,64.112C99.055,64.649 98.917,65.207 98.917,65.788C98.917,66.369 99.055,66.928 99.331,67.465C99.607,68.001 100,68.475 100.509,68.885C101.019,69.296 101.606,69.613 102.272,69.835C102.938,70.057 103.631,70.168 104.352,70.168C105.072,70.168 105.766,70.057 106.431,69.835C107.097,69.613 107.685,69.296 108.194,68.885C108.704,68.475 109.097,68.001 109.372,67.465C109.648,66.928 109.786,66.369 109.786,65.788Z" transform="rotate(-180 104.352 65.788)" fill="#145DA0"/>
<path d="M109.786,36.087C109.786,35.506 109.648,34.948 109.372,34.411C109.097,33.875 108.704,33.401 108.194,32.99C107.685,32.58 107.097,32.263 106.431,32.041C105.766,31.819 105.072,31.707 104.352,31.707C103.631,31.707 102.938,31.819 102.272,32.041C101.606,32.263 101.019,32.58 100.509,32.99C100,33.401 99.607,33.875 99.331,34.411C99.055,34.948 98.917,35.506 98.917,36.087C98.917,36.668 99.055,37.227 99.331,37.763C99.607,38.3 100,38.774 100.509,39.184C101.019,39.595 101.606,39.911 102.272,40.133C102.938,40.356 103.631,40.467 104.352,40.467C105.072,40.467 105.766,40.356 106.431,40.133C107.097,39.911 107.685,39.595 108.194,39.184C108.704,38.774 109.097,38.3 109.372,37.763C109.648,37.227 109.786,36.668 109.786,36.087Z" transform="rotate(-180 104.352 36.087)" fill="#145DA0"/>
<path d="M109.786,6.385C109.786,5.804 109.648,5.246 109.372,4.709C109.097,4.173 108.704,3.699 108.194,3.288C107.685,2.877 107.097,2.561 106.431,2.339C105.766,2.116 105.072,2.005 104.352,2.005C103.631,2.005 102.938,2.116 102.272,2.339C101.606,2.561 101.019,2.877 100.509,3.288C100,3.699 99.607,4.173 99.331,4.709C99.055,5.246 98.917,5.804 98.917,6.385C98.917,6.966 99.055,7.525 99.331,8.061C99.607,8.598 100,9.071 100.509,9.482C101.019,9.893 101.606,10.209 102.272,10.431C102.938,10.654 103.631,10.765 104.352,10.765C105.072,10.765 105.766,10.654 106.431,10.431C107.097,10.209 107.685,9.893 108.194,9.482C108.704,9.071 109.097,8.598 109.372,8.061C109.648,7.525 109.786,6.966 109.786,6.385Z" transform="rotate(-180 104.352 6.385)" fill="#145DA0"/>
<path d="M142.687,95.095C142.687,94.514 142.55,93.956 142.274,93.419C141.998,92.883 141.605,92.409 141.096,91.998C140.586,91.587 139.998,91.271 139.333,91.049C138.667,90.826 137.974,90.715 137.253,90.715C136.532,90.715 135.839,90.826 135.173,91.049C134.508,91.271 133.92,91.587 133.411,91.998C132.901,92.409 132.508,92.883 132.233,93.419C131.957,93.956 131.819,94.514 131.819,95.095C131.819,95.676 131.957,96.235 132.233,96.771C132.508,97.308 132.901,97.781 133.411,98.192C133.92,98.603 134.508,98.919 135.173,99.141C135.839,99.364 136.532,99.475 137.253,99.475C137.974,99.475 138.667,99.364 139.333,99.141C139.998,98.919 140.586,98.603 141.096,98.192C141.605,97.781 141.998,97.308 142.274,96.771C142.55,96.235 142.687,95.676 142.687,95.095Z" transform="rotate(-180 137.253 95.095)" fill="#145DA0"/>
<path d="M142.687,65.394C142.687,64.813 142.55,64.254 142.274,63.718C141.998,63.181 141.605,62.708 141.096,62.297C140.586,61.886 139.998,61.57 139.333,61.348C138.667,61.125 137.974,61.014 137.253,61.014C136.532,61.014 135.839,61.125 135.173,61.348C134.508,61.57 133.92,61.886 133.411,62.297C132.901,62.708 132.508,63.181 132.233,63.718C131.957,64.254 131.819,64.813 131.819,65.394C131.819,65.975 131.957,66.533 132.233,67.07C132.508,67.607 132.901,68.08 133.411,68.491C133.92,68.902 134.508,69.218 135.173,69.44C135.839,69.663 136.532,69.774 137.253,69.774C137.974,69.774 138.667,69.663 139.333,69.44C139.998,69.218 140.586,68.902 141.096,68.491C141.605,68.08 141.998,67.607 142.274,67.07C142.55,66.533 142.687,65.975 142.687,65.394Z" transform="rotate(-180 137.253 65.394)" fill="#145DA0"/>
<path d="M142.687,35.693C142.687,35.112 142.55,34.553 142.274,34.017C141.998,33.48 141.605,33.006 141.096,32.596C140.586,32.185 139.998,31.869 139.333,31.646C138.667,31.424 137.974,31.313 137.253,31.313C136.532,31.313 135.839,31.424 135.173,31.646C134.508,31.869 133.92,32.185 133.411,32.596C132.901,33.006 132.508,33.48 132.233,34.017C131.957,34.553 131.819,35.112 131.819,35.693C131.819,36.274 131.957,36.832 132.233,37.369C132.508,37.905 132.901,38.379 133.411,38.79C133.92,39.2 134.508,39.517 135.173,39.739C135.839,39.961 136.532,40.072 137.253,40.072C137.974,40.072 138.667,39.961 139.333,39.739C139.998,39.517 140.586,39.2 141.096,38.79C141.605,38.379 141.998,37.905 142.274,37.369C142.55,36.832 142.687,36.274 142.687,35.693Z" transform="rotate(-180 137.253 35.693)" fill="#145DA0"/>
<path d="M142.687,5.992C142.687,5.411 142.55,4.852 142.274,4.315C141.998,3.779 141.605,3.305 141.096,2.895C140.586,2.484 139.998,2.167 139.333,1.945C138.667,1.723 137.974,1.612 137.253,1.612C136.532,1.612 135.839,1.723 135.173,1.945C134.508,2.167 133.92,2.484 133.411,2.895C132.901,3.305 132.508,3.779 132.233,4.315C131.957,4.852 131.819,5.411 131.819,5.992C131.819,6.572 131.957,7.131 132.233,7.668C132.508,8.204 132.901,8.678 133.411,9.088C133.92,9.499 134.508,9.816 135.173,10.038C135.839,10.26 136.532,10.371 137.253,10.371C137.974,10.371 138.667,10.26 139.333,10.038C139.998,9.816 140.586,9.499 141.096,9.088C141.605,8.678 141.998,8.204 142.274,7.668C142.55,7.131 142.687,6.572 142.687,5.992Z" transform="rotate(-180 137.253 5.992)" fill="#145DA0"/>
<path d="M175.588,95.095C175.588,94.514 175.45,93.956 175.174,93.419C174.898,92.883 174.506,92.409 173.996,91.998C173.487,91.587 172.899,91.271 172.233,91.049C171.567,90.826 170.874,90.715 170.153,90.715C169.433,90.715 168.74,90.826 168.074,91.049C167.408,91.271 166.82,91.587 166.311,91.998C165.801,92.409 165.409,92.883 165.133,93.419C164.857,93.956 164.719,94.514 164.719,95.095C164.719,95.676 164.857,96.235 165.133,96.771C165.409,97.308 165.801,97.781 166.311,98.192C166.82,98.603 167.408,98.919 168.074,99.141C168.74,99.364 169.433,99.475 170.153,99.475C170.874,99.475 171.567,99.364 172.233,99.141C172.899,98.919 173.487,98.603 173.996,98.192C174.506,97.781 174.898,97.308 175.174,96.771C175.45,96.235 175.588,95.676 175.588,95.095Z" transform="rotate(-180 170.153 95.095)" fill="#145DA0"/>
<path d="M175.588,65.394C175.588,64.813 175.45,64.254 175.174,63.718C174.898,63.181 174.506,62.708 173.996,62.297C173.487,61.886 172.899,61.57 172.233,61.348C171.567,61.125 170.874,61.014 170.153,61.014C169.433,61.014 168.74,61.125 168.074,61.348C167.408,61.57 166.82,61.886 166.311,62.297C165.801,62.708 165.409,63.181 165.133,63.718C164.857,64.254 164.719,64.813 164.719,65.394C164.719,65.975 164.857,66.533 165.133,67.07C165.409,67.607 165.801,68.08 166.311,68.491C166.82,68.902 167.408,69.218 168.074,69.44C168.74,69.663 169.433,69.774 170.153,69.774C170.874,69.774 171.567,69.663 172.233,69.44C172.899,69.218 173.487,68.902 173.996,68.491C174.506,68.08 174.898,67.607 175.174,67.07C175.45,66.533 175.588,65.975 175.588,65.394Z" transform="rotate(-180 170.153 65.394)" fill="#145DA0"/>
<path d="M175.588,35.693C175.588,35.112 175.45,34.553 175.174,34.017C174.898,33.48 174.506,33.006 173.996,32.596C173.487,32.185 172.899,31.869 172.233,31.646C171.567,31.424 170.874,31.313 170.153,31.313C169.433,31.313 168.74,31.424 168.074,31.646C167.408,31.869 166.82,32.185 166.311,32.596C165.801,33.006 165.409,33.48 165.133,34.017C164.857,34.553 164.719,35.112 164.719,35.693C164.719,36.274 164.857,36.832 165.133,37.369C165.409,37.905 165.801,38.379 166.311,38.79C166.82,39.2 167.408,39.517 168.074,39.739C168.74,39.961 169.433,40.072 170.153,40.072C170.874,40.072 171.567,39.961 172.233,39.739C172.899,39.517 173.487,39.2 173.996,38.79C174.506,38.379 174.898,37.905 175.174,37.369C175.45,36.832 175.588,36.274 175.588,35.693Z" transform="rotate(-180 170.153 35.693)" fill="#145DA0"/>
<path d="M175.588,5.992C175.588,5.411 175.45,4.852 175.174,4.315C174.898,3.779 174.506,3.305 173.996,2.895C173.487,2.484 172.899,2.167 172.233,1.945C171.567,1.723 170.874,1.612 170.153,1.612C169.433,1.612 168.74,1.723 168.074,1.945C167.408,2.167 166.82,2.484 166.311,2.895C165.801,3.305 165.409,3.779 165.133,4.315C164.857,4.852 164.719,5.411 164.719,5.992C164.719,6.572 164.857,7.131 165.133,7.668C165.409,8.204 165.801,8.678 166.311,9.088C166.82,9.499 167.408,9.816 168.074,10.038C168.74,10.26 169.433,10.371 170.153,10.371C170.874,10.371 171.567,10.26 172.233,10.038C172.899,9.816 173.487,9.499 173.996,9.088C174.506,8.678 174.898,8.204 175.174,7.668C175.45,7.131 175.588,6.572 175.588,5.992Z" transform="rotate(-180 170.153 5.992)" fill="#145DA0"/>
<path d="M208.49,95.095C208.49,94.514 208.352,93.956 208.076,93.419C207.801,92.883 207.408,92.409 206.898,91.998C206.389,91.587 205.801,91.271 205.136,91.049C204.47,90.826 203.777,90.715 203.056,90.715C202.335,90.715 201.642,90.826 200.976,91.049C200.311,91.271 199.723,91.587 199.213,91.998C198.704,92.409 198.311,92.883 198.035,93.419C197.759,93.956 197.622,94.514 197.622,95.095C197.622,95.676 197.759,96.235 198.035,96.771C198.311,97.308 198.704,97.781 199.213,98.192C199.723,98.603 200.311,98.919 200.976,99.141C201.642,99.364 202.335,99.475 203.056,99.475C203.777,99.475 204.47,99.364 205.136,99.141C205.801,98.919 206.389,98.603 206.898,98.192C207.408,97.781 207.801,97.308 208.076,96.771C208.352,96.235 208.49,95.676 208.49,95.095Z" transform="rotate(-180 203.056 95.095)" fill="#145DA0"/>
<path d="M208.49,65.394C208.49,64.813 208.352,64.254 208.076,63.718C207.801,63.181 207.408,62.708 206.898,62.297C206.389,61.886 205.801,61.57 205.136,61.348C204.47,61.125 203.777,61.014 203.056,61.014C202.335,61.014 201.642,61.125 200.976,61.348C200.31,61.57 199.723,61.886 199.213,62.297C198.704,62.708 198.311,63.181 198.035,63.718C197.759,64.254 197.622,64.813 197.622,65.394C197.622,65.975 197.759,66.533 198.035,67.07C198.311,67.607 198.704,68.08 199.213,68.491C199.723,68.902 200.31,69.218 200.976,69.44C201.642,69.663 202.335,69.774 203.056,69.774C203.777,69.774 204.47,69.663 205.136,69.44C205.801,69.218 206.389,68.902 206.898,68.491C207.408,68.08 207.801,67.607 208.076,67.07C208.352,66.533 208.49,65.975 208.49,65.394Z" transform="rotate(-180 203.056 65.394)" fill="#145DA0"/>
<path d="M208.49,35.693C208.49,35.112 208.352,34.553 208.076,34.017C207.801,33.48 207.408,33.006 206.898,32.596C206.389,32.185 205.801,31.869 205.136,31.646C204.47,31.424 203.777,31.313 203.056,31.313C202.335,31.313 201.642,31.424 200.976,31.646C200.31,31.869 199.723,32.185 199.213,32.596C198.704,33.006 198.311,33.48 198.035,34.017C197.759,34.553 197.622,35.112 197.622,35.693C197.622,36.274 197.759,36.832 198.035,37.369C198.311,37.905 198.704,38.379 199.213,38.79C199.723,39.2 200.31,39.517 200.976,39.739C201.642,39.961 202.335,40.072 203.056,40.072C203.777,40.072 204.47,39.961 205.136,39.739C205.801,39.517 206.389,39.2 206.898,38.79C207.408,38.379 207.801,37.905 208.076,37.369C208.352,36.832 208.49,36.274 208.49,35.693Z" transform="rotate(-180 203.056 35.693)" fill="#145DA0"/>
<path d="M208.49,5.992C208.49,5.411 208.352,4.852 208.076,4.315C207.801,3.779 207.408,3.305 206.898,2.895C206.389,2.484 205.801,2.167 205.136,1.945C204.47,1.723 203.777,1.612 203.056,1.612C202.335,1.612 201.642,1.723 200.976,1.945C200.31,2.167 199.723,2.484 199.213,2.895C198.704,3.305 198.311,3.779 198.035,4.315C197.759,4.852 197.622,5.411 197.622,5.992C197.622,6.572 197.759,7.131 198.035,7.668C198.311,8.204 198.704,8.678 199.213,9.088C199.723,9.499 200.31,9.816 200.976,10.038C201.642,10.26 202.335,10.371 203.056,10.371C203.777,10.371 204.47,10.26 205.136,10.038C205.801,9.816 206.389,9.499 206.898,9.088C207.408,8.678 207.801,8.204 208.076,7.668C208.352,7.131 208.49,6.572 208.49,5.992Z" transform="rotate(-180 203.056 5.992)" fill="#145DA0"/>
<path d="M76.886,95.49C76.886,94.909 76.748,94.35 76.472,93.813C76.196,93.277 75.803,92.803 75.294,92.393C74.784,91.982 74.197,91.665 73.531,91.443C72.865,91.221 72.172,91.11 71.451,91.11C70.731,91.11 70.037,91.221 69.372,91.443C68.706,91.665 68.118,91.982 67.609,92.393C67.099,92.803 66.706,93.277 66.431,93.813C66.155,94.35 66.017,94.909 66.017,95.49C66.017,96.07 66.155,96.629 66.431,97.166C66.706,97.702 67.099,98.176 67.609,98.586C68.118,98.997 68.706,99.314 69.372,99.536C70.037,99.758 70.731,99.869 71.451,99.869C72.172,99.869 72.865,99.758 73.531,99.536C74.197,99.314 74.784,98.997 75.294,98.586C75.803,98.176 76.196,97.702 76.472,97.166C76.748,96.629 76.886,96.07 76.886,95.49Z" transform="rotate(-180 71.451 95.49)" fill="#145DA0"/>
<path d="M76.886,65.788C76.886,65.207 76.748,64.649 76.472,64.112C76.196,63.576 75.803,63.102 75.294,62.692C74.784,62.281 74.197,61.964 73.531,61.742C72.865,61.52 72.172,61.409 71.451,61.409C70.731,61.409 70.037,61.52 69.372,61.742C68.706,61.964 68.118,62.281 67.609,62.692C67.099,63.102 66.706,63.576 66.431,64.112C66.155,64.649 66.017,65.207 66.017,65.788C66.017,66.369 66.155,66.928 66.431,67.465C66.706,68.001 67.099,68.475 67.609,68.885C68.118,69.296 68.706,69.613 69.372,69.835C70.037,70.057 70.731,70.168 71.451,70.168C72.172,70.168 72.865,70.057 73.531,69.835C74.197,69.613 74.784,69.296 75.294,68.885C75.803,68.475 76.196,68.001 76.472,67.465C76.748,66.928 76.886,66.369 76.886,65.788Z" transform="rotate(-180 71.451 65.788)" fill="#145DA0"/>
<path d="M76.886,36.087C76.886,35.506 76.748,34.948 76.472,34.411C76.196,33.875 75.803,33.401 75.294,32.99C74.784,32.58 74.197,32.263 73.531,32.041C72.865,31.819 72.172,31.707 71.451,31.707C70.731,31.707 70.037,31.819 69.372,32.041C68.706,32.263 68.118,32.58 67.609,32.99C67.099,33.401 66.706,33.875 66.431,34.411C66.155,34.948 66.017,35.506 66.017,36.087C66.017,36.668 66.155,37.227 66.431,37.763C66.706,38.3 67.099,38.774 67.609,39.184C68.118,39.595 68.706,39.911 69.372,40.133C70.037,40.356 70.731,40.467 71.451,40.467C72.172,40.467 72.865,40.356 73.531,40.133C74.197,39.911 74.784,39.595 75.294,39.184C75.803,38.774 76.196,38.3 76.472,37.763C76.748,37.227 76.886,36.668 76.886,36.087Z" transform="rotate(-180 71.451 36.087)" fill="#145DA0"/>
<path d="M76.886,6.385C76.886,5.804 76.748,5.246 76.472,4.709C76.196,4.173 75.803,3.699 75.294,3.288C74.784,2.877 74.197,2.561 73.531,2.339C72.865,2.116 72.172,2.005 71.451,2.005C70.731,2.005 70.037,2.116 69.372,2.339C68.706,2.561 68.118,2.877 67.609,3.288C67.099,3.699 66.706,4.173 66.431,4.709C66.155,5.246 66.017,5.804 66.017,6.385C66.017,6.966 66.155,7.525 66.431,8.061C66.706,8.598 67.099,9.071 67.609,9.482C68.118,9.893 68.706,10.209 69.372,10.431C70.037,10.654 70.731,10.765 71.451,10.765C72.172,10.765 72.865,10.654 73.531,10.431C74.197,10.209 74.784,9.893 75.294,9.482C75.803,9.071 76.196,8.598 76.472,8.061C76.748,7.525 76.886,6.966 76.886,6.385Z" transform="rotate(-180 71.451 6.385)" fill="#145DA0"/>
<path d="M43.983,95.49C43.983,94.909 43.845,94.35 43.569,93.813C43.294,93.277 42.901,92.803 42.391,92.393C41.882,91.982 41.294,91.665 40.629,91.443C39.963,91.221 39.27,91.11 38.549,91.11C37.828,91.11 37.135,91.221 36.469,91.443C35.804,91.665 35.216,91.982 34.706,92.393C34.197,92.803 33.804,93.277 33.528,93.813C33.253,94.35 33.115,94.909 33.115,95.49C33.115,96.07 33.253,96.629 33.528,97.166C33.804,97.702 34.197,98.176 34.706,98.586C35.216,98.997 35.804,99.314 36.469,99.536C37.135,99.758 37.828,99.869 38.549,99.869C39.27,99.869 39.963,99.758 40.629,99.536C41.294,99.314 41.882,98.997 42.391,98.586C42.901,98.176 43.294,97.702 43.569,97.166C43.845,96.629 43.983,96.07 43.983,95.49Z" transform="rotate(-180 38.549 95.49)" fill="#145DA0"/>
<path d="M43.983,65.788C43.983,65.207 43.845,64.649 43.569,64.112C43.294,63.576 42.901,63.102 42.391,62.692C41.882,62.281 41.294,61.964 40.629,61.742C39.963,61.52 39.27,61.409 38.549,61.409C37.828,61.409 37.135,61.52 36.469,61.742C35.804,61.964 35.216,62.281 34.706,62.692C34.197,63.102 33.804,63.576 33.528,64.112C33.253,64.649 33.115,65.207 33.115,65.788C33.115,66.369 33.253,66.928 33.528,67.465C33.804,68.001 34.197,68.475 34.706,68.885C35.216,69.296 35.804,69.613 36.469,69.835C37.135,70.057 37.828,70.168 38.549,70.168C39.27,70.168 39.963,70.057 40.629,69.835C41.294,69.613 41.882,69.296 42.391,68.885C42.901,68.475 43.294,68.001 43.569,67.465C43.845,66.928 43.983,66.369 43.983,65.788Z" transform="rotate(-180 38.549 65.788)" fill="#145DA0"/>
<path d="M43.983,36.087C43.983,35.506 43.845,34.948 43.569,34.411C43.294,33.875 42.901,33.401 42.391,32.99C41.882,32.58 41.294,32.263 40.629,32.041C39.963,31.819 39.27,31.707 38.549,31.707C37.828,31.707 37.135,31.819 36.469,32.041C35.803,32.263 35.216,32.58 34.706,32.99C34.197,33.401 33.804,33.875 33.528,34.411C33.253,34.948 33.115,35.506 33.115,36.087C33.115,36.668 33.253,37.227 33.528,37.763C33.804,38.3 34.197,38.774 34.706,39.184C35.216,39.595 35.803,39.911 36.469,40.133C37.135,40.356 37.828,40.467 38.549,40.467C39.27,40.467 39.963,40.356 40.629,40.133C41.294,39.911 41.882,39.595 42.391,39.184C42.901,38.774 43.294,38.3 43.569,37.763C43.845,37.227 43.983,36.668 43.983,36.087Z" transform="rotate(-180 38.549 36.087)" fill="#145DA0"/>
<path d="M43.983,6.385C43.983,5.804 43.845,5.246 43.569,4.709C43.294,4.173 42.901,3.699 42.391,3.288C41.882,2.877 41.294,2.561 40.629,2.339C39.963,2.116 39.27,2.005 38.549,2.005C37.828,2.005 37.135,2.116 36.469,2.339C35.803,2.561 35.216,2.877 34.706,3.288C34.197,3.699 33.804,4.173 33.528,4.709C33.253,5.246 33.115,5.804 33.115,6.385C33.115,6.966 33.253,7.525 33.528,8.061C33.804,8.598 34.197,9.071 34.706,9.482C35.216,9.893 35.803,10.209 36.469,10.431C37.135,10.654 37.828,10.765 38.549,10.765C39.27,10.765 39.963,10.654 40.629,10.431C41.294,10.209 41.882,9.893 42.391,9.482C42.901,9.071 43.294,8.598 43.569,8.061C43.845,7.525 43.983,6.966 43.983,6.385Z" transform="rotate(-180 38.549 6.385)" fill="#145DA0"/>
<path d="M11.081,95.095C11.081,94.514 10.943,93.956 10.667,93.419C10.391,92.883 9.999,92.409 9.489,91.998C8.98,91.587 8.392,91.271 7.726,91.049C7.061,90.826 6.367,90.715 5.647,90.715C4.926,90.715 4.233,90.826 3.567,91.049C2.901,91.271 2.314,91.587 1.804,91.998C1.294,92.409 0.902,92.883 0.626,93.419C0.35,93.956 0.212,94.514 0.212,95.095C0.212,95.676 0.35,96.235 0.626,96.771C0.902,97.308 1.294,97.781 1.804,98.192C2.314,98.603 2.901,98.919 3.567,99.141C4.233,99.364 4.926,99.475 5.647,99.475C6.367,99.475 7.061,99.364 7.726,99.141C8.392,98.919 8.98,98.603 9.489,98.192C9.999,97.781 10.391,97.308 10.667,96.771C10.943,96.235 11.081,95.676 11.081,95.095Z" transform="rotate(-180 5.647 95.095)" fill="#145DA0"/>
<path d="M11.081,65.788C11.081,65.207 10.943,64.649 10.667,64.112C10.391,63.576 9.999,63.102 9.489,62.692C8.98,62.281 8.392,61.964 7.726,61.742C7.061,61.52 6.367,61.409 5.647,61.409C4.926,61.409 4.233,61.52 3.567,61.742C2.901,61.964 2.314,62.281 1.804,62.692C1.294,63.102 0.902,63.576 0.626,64.112C0.35,64.649 0.212,65.207 0.212,65.788C0.212,66.369 0.35,66.928 0.626,67.465C0.902,68.001 1.294,68.475 1.804,68.885C2.314,69.296 2.901,69.613 3.567,69.835C4.233,70.057 4.926,70.168 5.647,70.168C6.367,70.168 7.061,70.057 7.726,69.835C8.392,69.613 8.98,69.296 9.489,68.885C9.999,68.475 10.391,68.001 10.667,67.465C10.943,66.928 11.081,66.369 11.081,65.788Z" transform="rotate(-180 5.647 65.788)" fill="#145DA0"/>
<path d="M11.081,36.087C11.081,35.506 10.943,34.948 10.667,34.411C10.391,33.875 9.999,33.401 9.489,32.99C8.98,32.58 8.392,32.263 7.726,32.041C7.061,31.819 6.367,31.707 5.647,31.707C4.926,31.707 4.233,31.819 3.567,32.041C2.901,32.263 2.314,32.58 1.804,32.99C1.294,33.401 0.902,33.875 0.626,34.411C0.35,34.948 0.212,35.506 0.212,36.087C0.212,36.668 0.35,37.227 0.626,37.763C0.902,38.3 1.294,38.774 1.804,39.184C2.314,39.595 2.901,39.911 3.567,40.133C4.233,40.356 4.926,40.467 5.647,40.467C6.367,40.467 7.061,40.356 7.726,40.133C8.392,39.911 8.98,39.595 9.489,39.184C9.999,38.774 10.391,38.3 10.667,37.763C10.943,37.227 11.081,36.668 11.081,36.087Z" transform="rotate(-180 5.647 36.087)" fill="#145DA0"/>
<path d="M11.081,6.385C11.081,5.804 10.943,5.246 10.667,4.709C10.391,4.173 9.999,3.699 9.489,3.288C8.98,2.877 8.392,2.561 7.726,2.339C7.061,2.116 6.367,2.005 5.647,2.005C4.926,2.005 4.233,2.116 3.567,2.339C2.901,2.561 2.313,2.877 1.804,3.288C1.294,3.699 0.902,4.173 0.626,4.709C0.35,5.246 0.212,5.804 0.212,6.385C0.212,6.966 0.35,7.525 0.626,8.061C0.902,8.598 1.294,9.071 1.804,9.482C2.313,9.893 2.901,10.209 3.567,10.431C4.233,10.654 4.926,10.765 5.647,10.765C6.367,10.765 7.061,10.654 7.726,10.431C8.392,10.209 8.98,9.893 9.489,9.482C9.999,9.071 10.391,8.598 10.667,8.061C10.943,7.525 11.081,6.966 11.081,6.385Z" transform="rotate(-180 5.647 6.385)" fill="#145DA0"/>
</svg>
