<svg width="154" height="90" viewBox="0 0 154 90" fill="none" xmlns="http://www.w3.org/2000/svg" xmlns:xlink="http://www.w3.org/1999/xlink">
<path d="M55.222,84.067C55.222,83.486 55.1,82.928 54.856,82.391C54.611,81.855 54.264,81.381 53.813,80.97C53.362,80.56 52.841,80.243 52.252,80.021C51.662,79.799 51.048,79.688 50.41,79.688C49.772,79.688 49.158,79.799 48.569,80.021C47.98,80.243 47.459,80.56 47.008,80.97C46.557,81.381 46.209,81.855 45.965,82.391C45.721,82.928 45.599,83.486 45.599,84.067C45.599,84.648 45.721,85.207 45.965,85.743C46.209,86.28 46.557,86.754 47.008,87.164C47.459,87.575 47.98,87.891 48.569,88.114C49.158,88.336 49.772,88.447 50.41,88.447C51.048,88.447 51.662,88.336 52.252,88.114C52.841,87.891 53.362,87.575 53.813,87.164C54.264,86.754 54.611,86.28 54.856,85.743C55.1,85.207 55.222,84.648 55.222,84.067Z" transform="rotate(-180 50.41 84.067)" fill="#145DA0"/>
<path d="M55.222,57.769C55.222,57.189 55.1,56.63 54.856,56.093C54.611,55.557 54.264,55.083 53.813,54.673C53.362,54.262 52.841,53.945 52.252,53.723C51.662,53.501 51.048,53.39 50.41,53.39C49.772,53.39 49.158,53.501 48.569,53.723C47.98,53.945 47.459,54.262 47.008,54.673C46.557,55.083 46.209,55.557 45.965,56.093C45.721,56.63 45.599,57.189 45.599,57.769C45.599,58.35 45.721,58.909 45.965,59.446C46.209,59.982 46.557,60.456 47.008,60.866C47.459,61.277 47.98,61.594 48.569,61.816C49.158,62.038 49.772,62.149 50.41,62.149C51.048,62.149 51.662,62.038 52.252,61.816C52.841,61.594 53.362,61.277 53.813,60.866C54.264,60.456 54.611,59.982 54.856,59.446C55.1,58.909 55.222,58.35 55.222,57.769Z" transform="rotate(-180 50.41 57.769)" fill="#145DA0"/>
<path d="M55.222,31.472C55.222,30.891 55.1,30.332 54.856,29.795C54.611,29.259 54.264,28.785 53.813,28.375C53.362,27.964 52.841,27.647 52.252,27.425C51.662,27.203 51.048,27.092 50.41,27.092C49.772,27.092 49.158,27.203 48.569,27.425C47.979,27.647 47.459,27.964 47.008,28.375C46.557,28.785 46.209,29.259 45.965,29.795C45.721,30.332 45.599,30.891 45.599,31.472C45.599,32.053 45.721,32.611 45.965,33.148C46.209,33.684 46.557,34.158 47.008,34.568C47.459,34.979 47.979,35.296 48.569,35.518C49.158,35.74 49.772,35.851 50.41,35.851C51.048,35.851 51.662,35.74 52.252,35.518C52.841,35.296 53.362,34.979 53.813,34.568C54.264,34.158 54.611,33.684 54.856,33.148C55.1,32.611 55.222,32.053 55.222,31.472Z" transform="rotate(-180 50.41 31.472)" fill="#145DA0"/>
<path d="M55.222,5.173C55.222,4.592 55.1,4.033 54.856,3.497C54.611,2.96 54.264,2.486 53.813,2.076C53.362,1.665 52.841,1.349 52.252,1.127C51.662,0.904 51.048,0.793 50.41,0.793C49.772,0.793 49.158,0.904 48.569,1.127C47.979,1.349 47.459,1.665 47.008,2.076C46.557,2.486 46.209,2.96 45.965,3.497C45.721,4.033 45.599,4.592 45.599,5.173C45.599,5.754 45.721,6.312 45.965,6.849C46.209,7.386 46.557,7.859 47.008,8.27C47.459,8.68 47.979,8.997 48.569,9.219C49.158,9.441 49.772,9.553 50.41,9.553C51.048,9.553 51.662,9.441 52.252,9.219C52.841,8.997 53.362,8.68 53.813,8.27C54.264,7.859 54.611,7.386 54.856,6.849C55.1,6.312 55.222,5.754 55.222,5.173Z" transform="rotate(-180 50.41 5.173)" fill="#145DA0"/>
<path d="M88.123,83.719C88.123,83.138 88.001,82.579 87.757,82.043C87.513,81.506 87.165,81.032 86.714,80.622C86.263,80.211 85.742,79.895 85.153,79.672C84.564,79.45 83.95,79.339 83.312,79.339C82.673,79.339 82.06,79.45 81.47,79.672C80.881,79.895 80.36,80.211 79.909,80.622C79.458,81.032 79.11,81.506 78.866,82.043C78.622,82.579 78.5,83.138 78.5,83.719C78.5,84.3 78.622,84.858 78.866,85.395C79.11,85.931 79.458,86.405 79.909,86.816C80.36,87.226 80.881,87.543 81.47,87.765C82.06,87.987 82.673,88.098 83.312,88.098C83.95,88.098 84.564,87.987 85.153,87.765C85.742,87.543 86.263,87.226 86.714,86.816C87.165,86.405 87.513,85.931 87.757,85.395C88.001,84.858 88.123,84.3 88.123,83.719Z" transform="rotate(-180 83.312 83.719)" fill="#145DA0"/>
<path d="M88.123,57.42C88.123,56.839 88.001,56.28 87.757,55.744C87.513,55.207 87.165,54.734 86.714,54.323C86.263,53.912 85.742,53.596 85.153,53.374C84.564,53.151 83.95,53.04 83.312,53.04C82.673,53.04 82.06,53.151 81.47,53.374C80.881,53.596 80.36,53.912 79.909,54.323C79.458,54.734 79.11,55.207 78.866,55.744C78.622,56.28 78.5,56.839 78.5,57.42C78.5,58.001 78.622,58.559 78.866,59.096C79.11,59.633 79.458,60.106 79.909,60.517C80.36,60.927 80.881,61.244 81.47,61.466C82.06,61.689 82.673,61.8 83.312,61.8C83.95,61.8 84.564,61.689 85.153,61.466C85.742,61.244 86.263,60.927 86.714,60.517C87.165,60.106 87.513,59.633 87.757,59.096C88.001,58.559 88.123,58.001 88.123,57.42Z" transform="rotate(-180 83.312 57.42)" fill="#145DA0"/>
<path d="M88.123,31.122C88.123,30.541 88.001,29.982 87.757,29.446C87.513,28.909 87.165,28.436 86.714,28.025C86.263,27.614 85.742,27.298 85.153,27.076C84.564,26.853 83.95,26.742 83.312,26.742C82.673,26.742 82.06,26.853 81.47,27.076C80.881,27.298 80.36,27.614 79.909,28.025C79.458,28.436 79.11,28.909 78.866,29.446C78.622,29.982 78.5,30.541 78.5,31.122C78.5,31.703 78.622,32.262 78.866,32.798C79.11,33.335 79.458,33.808 79.909,34.219C80.36,34.63 80.881,34.946 81.47,35.168C82.06,35.391 82.673,35.502 83.312,35.502C83.95,35.502 84.564,35.391 85.153,35.168C85.742,34.946 86.263,34.63 86.714,34.219C87.165,33.808 87.513,33.335 87.757,32.798C88.001,32.262 88.123,31.703 88.123,31.122Z" transform="rotate(-180 83.312 31.122)" fill="#145DA0"/>
<path d="M88.123,4.824C88.123,4.243 88.001,3.685 87.757,3.148C87.513,2.612 87.165,2.138 86.714,1.727C86.263,1.316 85.742,1 85.153,0.778C84.564,0.555 83.95,0.444 83.312,0.444C82.673,0.444 82.06,0.555 81.47,0.778C80.881,1 80.36,1.316 79.909,1.727C79.458,2.138 79.11,2.612 78.866,3.148C78.622,3.685 78.5,4.243 78.5,4.824C78.5,5.405 78.622,5.964 78.866,6.5C79.11,7.037 79.458,7.51 79.909,7.921C80.36,8.332 80.881,8.648 81.47,8.87C82.06,9.093 82.673,9.204 83.312,9.204C83.95,9.204 84.564,9.093 85.153,8.87C85.742,8.648 86.263,8.332 86.714,7.921C87.165,7.51 87.513,7.037 87.757,6.5C88.001,5.964 88.123,5.405 88.123,4.824Z" transform="rotate(-180 83.312 4.824)" fill="#145DA0"/>
<path d="M121.025,83.719C121.025,83.138 120.903,82.579 120.658,82.043C120.414,81.506 120.067,81.032 119.615,80.622C119.164,80.211 118.644,79.895 118.054,79.672C117.465,79.45 116.851,79.339 116.213,79.339C115.575,79.339 114.961,79.45 114.372,79.672C113.782,79.895 113.262,80.211 112.811,80.622C112.36,81.032 112.012,81.506 111.768,82.043C111.523,82.579 111.401,83.138 111.401,83.719C111.401,84.3 111.523,84.858 111.768,85.395C112.012,85.931 112.36,86.405 112.811,86.816C113.262,87.226 113.782,87.543 114.372,87.765C114.961,87.987 115.575,88.098 116.213,88.098C116.851,88.098 117.465,87.987 118.054,87.765C118.644,87.543 119.164,87.226 119.615,86.816C120.067,86.405 120.414,85.931 120.658,85.395C120.903,84.858 121.025,84.3 121.025,83.719Z" transform="rotate(-180 116.213 83.719)" fill="#145DA0"/>
<path d="M121.025,57.42C121.025,56.839 120.903,56.28 120.658,55.744C120.414,55.207 120.067,54.734 119.615,54.323C119.164,53.912 118.644,53.596 118.054,53.374C117.465,53.151 116.851,53.04 116.213,53.04C115.575,53.04 114.961,53.151 114.372,53.374C113.782,53.596 113.262,53.912 112.811,54.323C112.36,54.734 112.012,55.207 111.768,55.744C111.523,56.28 111.401,56.839 111.401,57.42C111.401,58.001 111.523,58.559 111.768,59.096C112.012,59.633 112.36,60.106 112.811,60.517C113.262,60.928 113.782,61.244 114.372,61.466C114.961,61.689 115.575,61.8 116.213,61.8C116.851,61.8 117.465,61.689 118.054,61.466C118.644,61.244 119.164,60.928 119.615,60.517C120.067,60.106 120.414,59.633 120.658,59.096C120.903,58.559 121.025,58.001 121.025,57.42Z" transform="rotate(-180 116.213 57.42)" fill="#145DA0"/>
<path d="M121.025,31.122C121.025,30.541 120.903,29.982 120.658,29.446C120.414,28.909 120.067,28.436 119.615,28.025C119.164,27.614 118.644,27.298 118.054,27.076C117.465,26.853 116.851,26.742 116.213,26.742C115.575,26.742 114.961,26.853 114.372,27.076C113.782,27.298 113.262,27.614 112.811,28.025C112.36,28.436 112.012,28.909 111.768,29.446C111.523,29.982 111.401,30.541 111.401,31.122C111.401,31.703 111.523,32.262 111.768,32.798C112.012,33.335 112.36,33.808 112.811,34.219C113.262,34.63 113.782,34.946 114.372,35.168C114.961,35.391 115.575,35.502 116.213,35.502C116.851,35.502 117.465,35.391 118.054,35.168C118.644,34.946 119.164,34.63 119.615,34.219C120.067,33.808 120.414,33.335 120.658,32.798C120.903,32.262 121.025,31.703 121.025,31.122Z" transform="rotate(-180 116.213 31.122)" fill="#145DA0"/>
<path d="M121.025,4.824C121.025,4.243 120.903,3.685 120.658,3.148C120.414,2.612 120.067,2.138 119.615,1.727C119.164,1.317 118.644,1 118.054,0.778C117.465,0.555 116.851,0.444 116.213,0.444C115.575,0.444 114.961,0.555 114.372,0.778C113.782,1 113.262,1.317 112.811,1.727C112.36,2.138 112.012,2.612 111.768,3.148C111.523,3.685 111.401,4.243 111.401,4.824C111.401,5.405 111.523,5.964 111.768,6.5C112.012,7.037 112.36,7.51 112.811,7.921C113.262,8.332 113.782,8.648 114.372,8.87C114.961,9.093 115.575,9.204 116.213,9.204C116.851,9.204 117.465,9.093 118.054,8.87C118.644,8.648 119.164,8.332 119.615,7.921C120.067,7.51 120.414,7.037 120.658,6.5C120.903,5.964 121.025,5.405 121.025,4.824Z" transform="rotate(-180 116.213 4.824)" fill="#145DA0"/>
<path d="M153.927,83.719C153.927,83.138 153.805,82.579 153.561,82.043C153.317,81.506 152.969,81.032 152.518,80.622C152.067,80.211 151.546,79.895 150.957,79.672C150.367,79.45 149.754,79.339 149.115,79.339C148.477,79.339 147.863,79.45 147.274,79.672C146.685,79.895 146.164,80.211 145.713,80.622C145.262,81.032 144.914,81.506 144.67,82.043C144.426,82.579 144.304,83.138 144.304,83.719C144.304,84.3 144.426,84.858 144.67,85.395C144.914,85.931 145.262,86.405 145.713,86.816C146.164,87.226 146.685,87.543 147.274,87.765C147.863,87.987 148.477,88.098 149.115,88.098C149.754,88.098 150.367,87.987 150.957,87.765C151.546,87.543 152.067,87.226 152.518,86.816C152.969,86.405 153.317,85.931 153.561,85.395C153.805,84.858 153.927,84.3 153.927,83.719Z" transform="rotate(-180 149.115 83.719)" fill="#145DA0"/>
<path d="M153.927,57.42C153.927,56.839 153.805,56.28 153.561,55.744C153.317,55.207 152.969,54.734 152.518,54.323C152.067,53.912 151.546,53.596 150.957,53.374C150.367,53.151 149.754,53.04 149.115,53.04C148.477,53.04 147.863,53.151 147.274,53.374C146.684,53.596 146.164,53.912 145.713,54.323C145.262,54.734 144.914,55.207 144.67,55.744C144.426,56.28 144.304,56.839 144.304,57.42C144.304,58.001 144.426,58.559 144.67,59.096C144.914,59.633 145.262,60.106 145.713,60.517C146.164,60.927 146.684,61.244 147.274,61.466C147.863,61.689 148.477,61.8 149.115,61.8C149.754,61.8 150.367,61.689 150.957,61.466C151.546,61.244 152.067,60.927 152.518,60.517C152.969,60.106 153.317,59.633 153.561,59.096C153.805,58.559 153.927,58.001 153.927,57.42Z" transform="rotate(-180 149.115 57.42)" fill="#145DA0"/>
<path d="M153.927,31.122C153.927,30.541 153.805,29.982 153.561,29.446C153.317,28.909 152.969,28.436 152.518,28.025C152.067,27.614 151.546,27.298 150.957,27.076C150.367,26.853 149.754,26.742 149.115,26.742C148.477,26.742 147.863,26.853 147.274,27.076C146.684,27.298 146.164,27.614 145.713,28.025C145.262,28.436 144.914,28.909 144.67,29.446C144.426,29.982 144.304,30.541 144.304,31.122C144.304,31.703 144.426,32.262 144.67,32.798C144.914,33.335 145.262,33.808 145.713,34.219C146.164,34.63 146.684,34.946 147.274,35.168C147.863,35.391 148.477,35.502 149.115,35.502C149.754,35.502 150.367,35.391 150.957,35.168C151.546,34.946 152.067,34.63 152.518,34.219C152.969,33.808 153.317,33.335 153.561,32.798C153.805,32.262 153.927,31.703 153.927,31.122Z" transform="rotate(-180 149.115 31.122)" fill="#145DA0"/>
<path d="M153.927,4.824C153.927,4.243 153.805,3.685 153.561,3.148C153.317,2.612 152.969,2.138 152.518,1.727C152.067,1.316 151.546,1 150.957,0.778C150.367,0.555 149.754,0.444 149.115,0.444C148.477,0.444 147.863,0.555 147.274,0.778C146.684,1 146.164,1.316 145.713,1.727C145.262,2.138 144.914,2.612 144.67,3.148C144.426,3.685 144.304,4.243 144.304,4.824C144.304,5.405 144.426,5.964 144.67,6.5C144.914,7.037 145.262,7.51 145.713,7.921C146.164,8.332 146.684,8.648 147.274,8.87C147.863,9.093 148.477,9.204 149.115,9.204C149.754,9.204 150.367,9.093 150.957,8.87C151.546,8.648 152.067,8.332 152.518,7.921C152.969,7.51 153.317,7.037 153.561,6.5C153.805,5.964 153.927,5.405 153.927,4.824Z" transform="rotate(-180 149.115 4.824)" fill="#145DA0"/>
<path d="M22.321,84.067C22.321,83.486 22.198,82.928 21.954,82.391C21.71,81.855 21.362,81.381 20.911,80.97C20.46,80.56 19.94,80.243 19.35,80.021C18.761,79.799 18.147,79.688 17.509,79.688C16.871,79.688 16.257,79.799 15.668,80.021C15.078,80.243 14.558,80.56 14.107,80.97C13.655,81.381 13.308,81.855 13.064,82.391C12.819,82.928 12.697,83.486 12.697,84.067C12.697,84.648 12.819,85.207 13.064,85.743C13.308,86.28 13.655,86.754 14.107,87.164C14.558,87.575 15.078,87.891 15.668,88.114C16.257,88.336 16.871,88.447 17.509,88.447C18.147,88.447 18.761,88.336 19.35,88.114C19.94,87.891 20.46,87.575 20.911,87.164C21.362,86.754 21.71,86.28 21.954,85.743C22.198,85.207 22.321,84.648 22.321,84.067Z" transform="rotate(-180 17.509 84.067)" fill="#145DA0"/>
<path d="M22.321,57.769C22.321,57.189 22.199,56.63 21.954,56.093C21.71,55.557 21.362,55.083 20.911,54.673C20.46,54.262 19.94,53.945 19.35,53.723C18.761,53.501 18.147,53.39 17.509,53.39C16.871,53.39 16.257,53.501 15.668,53.723C15.078,53.945 14.558,54.262 14.107,54.673C13.655,55.083 13.308,55.557 13.064,56.093C12.819,56.63 12.697,57.189 12.697,57.769C12.697,58.35 12.819,58.909 13.064,59.446C13.308,59.982 13.655,60.456 14.107,60.866C14.558,61.277 15.078,61.594 15.668,61.816C16.257,62.038 16.871,62.149 17.509,62.149C18.147,62.149 18.761,62.038 19.35,61.816C19.94,61.594 20.46,61.277 20.911,60.866C21.362,60.456 21.71,59.982 21.954,59.446C22.199,58.909 22.321,58.35 22.321,57.769Z" transform="rotate(-180 17.509 57.769)" fill="#145DA0"/>
<path d="M22.321,31.472C22.321,30.891 22.198,30.332 21.954,29.795C21.71,29.259 21.362,28.785 20.911,28.375C20.46,27.964 19.94,27.647 19.35,27.425C18.761,27.203 18.147,27.092 17.509,27.092C16.871,27.092 16.257,27.203 15.668,27.425C15.078,27.647 14.558,27.964 14.107,28.375C13.655,28.785 13.308,29.259 13.064,29.795C12.819,30.332 12.697,30.891 12.697,31.472C12.697,32.053 12.819,32.611 13.064,33.148C13.308,33.684 13.655,34.158 14.107,34.568C14.558,34.979 15.078,35.296 15.668,35.518C16.257,35.74 16.871,35.851 17.509,35.851C18.147,35.851 18.761,35.74 19.35,35.518C19.94,35.296 20.46,34.979 20.911,34.568C21.362,34.158 21.71,33.684 21.954,33.148C22.198,32.611 22.321,32.053 22.321,31.472Z" transform="rotate(-180 17.509 31.472)" fill="#145DA0"/>
<path d="M22.321,5.173C22.321,4.592 22.198,4.033 21.954,3.497C21.71,2.96 21.362,2.486 20.911,2.076C20.46,1.665 19.94,1.349 19.35,1.127C18.761,0.904 18.147,0.793 17.509,0.793C16.871,0.793 16.257,0.904 15.668,1.127C15.078,1.349 14.558,1.665 14.107,2.076C13.655,2.486 13.308,2.96 13.064,3.497C12.819,4.033 12.697,4.592 12.697,5.173C12.697,5.754 12.819,6.312 13.064,6.849C13.308,7.386 13.655,7.859 14.107,8.27C14.558,8.68 15.078,8.997 15.668,9.219C16.257,9.441 16.871,9.553 17.509,9.553C18.147,9.553 18.761,9.441 19.35,9.219C19.94,8.997 20.46,8.68 20.911,8.27C21.362,7.859 21.71,7.386 21.954,6.849C22.198,6.312 22.321,5.754 22.321,5.173Z" transform="rotate(-180 17.509 5.173)" fill="#145DA0"/>
</svg>
