<svg width="154" height="90" viewBox="0 0 154 90" fill="none" xmlns="http://www.w3.org/2000/svg" xmlns:xlink="http://www.w3.org/1999/xlink">
<path d="M55.221,84.067C55.221,83.486 55.099,82.928 54.855,82.391C54.611,81.855 54.263,81.381 53.812,80.97C53.361,80.56 52.84,80.243 52.251,80.021C51.662,79.799 51.048,79.688 50.41,79.688C49.772,79.688 49.158,79.799 48.568,80.021C47.979,80.243 47.459,80.56 47.008,80.97C46.556,81.381 46.209,81.855 45.965,82.391C45.72,82.928 45.598,83.486 45.598,84.067C45.598,84.648 45.72,85.207 45.965,85.743C46.209,86.28 46.556,86.754 47.008,87.164C47.459,87.575 47.979,87.891 48.568,88.114C49.158,88.336 49.772,88.447 50.41,88.447C51.048,88.447 51.662,88.336 52.251,88.114C52.84,87.891 53.361,87.575 53.812,87.164C54.263,86.754 54.611,86.28 54.855,85.743C55.099,85.207 55.221,84.648 55.221,84.067Z" transform="rotate(-180 50.41 84.067)" fill="#145DA0"/>
<path d="M55.221,57.768C55.221,57.188 55.099,56.629 54.855,56.092C54.611,55.556 54.263,55.082 53.812,54.672C53.361,54.261 52.84,53.944 52.251,53.722C51.662,53.5 51.048,53.389 50.41,53.389C49.772,53.389 49.158,53.5 48.568,53.722C47.979,53.944 47.459,54.261 47.008,54.672C46.556,55.082 46.209,55.556 45.965,56.092C45.72,56.629 45.598,57.188 45.598,57.768C45.598,58.349 45.72,58.908 45.965,59.445C46.209,59.981 46.556,60.455 47.008,60.865C47.459,61.276 47.979,61.593 48.568,61.815C49.158,62.037 49.772,62.148 50.41,62.148C51.048,62.148 51.662,62.037 52.251,61.815C52.84,61.593 53.361,61.276 53.812,60.865C54.263,60.455 54.611,59.981 54.855,59.445C55.099,58.908 55.221,58.349 55.221,57.768Z" transform="rotate(-180 50.41 57.768)" fill="#145DA0"/>
<path d="M55.221,31.472C55.221,30.891 55.099,30.332 54.855,29.795C54.611,29.259 54.263,28.785 53.812,28.375C53.361,27.964 52.84,27.647 52.251,27.425C51.662,27.203 51.048,27.092 50.41,27.092C49.772,27.092 49.158,27.203 48.568,27.425C47.979,27.647 47.459,27.964 47.008,28.375C46.556,28.785 46.209,29.259 45.965,29.795C45.72,30.332 45.598,30.891 45.598,31.472C45.598,32.053 45.72,32.611 45.965,33.148C46.209,33.684 46.556,34.158 47.008,34.568C47.459,34.979 47.979,35.296 48.568,35.518C49.158,35.74 49.772,35.851 50.41,35.851C51.048,35.851 51.662,35.74 52.251,35.518C52.84,35.296 53.361,34.979 53.812,34.568C54.263,34.158 54.611,33.684 54.855,33.148C55.099,32.611 55.221,32.053 55.221,31.472Z" transform="rotate(-180 50.41 31.472)" fill="#145DA0"/>
<path d="M55.221,5.173C55.221,4.592 55.099,4.033 54.855,3.497C54.611,2.96 54.263,2.486 53.812,2.076C53.361,1.665 52.84,1.349 52.251,1.127C51.662,0.904 51.048,0.793 50.41,0.793C49.772,0.793 49.158,0.904 48.568,1.127C47.979,1.349 47.459,1.665 47.008,2.076C46.556,2.486 46.209,2.96 45.965,3.497C45.72,4.033 45.598,4.592 45.598,5.173C45.598,5.754 45.72,6.312 45.965,6.849C46.209,7.386 46.556,7.859 47.008,8.27C47.459,8.68 47.979,8.997 48.568,9.219C49.158,9.441 49.772,9.553 50.41,9.553C51.048,9.553 51.662,9.441 52.251,9.219C52.84,8.997 53.361,8.68 53.812,8.27C54.263,7.859 54.611,7.386 54.855,6.849C55.099,6.312 55.221,5.754 55.221,5.173Z" transform="rotate(-180 50.41 5.173)" fill="#145DA0"/>
<path d="M88.123,83.719C88.123,83.138 88.001,82.579 87.756,82.043C87.512,81.506 87.165,81.032 86.713,80.622C86.262,80.211 85.742,79.895 85.153,79.672C84.563,79.45 83.949,79.339 83.311,79.339C82.673,79.339 82.059,79.45 81.47,79.672C80.88,79.895 80.36,80.211 79.909,80.622C79.458,81.032 79.11,81.506 78.866,82.043C78.622,82.579 78.5,83.138 78.5,83.719C78.5,84.3 78.622,84.858 78.866,85.395C79.11,85.931 79.458,86.405 79.909,86.816C80.36,87.226 80.88,87.543 81.47,87.765C82.059,87.987 82.673,88.098 83.311,88.098C83.949,88.098 84.563,87.987 85.153,87.765C85.742,87.543 86.262,87.226 86.713,86.816C87.165,86.405 87.512,85.931 87.756,85.395C88.001,84.858 88.123,84.3 88.123,83.719Z" transform="rotate(-180 83.311 83.719)" fill="#145DA0"/>
<path d="M88.123,57.42C88.123,56.839 88.001,56.28 87.756,55.744C87.512,55.207 87.165,54.734 86.713,54.323C86.262,53.912 85.742,53.596 85.153,53.374C84.563,53.151 83.949,53.04 83.311,53.04C82.673,53.04 82.059,53.151 81.47,53.374C80.88,53.596 80.36,53.912 79.909,54.323C79.458,54.734 79.11,55.207 78.866,55.744C78.622,56.28 78.5,56.839 78.5,57.42C78.5,58.001 78.622,58.559 78.866,59.096C79.11,59.633 79.458,60.106 79.909,60.517C80.36,60.927 80.88,61.244 81.47,61.466C82.059,61.689 82.673,61.8 83.311,61.8C83.949,61.8 84.563,61.689 85.153,61.466C85.742,61.244 86.262,60.927 86.713,60.517C87.165,60.106 87.512,59.633 87.756,59.096C88.001,58.559 88.123,58.001 88.123,57.42Z" transform="rotate(-180 83.311 57.42)" fill="#145DA0"/>
<path d="M88.123,31.122C88.123,30.541 88.001,29.982 87.756,29.446C87.512,28.909 87.165,28.436 86.713,28.025C86.262,27.614 85.742,27.298 85.153,27.076C84.563,26.853 83.949,26.742 83.311,26.742C82.673,26.742 82.059,26.853 81.47,27.076C80.88,27.298 80.36,27.614 79.909,28.025C79.458,28.436 79.11,28.909 78.866,29.446C78.622,29.982 78.5,30.541 78.5,31.122C78.5,31.703 78.622,32.262 78.866,32.798C79.11,33.335 79.458,33.808 79.909,34.219C80.36,34.63 80.88,34.946 81.47,35.168C82.059,35.391 82.673,35.502 83.311,35.502C83.949,35.502 84.563,35.391 85.153,35.168C85.742,34.946 86.262,34.63 86.713,34.219C87.165,33.808 87.512,33.335 87.756,32.798C88.001,32.262 88.123,31.703 88.123,31.122Z" transform="rotate(-180 83.311 31.122)" fill="#145DA0"/>
<path d="M88.123,4.823C88.123,4.242 88.001,3.684 87.756,3.147C87.512,2.611 87.165,2.137 86.713,1.726C86.262,1.316 85.742,0.999 85.153,0.777C84.563,0.555 83.949,0.443 83.311,0.443C82.673,0.443 82.059,0.555 81.47,0.777C80.88,0.999 80.36,1.316 79.909,1.726C79.458,2.137 79.11,2.611 78.866,3.147C78.622,3.684 78.5,4.242 78.5,4.823C78.5,5.404 78.622,5.963 78.866,6.499C79.11,7.036 79.458,7.51 79.909,7.92C80.36,8.331 80.88,8.647 81.47,8.869C82.059,9.092 82.673,9.203 83.311,9.203C83.949,9.203 84.563,9.092 85.153,8.869C85.742,8.647 86.262,8.331 86.713,7.92C87.165,7.51 87.512,7.036 87.756,6.499C88.001,5.963 88.123,5.404 88.123,4.823Z" transform="rotate(-180 83.311 4.823)" fill="#145DA0"/>
<path d="M121.024,83.719C121.024,83.138 120.902,82.579 120.658,82.043C120.414,81.506 120.066,81.032 119.615,80.622C119.164,80.211 118.643,79.895 118.054,79.672C117.464,79.45 116.851,79.339 116.213,79.339C115.574,79.339 114.961,79.45 114.371,79.672C113.782,79.895 113.261,80.211 112.81,80.622C112.359,81.032 112.011,81.506 111.767,82.043C111.523,82.579 111.401,83.138 111.401,83.719C111.401,84.3 111.523,84.858 111.767,85.395C112.011,85.931 112.359,86.405 112.81,86.816C113.261,87.226 113.782,87.543 114.371,87.765C114.961,87.987 115.574,88.098 116.213,88.098C116.851,88.098 117.464,87.987 118.054,87.765C118.643,87.543 119.164,87.226 119.615,86.816C120.066,86.405 120.414,85.931 120.658,85.395C120.902,84.858 121.024,84.3 121.024,83.719Z" transform="rotate(-180 116.213 83.719)" fill="#145DA0"/>
<path d="M121.024,57.42C121.024,56.839 120.902,56.28 120.658,55.744C120.414,55.207 120.066,54.734 119.615,54.323C119.164,53.912 118.643,53.596 118.054,53.374C117.464,53.151 116.851,53.04 116.213,53.04C115.574,53.04 114.961,53.151 114.371,53.374C113.782,53.596 113.261,53.912 112.81,54.323C112.359,54.734 112.011,55.207 111.767,55.744C111.523,56.28 111.401,56.839 111.401,57.42C111.401,58.001 111.523,58.559 111.767,59.096C112.011,59.633 112.359,60.106 112.81,60.517C113.261,60.927 113.782,61.244 114.371,61.466C114.961,61.689 115.574,61.8 116.213,61.8C116.851,61.8 117.464,61.689 118.054,61.466C118.643,61.244 119.164,60.927 119.615,60.517C120.066,60.106 120.414,59.633 120.658,59.096C120.902,58.559 121.024,58.001 121.024,57.42Z" transform="rotate(-180 116.213 57.42)" fill="#145DA0"/>
<path d="M121.024,31.122C121.024,30.541 120.902,29.982 120.658,29.446C120.414,28.909 120.066,28.436 119.615,28.025C119.164,27.614 118.643,27.298 118.054,27.076C117.464,26.853 116.851,26.742 116.213,26.742C115.574,26.742 114.961,26.853 114.371,27.076C113.782,27.298 113.261,27.614 112.81,28.025C112.359,28.436 112.011,28.909 111.767,29.446C111.523,29.982 111.401,30.541 111.401,31.122C111.401,31.703 111.523,32.262 111.767,32.798C112.011,33.335 112.359,33.808 112.81,34.219C113.261,34.63 113.782,34.946 114.371,35.168C114.961,35.391 115.574,35.502 116.213,35.502C116.851,35.502 117.464,35.391 118.054,35.168C118.643,34.946 119.164,34.63 119.615,34.219C120.066,33.808 120.414,33.335 120.658,32.798C120.902,32.262 121.024,31.703 121.024,31.122Z" transform="rotate(-180 116.213 31.122)" fill="#145DA0"/>
<path d="M121.024,4.823C121.024,4.242 120.902,3.684 120.658,3.147C120.414,2.611 120.066,2.137 119.615,1.726C119.164,1.316 118.643,0.999 118.054,0.777C117.464,0.554 116.851,0.443 116.213,0.443C115.574,0.443 114.961,0.554 114.371,0.777C113.782,0.999 113.261,1.316 112.81,1.726C112.359,2.137 112.011,2.611 111.767,3.147C111.523,3.684 111.401,4.242 111.401,4.823C111.401,5.404 111.523,5.963 111.767,6.499C112.011,7.036 112.359,7.51 112.81,7.92C113.261,8.331 113.782,8.647 114.371,8.869C114.961,9.092 115.574,9.203 116.213,9.203C116.851,9.203 117.464,9.092 118.054,8.869C118.643,8.647 119.164,8.331 119.615,7.92C120.066,7.51 120.414,7.036 120.658,6.499C120.902,5.963 121.024,5.404 121.024,4.823Z" transform="rotate(-180 116.213 4.823)" fill="#145DA0"/>
<path d="M153.926,83.719C153.926,83.138 153.804,82.579 153.56,82.043C153.316,81.506 152.968,81.032 152.517,80.622C152.066,80.211 151.546,79.895 150.956,79.672C150.367,79.45 149.753,79.339 149.115,79.339C148.477,79.339 147.863,79.45 147.273,79.672C146.684,79.895 146.164,80.211 145.713,80.622C145.261,81.032 144.914,81.506 144.67,82.043C144.425,82.579 144.303,83.138 144.303,83.719C144.303,84.3 144.425,84.858 144.67,85.395C144.914,85.931 145.261,86.405 145.713,86.816C146.164,87.226 146.684,87.543 147.273,87.765C147.863,87.987 148.477,88.098 149.115,88.098C149.753,88.098 150.367,87.987 150.956,87.765C151.546,87.543 152.066,87.226 152.517,86.816C152.968,86.405 153.316,85.931 153.56,85.395C153.804,84.858 153.926,84.3 153.926,83.719Z" transform="rotate(-180 149.115 83.719)" fill="#145DA0"/>
<path d="M153.926,57.42C153.926,56.839 153.804,56.28 153.56,55.744C153.316,55.207 152.968,54.734 152.517,54.323C152.066,53.912 151.546,53.596 150.956,53.374C150.367,53.151 149.753,53.04 149.115,53.04C148.477,53.04 147.863,53.151 147.273,53.374C146.684,53.596 146.164,53.912 145.713,54.323C145.261,54.734 144.914,55.207 144.67,55.744C144.425,56.28 144.303,56.839 144.303,57.42C144.303,58.001 144.425,58.559 144.67,59.096C144.914,59.633 145.261,60.106 145.713,60.517C146.164,60.927 146.684,61.244 147.273,61.466C147.863,61.689 148.477,61.8 149.115,61.8C149.753,61.8 150.367,61.689 150.956,61.466C151.546,61.244 152.066,60.927 152.517,60.517C152.968,60.106 153.316,59.633 153.56,59.096C153.804,58.559 153.926,58.001 153.926,57.42Z" transform="rotate(-180 149.115 57.42)" fill="#145DA0"/>
<path d="M153.926,31.122C153.926,30.541 153.804,29.982 153.56,29.446C153.316,28.909 152.968,28.436 152.517,28.025C152.066,27.614 151.546,27.298 150.956,27.076C150.367,26.853 149.753,26.742 149.115,26.742C148.477,26.742 147.863,26.853 147.273,27.076C146.684,27.298 146.164,27.614 145.713,28.025C145.261,28.436 144.914,28.909 144.67,29.446C144.425,29.982 144.303,30.541 144.303,31.122C144.303,31.703 144.425,32.262 144.67,32.798C144.914,33.335 145.261,33.808 145.713,34.219C146.164,34.63 146.684,34.946 147.273,35.168C147.863,35.391 148.477,35.502 149.115,35.502C149.753,35.502 150.367,35.391 150.956,35.168C151.546,34.946 152.066,34.63 152.517,34.219C152.968,33.808 153.316,33.335 153.56,32.798C153.804,32.262 153.926,31.703 153.926,31.122Z" transform="rotate(-180 149.115 31.122)" fill="#145DA0"/>
<path d="M153.926,4.823C153.926,4.242 153.804,3.684 153.56,3.147C153.316,2.611 152.968,2.137 152.517,1.726C152.066,1.316 151.546,0.999 150.956,0.777C150.367,0.554 149.753,0.443 149.115,0.443C148.477,0.443 147.863,0.554 147.273,0.777C146.684,0.999 146.164,1.316 145.713,1.726C145.261,2.137 144.914,2.611 144.67,3.147C144.425,3.684 144.303,4.242 144.303,4.823C144.303,5.404 144.425,5.963 144.67,6.499C144.914,7.036 145.261,7.509 145.713,7.92C146.164,8.331 146.684,8.647 147.273,8.869C147.863,9.092 148.477,9.203 149.115,9.203C149.753,9.203 150.367,9.092 150.956,8.869C151.546,8.647 152.066,8.331 152.517,7.92C152.968,7.509 153.316,7.036 153.56,6.499C153.804,5.963 153.926,5.404 153.926,4.823Z" transform="rotate(-180 149.115 4.823)" fill="#145DA0"/>
<path d="M22.32,84.067C22.32,83.486 22.198,82.928 21.953,82.391C21.709,81.855 21.361,81.381 20.91,80.97C20.459,80.56 19.939,80.243 19.349,80.021C18.76,79.799 18.146,79.688 17.508,79.688C16.87,79.688 16.256,79.799 15.667,80.021C15.077,80.243 14.557,80.56 14.106,80.97C13.654,81.381 13.307,81.855 13.063,82.391C12.818,82.928 12.696,83.486 12.696,84.067C12.696,84.648 12.818,85.207 13.063,85.743C13.307,86.28 13.654,86.754 14.106,87.164C14.557,87.575 15.077,87.891 15.667,88.114C16.256,88.336 16.87,88.447 17.508,88.447C18.146,88.447 18.76,88.336 19.349,88.114C19.939,87.891 20.459,87.575 20.91,87.164C21.361,86.754 21.709,86.28 21.953,85.743C22.198,85.207 22.32,84.648 22.32,84.067Z" transform="rotate(-180 17.508 84.067)" fill="#145DA0"/>
<path d="M22.32,57.768C22.32,57.188 22.198,56.629 21.953,56.092C21.709,55.556 21.361,55.082 20.91,54.672C20.459,54.261 19.939,53.944 19.349,53.722C18.76,53.5 18.146,53.389 17.508,53.389C16.87,53.389 16.256,53.5 15.667,53.722C15.077,53.944 14.557,54.261 14.106,54.672C13.654,55.082 13.307,55.556 13.063,56.092C12.818,56.629 12.696,57.188 12.696,57.768C12.696,58.349 12.818,58.908 13.063,59.445C13.307,59.981 13.654,60.455 14.106,60.865C14.557,61.276 15.077,61.593 15.667,61.815C16.256,62.037 16.87,62.148 17.508,62.148C18.146,62.148 18.76,62.037 19.349,61.815C19.939,61.593 20.459,61.276 20.91,60.865C21.361,60.455 21.709,59.981 21.953,59.445C22.198,58.908 22.32,58.349 22.32,57.768Z" transform="rotate(-180 17.508 57.768)" fill="#145DA0"/>
<path d="M22.32,31.472C22.32,30.891 22.198,30.332 21.953,29.795C21.709,29.259 21.361,28.785 20.91,28.375C20.459,27.964 19.939,27.647 19.349,27.425C18.76,27.203 18.146,27.092 17.508,27.092C16.87,27.092 16.256,27.203 15.667,27.425C15.077,27.647 14.557,27.964 14.106,28.375C13.654,28.785 13.307,29.259 13.063,29.795C12.818,30.332 12.696,30.891 12.696,31.472C12.696,32.052 12.818,32.611 13.063,33.148C13.307,33.684 13.654,34.158 14.106,34.568C14.557,34.979 15.077,35.296 15.667,35.518C16.256,35.74 16.87,35.851 17.508,35.851C18.146,35.851 18.76,35.74 19.349,35.518C19.939,35.296 20.459,34.979 20.91,34.568C21.361,34.158 21.709,33.684 21.953,33.148C22.198,32.611 22.32,32.052 22.32,31.472Z" transform="rotate(-180 17.508 31.472)" fill="#145DA0"/>
<path d="M22.32,5.173C22.32,4.592 22.198,4.033 21.953,3.497C21.709,2.96 21.361,2.486 20.91,2.076C20.459,1.665 19.939,1.349 19.349,1.127C18.76,0.904 18.146,0.793 17.508,0.793C16.87,0.793 16.256,0.904 15.667,1.127C15.077,1.349 14.557,1.665 14.106,2.076C13.654,2.486 13.307,2.96 13.063,3.497C12.818,4.033 12.696,4.592 12.696,5.173C12.696,5.754 12.818,6.312 13.063,6.849C13.307,7.386 13.654,7.859 14.106,8.27C14.557,8.68 15.077,8.997 15.667,9.219C16.256,9.441 16.87,9.553 17.508,9.553C18.146,9.553 18.76,9.441 19.349,9.219C19.939,8.997 20.459,8.68 20.91,8.27C21.361,7.859 21.709,7.386 21.953,6.849C22.198,6.312 22.32,5.754 22.32,5.173Z" transform="rotate(-180 17.508 5.173)" fill="#145DA0"/>
</svg>
