<svg width="942" height="1176" viewBox="0 0 942 1176" fill="none" xmlns="http://www.w3.org/2000/svg" xmlns:xlink="http://www.w3.org/1999/xlink">
<path d="M471.462,970.691C260.813,970.691 90.196,799.215 90.196,587.503C90.196,375.79 260.813,204.313 471.462,204.313C682.112,204.313 852.73,375.79 852.73,587.503C852.73,799.215 682.112,970.691 471.462,970.691ZM471.462,280.95C302.942,280.95 166.449,418.133 166.449,587.503C166.449,756.873 302.942,894.053 471.462,894.053C639.982,894.053 776.476,756.873 776.476,587.503C776.476,418.133 639.982,280.95 471.462,280.95Z" transform="rotate(236.162 471.463 587.502)" fill="#6DA7CC"/>
<path d="M135.149,543.064L133.724,545.526C246.847,625.843 314.38,760.936 314.38,907.108C314.38,985.886 294.433,1063.128 257.105,1130.212L259.67,1131.75C297.568,1064.05 317.514,986.502 317.514,907.108C317.229,760.014 249.127,623.997 135.149,543.064Z" transform="rotate(234.437 225.619 837.407)" fill="#6DA7CC"/>
</svg>
