<svg width="840" height="1198" viewBox="0 0 840 1198" fill="none" xmlns="http://www.w3.org/2000/svg" xmlns:xlink="http://www.w3.org/1999/xlink">
<mask id="mask_0_109_439" style="mask-type:alpha" maskUnits="userSpaceOnUse" x="0.770508" y="0.694021" width="418.810553" height="598.36337">
</mask>
<g mask="url(#mask_0_109_439)">
<path d="M417.973,1003.676C215.496,1003.676 51.499,827.79 51.499,610.634C51.499,393.478 215.496,217.592 417.973,217.592C620.451,217.592 784.447,393.478 784.447,610.634C784.447,827.79 620.451,1003.676 417.973,1003.676ZM417.973,296.2C255.991,296.2 124.793,436.91 124.793,610.634C124.793,784.358 255.991,925.068 417.973,925.068C579.955,925.068 711.153,784.358 711.153,610.634C711.153,436.91 579.955,296.2 417.973,296.2Z" transform="rotate(74.224 417.973 610.634)" fill="#6DA7CC"/>
</g>
</svg>
