<svg width="14" height="10" viewBox="0 0 14 10" fill="none" xmlns="http://www.w3.org/2000/svg" xmlns:xlink="http://www.w3.org/1999/xlink">
<path d="M13.844,4.725C13.844,4.052 13.681,3.405 13.355,2.784C13.028,2.163 12.564,1.615 11.961,1.14C11.358,0.664 10.662,0.298 9.875,0.041C9.087,-0.217 8.266,-0.345 7.414,-0.345C6.561,-0.345 5.74,-0.217 4.952,0.041C4.165,0.298 3.469,0.664 2.866,1.14C2.263,1.615 1.799,2.163 1.472,2.784C1.146,3.405 0.983,4.052 0.983,4.725C0.983,5.397 1.146,6.044 1.472,6.665C1.799,7.286 2.263,7.834 2.866,8.309C3.469,8.785 4.165,9.151 4.952,9.408C5.74,9.666 6.561,9.794 7.414,9.794C8.266,9.794 9.087,9.666 9.875,9.408C10.662,9.151 11.358,8.785 11.961,8.309C12.564,7.834 13.028,7.286 13.355,6.665C13.681,6.044 13.844,5.397 13.844,4.725Z" transform="rotate(-180 7.414 4.725)" fill="#145DA0"/>
</svg>
