<svg width="14" height="12" viewBox="0 0 14 12" fill="none" xmlns="http://www.w3.org/2000/svg" xmlns:xlink="http://www.w3.org/1999/xlink">
<path d="M13.673,5.282C13.673,4.61 13.51,3.963 13.184,3.342C12.857,2.721 12.393,2.173 11.79,1.697C11.187,1.222 10.491,0.855 9.704,0.598C8.916,0.341 8.096,0.212 7.243,0.212C6.39,0.212 5.569,0.341 4.782,0.598C3.994,0.855 3.298,1.222 2.696,1.697C2.092,2.173 1.628,2.721 1.302,3.342C0.975,3.963 0.812,4.61 0.812,5.282C0.812,5.955 0.975,6.601 1.302,7.222C1.628,7.844 2.092,8.392 2.696,8.867C3.298,9.343 3.994,9.709 4.782,9.966C5.569,10.224 6.39,10.352 7.243,10.352C8.096,10.352 8.916,10.224 9.704,9.966C10.491,9.709 11.187,9.343 11.79,8.867C12.393,8.392 12.857,7.844 13.184,7.222C13.51,6.601 13.673,5.955 13.673,5.282Z" transform="rotate(-180 7.243 5.282)" fill="#145DA0"/>
</svg>
