<svg width="14" height="10" viewBox="0 0 14 10" fill="none" xmlns="http://www.w3.org/2000/svg" xmlns:xlink="http://www.w3.org/1999/xlink">
<path d="M13.76,4.43C13.76,3.757 13.597,3.111 13.271,2.489C12.944,1.869 12.48,1.32 11.877,0.845C11.274,0.369 10.578,0.003 9.791,-0.254C9.003,-0.512 8.182,-0.64 7.33,-0.64C6.477,-0.64 5.656,-0.512 4.868,-0.254C4.081,0.003 3.385,0.369 2.782,0.845C2.179,1.32 1.715,1.869 1.388,2.489C1.062,3.111 0.899,3.757 0.899,4.43C0.899,5.102 1.062,5.749 1.388,6.37C1.715,6.991 2.179,7.539 2.782,8.015C3.385,8.49 4.081,8.856 4.868,9.114C5.656,9.371 6.477,9.5 7.33,9.5C8.182,9.5 9.003,9.371 9.791,9.114C10.578,8.856 11.274,8.49 11.877,8.015C12.48,7.539 12.944,6.991 13.271,6.37C13.597,5.749 13.76,5.102 13.76,4.43Z" transform="rotate(-180 7.33 4.43)" fill="#145DA0"/>
</svg>
