<svg width="496" height="90" viewBox="0 0 496 90" fill="none" xmlns="http://www.w3.org/2000/svg" xmlns:xlink="http://www.w3.org/1999/xlink">
<path d="M-4.568,-3.195L-0.848,-3.195L495.708,-3.195L499.428,-3.195L499.428,0.525L499.428,88.947L499.428,92.668L495.708,92.668L-0.848,92.668L-4.568,92.668L-4.568,88.947L-4.568,0.525" fill="#FFFFFF"/>
<path d="M495.708,0.525L-0.848,0.525L-0.848,88.947L495.708,88.947L495.708,0.525M-4.568,-3.195L-0.848,-3.195L495.708,-3.195L499.428,-3.195L499.428,0.525L499.428,88.947L499.428,92.668L495.708,92.668L-0.848,92.668L-4.568,92.668L-4.568,88.947L-4.568,0.525" fill-rule="evenodd" fill="#000000"/>
</svg>
