<svg width="14" height="12" viewBox="0 0 14 12" fill="none" xmlns="http://www.w3.org/2000/svg" xmlns:xlink="http://www.w3.org/1999/xlink">
<path d="M13.587,5.191C13.587,4.519 13.424,3.872 13.098,3.251C12.772,2.63 12.307,2.082 11.704,1.607C11.101,1.131 10.405,0.765 9.618,0.508C8.83,0.25 8.01,0.121 7.157,0.121C6.304,0.121 5.484,0.25 4.696,0.508C3.908,0.765 3.212,1.131 2.61,1.607C2.006,2.082 1.542,2.63 1.216,3.251C0.889,3.872 0.726,4.519 0.726,5.191C0.726,5.864 0.889,6.51 1.216,7.132C1.542,7.753 2.006,8.301 2.61,8.776C3.212,9.252 3.908,9.618 4.696,9.875C5.484,10.133 6.304,10.261 7.157,10.261C8.01,10.261 8.83,10.133 9.618,9.875C10.405,9.618 11.101,9.252 11.704,8.776C12.307,8.301 12.772,7.753 13.098,7.132C13.424,6.51 13.587,5.864 13.587,5.191Z" transform="rotate(-180 7.157 5.191)" fill="#145DA0"/>
</svg>
