<svg width="14" height="12" viewBox="0 0 14 12" fill="none" xmlns="http://www.w3.org/2000/svg" xmlns:xlink="http://www.w3.org/1999/xlink">
<path d="M13.844,5.282C13.844,4.61 13.681,3.963 13.355,3.342C13.028,2.721 12.564,2.173 11.961,1.697C11.358,1.222 10.662,0.855 9.875,0.598C9.087,0.341 8.266,0.212 7.414,0.212C6.561,0.212 5.74,0.341 4.952,0.598C4.165,0.855 3.469,1.222 2.866,1.697C2.263,2.173 1.799,2.721 1.472,3.342C1.146,3.963 0.983,4.61 0.983,5.282C0.983,5.955 1.146,6.601 1.472,7.222C1.799,7.844 2.263,8.392 2.866,8.867C3.469,9.343 4.165,9.709 4.952,9.966C5.74,10.224 6.561,10.352 7.414,10.352C8.266,10.352 9.087,10.224 9.875,9.966C10.662,9.709 11.358,9.343 11.961,8.867C12.564,8.392 13.028,7.844 13.355,7.222C13.681,6.601 13.844,5.955 13.844,5.282Z" transform="rotate(-180 7.414 5.282)" fill="#145DA0"/>
</svg>
