<svg width="498" height="90" viewBox="0 0 498 90" fill="none" xmlns="http://www.w3.org/2000/svg" xmlns:xlink="http://www.w3.org/1999/xlink">
<path d="M-4.069,-3.195L-0.349,-3.195L496.207,-3.195L499.927,-3.195L499.927,0.525L499.927,88.947L499.927,92.668L496.207,92.668L-0.349,92.668L-4.069,92.668L-4.069,88.947L-4.069,0.525" fill="#FFFFFF"/>
<path d="M496.207,0.525L-0.349,0.525L-0.349,88.947L496.207,88.947L496.207,0.525M-4.069,-3.195L-0.349,-3.195L496.207,-3.195L499.927,-3.195L499.927,0.525L499.927,88.947L499.927,92.668L496.207,92.668L-0.349,92.668L-4.069,92.668L-4.069,88.947L-4.069,0.525" fill-rule="evenodd" fill="#000000"/>
</svg>
