<svg width="14" height="12" viewBox="0 0 14 12" fill="none" xmlns="http://www.w3.org/2000/svg" xmlns:xlink="http://www.w3.org/1999/xlink">
<path d="M13.587,6.044C13.587,5.371 13.424,4.725 13.098,4.104C12.772,3.483 12.307,2.934 11.704,2.459C11.101,1.984 10.405,1.617 9.618,1.36C8.83,1.103 8.01,0.974 7.157,0.974C6.304,0.974 5.484,1.103 4.696,1.36C3.908,1.617 3.212,1.984 2.61,2.459C2.006,2.934 1.542,3.483 1.216,4.104C0.889,4.725 0.726,5.371 0.726,6.044C0.726,6.716 0.889,7.363 1.216,7.984C1.542,8.605 2.006,9.154 2.61,9.629C3.212,10.104 3.908,10.471 4.696,10.728C5.484,10.985 6.304,11.114 7.157,11.114C8.01,11.114 8.83,10.985 9.618,10.728C10.405,10.471 11.101,10.104 11.704,9.629C12.307,9.154 12.772,8.605 13.098,7.984C13.424,7.363 13.587,6.716 13.587,6.044Z" transform="rotate(-180 7.157 6.044)" fill="#145DA0"/>
</svg>
