<svg width="14" height="12" viewBox="0 0 14 12" fill="none" xmlns="http://www.w3.org/2000/svg" xmlns:xlink="http://www.w3.org/1999/xlink">
<path d="M13.416,6.044C13.416,5.371 13.253,4.725 12.927,4.104C12.601,3.483 12.136,2.934 11.533,2.459C10.93,1.984 10.234,1.617 9.447,1.36C8.659,1.103 7.839,0.974 6.986,0.974C6.133,0.974 5.313,1.103 4.525,1.36C3.737,1.617 3.041,1.984 2.439,2.459C1.836,2.934 1.371,3.483 1.045,4.104C0.718,4.725 0.555,5.371 0.555,6.044C0.555,6.716 0.718,7.363 1.045,7.984C1.371,8.605 1.836,9.154 2.439,9.629C3.041,10.104 3.737,10.471 4.525,10.728C5.313,10.985 6.133,11.114 6.986,11.114C7.839,11.114 8.659,10.985 9.447,10.728C10.234,10.471 10.93,10.104 11.533,9.629C12.136,9.154 12.601,8.605 12.927,7.984C13.253,7.363 13.416,6.716 13.416,6.044Z" transform="rotate(-180 6.986 6.044)" fill="#145DA0"/>
</svg>
