<svg width="14" height="10" viewBox="0 0 14 10" fill="none" xmlns="http://www.w3.org/2000/svg" xmlns:xlink="http://www.w3.org/1999/xlink">
<path d="M13.416,4.895C13.416,4.223 13.253,3.576 12.927,2.955C12.601,2.334 12.136,1.786 11.533,1.311C10.93,0.835 10.234,0.469 9.447,0.212C8.659,-0.046 7.839,-0.174 6.986,-0.174C6.133,-0.174 5.313,-0.046 4.525,0.212C3.737,0.469 3.041,0.835 2.439,1.311C1.836,1.786 1.371,2.334 1.045,2.955C0.718,3.576 0.555,4.223 0.555,4.895C0.555,5.568 0.718,6.215 1.045,6.836C1.371,7.457 1.836,8.005 2.439,8.48C3.041,8.956 3.737,9.322 4.525,9.579C5.313,9.837 6.133,9.965 6.986,9.965C7.839,9.965 8.659,9.837 9.447,9.579C10.234,9.322 10.93,8.956 11.533,8.48C12.136,8.005 12.601,7.457 12.927,6.836C13.253,6.215 13.416,5.568 13.416,4.895Z" transform="rotate(-180 6.986 4.895)" fill="#145DA0"/>
</svg>
