<svg width="14" height="12" viewBox="0 0 14 12" fill="none" xmlns="http://www.w3.org/2000/svg" xmlns:xlink="http://www.w3.org/1999/xlink">
<path d="M13.76,5.577C13.76,4.905 13.597,4.258 13.271,3.637C12.944,3.016 12.48,2.467 11.877,1.992C11.274,1.517 10.578,1.15 9.791,0.893C9.003,0.636 8.182,0.507 7.33,0.507C6.477,0.507 5.656,0.636 4.868,0.893C4.081,1.15 3.385,1.517 2.782,1.992C2.179,2.467 1.715,3.016 1.388,3.637C1.062,4.258 0.899,4.905 0.899,5.577C0.899,6.25 1.062,6.896 1.388,7.517C1.715,8.139 2.179,8.687 2.782,9.162C3.385,9.637 4.081,10.004 4.868,10.261C5.656,10.518 6.477,10.647 7.33,10.647C8.182,10.647 9.003,10.518 9.791,10.261C10.578,10.004 11.274,9.637 11.877,9.162C12.48,8.687 12.944,8.139 13.271,7.517C13.597,6.896 13.76,6.25 13.76,5.577Z" transform="rotate(-180 7.33 5.577)" fill="#145DA0"/>
</svg>
