<svg width="14" height="12" viewBox="0 0 14 12" fill="none" xmlns="http://www.w3.org/2000/svg" xmlns:xlink="http://www.w3.org/1999/xlink">
<path d="M13.587,5.749C13.587,5.077 13.424,4.43 13.098,3.809C12.772,3.188 12.307,2.639 11.704,2.164C11.101,1.689 10.405,1.322 9.618,1.065C8.83,0.808 8.01,0.679 7.157,0.679C6.304,0.679 5.484,0.808 4.696,1.065C3.908,1.322 3.212,1.689 2.61,2.164C2.006,2.639 1.542,3.188 1.216,3.809C0.889,4.43 0.726,5.077 0.726,5.749C0.726,6.421 0.889,7.068 1.216,7.689C1.542,8.31 2.006,8.859 2.61,9.334C3.212,9.809 3.908,10.176 4.696,10.433C5.484,10.69 6.304,10.819 7.157,10.819C8.01,10.819 8.83,10.69 9.618,10.433C10.405,10.176 11.101,9.809 11.704,9.334C12.307,8.859 12.772,8.31 13.098,7.689C13.424,7.068 13.587,6.421 13.587,5.749Z" transform="rotate(-180 7.157 5.749)" fill="#145DA0"/>
</svg>
