<svg width="1080" height="320" viewBox="0 0 1080 320" fill="none" xmlns="http://www.w3.org/2000/svg" xmlns:xlink="http://www.w3.org/1999/xlink">
<path d="M-3.72,-3.72L0,-3.72L1078.63,-3.72L1082.35,-3.72L1082.35,0L1082.35,319.678L1082.35,323.398L1078.63,323.398L0,323.398L-3.72,323.398L-3.72,319.678L-3.72,0" fill="#FFFFFF"/>
<path d="M1078.63,0L0,0L0,319.678L1078.63,319.678L1078.63,0M-3.72,-3.72L0,-3.72L1078.63,-3.72L1082.35,-3.72L1082.35,0L1082.35,319.678L1082.35,323.398L1078.63,323.398L0,323.398L-3.72,323.398L-3.72,319.678L-3.72,0" fill-rule="evenodd" fill="#000000"/>
</svg>
