<svg width="498" height="90" viewBox="0 0 498 90" fill="none" xmlns="http://www.w3.org/2000/svg" xmlns:xlink="http://www.w3.org/1999/xlink">
<path d="M-2.897,-3.323L0.823,-3.323L497.379,-3.323L501.099,-3.323L501.099,0.397L501.099,88.819L501.099,92.54L497.379,92.54L0.823,92.54L-2.897,92.54L-2.897,88.819L-2.897,0.397" fill="#FFFFFF"/>
<path d="M497.379,0.397L0.823,0.397L0.823,88.819L497.379,88.819L497.379,0.397M-2.897,-3.323L0.823,-3.323L497.379,-3.323L501.099,-3.323L501.099,0.397L501.099,88.819L501.099,92.54L497.379,92.54L0.823,92.54L-2.897,92.54L-2.897,88.819L-2.897,0.397" fill-rule="evenodd" fill="#000000"/>
</svg>
