<svg width="14" height="10" viewBox="0 0 14 10" fill="none" xmlns="http://www.w3.org/2000/svg" xmlns:xlink="http://www.w3.org/1999/xlink">
<path d="M13.502,4.895C13.502,4.223 13.339,3.576 13.013,2.955C12.687,2.334 12.222,1.786 11.619,1.311C11.016,0.835 10.32,0.469 9.533,0.212C8.745,-0.046 7.925,-0.174 7.072,-0.174C6.219,-0.174 5.399,-0.046 4.611,0.212C3.823,0.469 3.127,0.835 2.525,1.311C1.922,1.786 1.457,2.334 1.131,2.955C0.804,3.576 0.641,4.223 0.641,4.895C0.641,5.568 0.804,6.215 1.131,6.836C1.457,7.457 1.922,8.005 2.525,8.48C3.127,8.956 3.823,9.322 4.611,9.579C5.399,9.837 6.219,9.965 7.072,9.965C7.925,9.965 8.745,9.837 9.533,9.579C10.32,9.322 11.016,8.956 11.619,8.48C12.222,8.005 12.687,7.457 13.013,6.836C13.339,6.215 13.502,5.568 13.502,4.895Z" transform="rotate(-180 7.072 4.895)" fill="#145DA0"/>
</svg>
