<svg width="14" height="12" viewBox="0 0 14 12" fill="none" xmlns="http://www.w3.org/2000/svg" xmlns:xlink="http://www.w3.org/1999/xlink">
<path d="M13.416,5.191C13.416,4.519 13.253,3.872 12.927,3.251C12.601,2.63 12.136,2.082 11.533,1.607C10.93,1.131 10.234,0.765 9.447,0.508C8.659,0.25 7.839,0.121 6.986,0.121C6.133,0.121 5.313,0.25 4.525,0.508C3.737,0.765 3.041,1.131 2.439,1.607C1.836,2.082 1.371,2.63 1.045,3.251C0.718,3.872 0.555,4.519 0.555,5.191C0.555,5.864 0.718,6.51 1.045,7.132C1.371,7.753 1.836,8.301 2.439,8.776C3.041,9.252 3.737,9.618 4.525,9.875C5.313,10.133 6.133,10.261 6.986,10.261C7.839,10.261 8.659,10.133 9.447,9.875C10.234,9.618 10.93,9.252 11.533,8.776C12.136,8.301 12.601,7.753 12.927,7.132C13.253,6.51 13.416,5.864 13.416,5.191Z" transform="rotate(-180 6.986 5.191)" fill="#145DA0"/>
</svg>
