<svg width="14" height="10" viewBox="0 0 14 10" fill="none" xmlns="http://www.w3.org/2000/svg" xmlns:xlink="http://www.w3.org/1999/xlink">
<path d="M13.844,4.43C13.844,3.757 13.681,3.111 13.355,2.489C13.028,1.869 12.564,1.32 11.961,0.845C11.358,0.369 10.662,0.003 9.875,-0.254C9.087,-0.512 8.266,-0.64 7.414,-0.64C6.561,-0.64 5.74,-0.512 4.952,-0.254C4.165,0.003 3.469,0.369 2.866,0.845C2.263,1.32 1.799,1.869 1.472,2.489C1.146,3.111 0.983,3.757 0.983,4.43C0.983,5.102 1.146,5.749 1.472,6.37C1.799,6.991 2.263,7.539 2.866,8.015C3.469,8.49 4.165,8.856 4.952,9.114C5.74,9.371 6.561,9.5 7.414,9.5C8.266,9.5 9.087,9.371 9.875,9.114C10.662,8.856 11.358,8.49 11.961,8.015C12.564,7.539 13.028,6.991 13.355,6.37C13.681,5.749 13.844,5.102 13.844,4.43Z" transform="rotate(-180 7.414 4.43)" fill="#145DA0"/>
</svg>
