<svg width="14" height="10" viewBox="0 0 14 10" fill="none" xmlns="http://www.w3.org/2000/svg" xmlns:xlink="http://www.w3.org/1999/xlink">
<path d="M13.587,4.895C13.587,4.223 13.424,3.576 13.098,2.955C12.772,2.334 12.307,1.786 11.704,1.311C11.101,0.835 10.405,0.469 9.618,0.212C8.83,-0.046 8.01,-0.174 7.157,-0.174C6.304,-0.174 5.484,-0.046 4.696,0.212C3.908,0.469 3.212,0.835 2.61,1.311C2.006,1.786 1.542,2.334 1.216,2.955C0.889,3.576 0.726,4.223 0.726,4.895C0.726,5.568 0.889,6.215 1.216,6.836C1.542,7.457 2.006,8.005 2.61,8.48C3.212,8.956 3.908,9.322 4.696,9.579C5.484,9.837 6.304,9.965 7.157,9.965C8.01,9.965 8.83,9.837 9.618,9.579C10.405,9.322 11.101,8.956 11.704,8.48C12.307,8.005 12.772,7.457 13.098,6.836C13.424,6.215 13.587,5.568 13.587,4.895Z" transform="rotate(-180 7.157 4.895)" fill="#145DA0"/>
</svg>
