<svg width="14" height="10" viewBox="0 0 14 10" fill="none" xmlns="http://www.w3.org/2000/svg" xmlns:xlink="http://www.w3.org/1999/xlink">
<path d="M13.76,4.725C13.76,4.052 13.597,3.405 13.271,2.784C12.944,2.163 12.48,1.615 11.877,1.14C11.274,0.664 10.578,0.298 9.791,0.041C9.003,-0.217 8.182,-0.345 7.33,-0.345C6.477,-0.345 5.656,-0.217 4.868,0.041C4.081,0.298 3.385,0.664 2.782,1.14C2.179,1.615 1.715,2.163 1.388,2.784C1.062,3.405 0.899,4.052 0.899,4.725C0.899,5.397 1.062,6.044 1.388,6.665C1.715,7.286 2.179,7.834 2.782,8.309C3.385,8.785 4.081,9.151 4.868,9.408C5.656,9.666 6.477,9.794 7.33,9.794C8.182,9.794 9.003,9.666 9.791,9.408C10.578,9.151 11.274,8.785 11.877,8.309C12.48,7.834 12.944,7.286 13.271,6.665C13.597,6.044 13.76,5.397 13.76,4.725Z" transform="rotate(-180 7.33 4.725)" fill="#145DA0"/>
</svg>
