<svg width="14" height="12" viewBox="0 0 14 12" fill="none" xmlns="http://www.w3.org/2000/svg" xmlns:xlink="http://www.w3.org/1999/xlink">
<path d="M13.502,5.191C13.502,4.519 13.339,3.872 13.013,3.251C12.687,2.63 12.222,2.082 11.619,1.607C11.016,1.131 10.32,0.765 9.533,0.508C8.745,0.25 7.925,0.121 7.072,0.121C6.219,0.121 5.399,0.25 4.611,0.508C3.823,0.765 3.127,1.131 2.525,1.607C1.922,2.082 1.457,2.63 1.131,3.251C0.804,3.872 0.641,4.519 0.641,5.191C0.641,5.864 0.804,6.51 1.131,7.132C1.457,7.753 1.922,8.301 2.525,8.776C3.127,9.252 3.823,9.618 4.611,9.875C5.399,10.133 6.219,10.261 7.072,10.261C7.925,10.261 8.745,10.133 9.533,9.875C10.32,9.618 11.016,9.252 11.619,8.776C12.222,8.301 12.687,7.753 13.013,7.132C13.339,6.51 13.502,5.864 13.502,5.191Z" transform="rotate(-180 7.072 5.191)" fill="#145DA0"/>
</svg>
