<svg width="14" height="12" viewBox="0 0 14 12" fill="none" xmlns="http://www.w3.org/2000/svg" xmlns:xlink="http://www.w3.org/1999/xlink">
<path d="M13.76,5.282C13.76,4.61 13.597,3.963 13.271,3.342C12.944,2.721 12.48,2.173 11.877,1.697C11.274,1.222 10.578,0.855 9.791,0.598C9.003,0.341 8.182,0.212 7.33,0.212C6.477,0.212 5.656,0.341 4.868,0.598C4.081,0.855 3.385,1.222 2.782,1.697C2.179,2.173 1.715,2.721 1.388,3.342C1.062,3.963 0.899,4.61 0.899,5.282C0.899,5.955 1.062,6.601 1.388,7.222C1.715,7.844 2.179,8.392 2.782,8.867C3.385,9.343 4.081,9.709 4.868,9.966C5.656,10.224 6.477,10.352 7.33,10.352C8.182,10.352 9.003,10.224 9.791,9.966C10.578,9.709 11.274,9.343 11.877,8.867C12.48,8.392 12.944,7.844 13.271,7.222C13.597,6.601 13.76,5.955 13.76,5.282Z" transform="rotate(-180 7.33 5.282)" fill="#145DA0"/>
</svg>
