<svg width="14" height="12" viewBox="0 0 14 12" fill="none" xmlns="http://www.w3.org/2000/svg" xmlns:xlink="http://www.w3.org/1999/xlink">
<path d="M13.844,5.577C13.844,4.905 13.681,4.258 13.355,3.637C13.028,3.016 12.564,2.467 11.961,1.992C11.358,1.517 10.662,1.15 9.875,0.893C9.087,0.636 8.266,0.507 7.414,0.507C6.561,0.507 5.74,0.636 4.952,0.893C4.165,1.15 3.469,1.517 2.866,1.992C2.263,2.467 1.799,3.016 1.472,3.637C1.146,4.258 0.983,4.905 0.983,5.577C0.983,6.25 1.146,6.896 1.472,7.517C1.799,8.139 2.263,8.687 2.866,9.162C3.469,9.637 4.165,10.004 4.952,10.261C5.74,10.518 6.561,10.647 7.414,10.647C8.266,10.647 9.087,10.518 9.875,10.261C10.662,10.004 11.358,9.637 11.961,9.162C12.564,8.687 13.028,8.139 13.355,7.517C13.681,6.896 13.844,6.25 13.844,5.577Z" transform="rotate(-180 7.414 5.577)" fill="#145DA0"/>
</svg>
