<svg width="14" height="12" viewBox="0 0 14 12" fill="none" xmlns="http://www.w3.org/2000/svg" xmlns:xlink="http://www.w3.org/1999/xlink">
<path d="M13.502,5.749C13.502,5.077 13.339,4.43 13.013,3.809C12.687,3.188 12.222,2.639 11.619,2.164C11.016,1.689 10.32,1.322 9.533,1.065C8.745,0.808 7.925,0.679 7.072,0.679C6.219,0.679 5.399,0.808 4.611,1.065C3.823,1.322 3.127,1.689 2.525,2.164C1.922,2.639 1.457,3.188 1.131,3.809C0.804,4.43 0.641,5.077 0.641,5.749C0.641,6.421 0.804,7.068 1.131,7.689C1.457,8.31 1.922,8.859 2.525,9.334C3.127,9.809 3.823,10.176 4.611,10.433C5.399,10.69 6.219,10.819 7.072,10.819C7.925,10.819 8.745,10.69 9.533,10.433C10.32,10.176 11.016,9.809 11.619,9.334C12.222,8.859 12.687,8.31 13.013,7.689C13.339,7.068 13.502,6.421 13.502,5.749Z" transform="rotate(-180 7.072 5.749)" fill="#145DA0"/>
</svg>
