<svg width="14" height="10" viewBox="0 0 14 10" fill="none" xmlns="http://www.w3.org/2000/svg" xmlns:xlink="http://www.w3.org/1999/xlink">
<path d="M13.673,4.43C13.673,3.757 13.51,3.111 13.184,2.489C12.858,1.869 12.393,1.32 11.79,0.845C11.187,0.369 10.491,0.003 9.704,-0.254C8.916,-0.512 8.096,-0.64 7.243,-0.64C6.39,-0.64 5.569,-0.512 4.782,-0.254C3.994,0.003 3.298,0.369 2.696,0.845C2.092,1.32 1.628,1.869 1.302,2.489C0.975,3.111 0.812,3.757 0.812,4.43C0.812,5.102 0.975,5.749 1.302,6.37C1.628,6.991 2.092,7.539 2.696,8.015C3.298,8.49 3.994,8.856 4.782,9.114C5.569,9.371 6.39,9.5 7.243,9.5C8.096,9.5 8.916,9.371 9.704,9.114C10.491,8.856 11.187,8.49 11.79,8.015C12.393,7.539 12.858,6.991 13.184,6.37C13.51,5.749 13.673,5.102 13.673,4.43Z" transform="rotate(-180 7.243 4.43)" fill="#145DA0"/>
</svg>
