<svg width="14" height="12" viewBox="0 0 14 12" fill="none" xmlns="http://www.w3.org/2000/svg" xmlns:xlink="http://www.w3.org/1999/xlink">
<path d="M13.673,5.577C13.673,4.905 13.51,4.258 13.184,3.637C12.858,3.016 12.393,2.467 11.79,1.992C11.187,1.517 10.491,1.15 9.704,0.893C8.916,0.636 8.096,0.507 7.243,0.507C6.39,0.507 5.569,0.636 4.782,0.893C3.994,1.15 3.298,1.517 2.696,1.992C2.092,2.467 1.628,3.016 1.302,3.637C0.975,4.258 0.812,4.905 0.812,5.577C0.812,6.25 0.975,6.896 1.302,7.517C1.628,8.139 2.092,8.687 2.696,9.162C3.298,9.637 3.994,10.004 4.782,10.261C5.569,10.518 6.39,10.647 7.243,10.647C8.096,10.647 8.916,10.518 9.704,10.261C10.491,10.004 11.187,9.637 11.79,9.162C12.393,8.687 12.858,8.139 13.184,7.517C13.51,6.896 13.673,6.25 13.673,5.577Z" transform="rotate(-180 7.243 5.577)" fill="#145DA0"/>
</svg>
