<svg width="496" height="88" viewBox="0 0 496 88" fill="none" xmlns="http://www.w3.org/2000/svg" xmlns:xlink="http://www.w3.org/1999/xlink">
<path d="M-4.568,-4.184L-0.848,-4.184L495.708,-4.184L499.428,-4.184L499.428,-0.464L499.428,87.958L499.428,91.678L495.708,91.678L-0.848,91.678L-4.568,91.678L-4.568,87.958L-4.568,-0.464" fill="#FFFFFF"/>
<path d="M495.708,-0.464L-0.848,-0.464L-0.848,87.958L495.708,87.958L495.708,-0.464M-4.568,-4.184L-0.848,-4.184L495.708,-4.184L499.428,-4.184L499.428,-0.464L499.428,87.958L499.428,91.678L495.708,91.678L-0.848,91.678L-4.568,91.678L-4.568,87.958L-4.568,-0.464" fill-rule="evenodd" fill="#000000"/>
</svg>
